NotoSerifMyanmar-Regular.ufo
<glyph name="question" format="2">
  <advance width="648"/>
  <unicode hex="003F"/>
  <guideline x="435" y="349" angle="0"/>
  <outline>
    <contour>
      <point x="347" y="349" type="line"/>
      <point x="394" y="458"/>
      <point x="593" y="516"/>
      <point x="593" y="725" type="curve" smooth="yes"/>
      <point x="593" y="875"/>
      <point x="498" y="978"/>
      <point x="332" y="978" type="curve" smooth="yes"/>
      <point x="159" y="978"/>
      <point x="65" y="889"/>
      <point x="65" y="735" type="curve" smooth="yes"/>
      <point x="65" y="717"/>
      <point x="66" y="705"/>
      <point x="68" y="696" type="curve"/>
      <point x="135" y="696" type="line"/>
      <point x="135" y="706" type="line" smooth="yes"/>
      <point x="135" y="816"/>
      <point x="216" y="850"/>
      <point x="321" y="850" type="curve" smooth="yes"/>
      <point x="433" y="850"/>
      <point x="490" y="793"/>
      <point x="490" y="705" type="curve" smooth="yes"/>
      <point x="490" y="535"/>
      <point x="260" y="478"/>
      <point x="263" y="349" type="curve"/>
    </contour>
    <contour>
      <point x="308" y="-16" type="curve" smooth="yes"/>
      <point x="392" y="-16"/>
      <point x="442" y="37"/>
      <point x="442" y="114" type="curve" smooth="yes"/>
      <point x="442" y="193"/>
      <point x="392" y="246"/>
      <point x="308" y="246" type="curve" smooth="yes"/>
      <point x="224" y="246"/>
      <point x="174" y="193"/>
      <point x="174" y="114" type="curve" smooth="yes"/>
      <point x="174" y="37"/>
      <point x="224" y="-16"/>
    </contour>
    <contour>
      <point x="308" y="62" type="curve" smooth="yes"/>
      <point x="253" y="62"/>
      <point x="229" y="84"/>
      <point x="229" y="114" type="curve" smooth="yes"/>
      <point x="229" y="145"/>
      <point x="253" y="168"/>
      <point x="308" y="168" type="curve" smooth="yes"/>
      <point x="363" y="168"/>
      <point x="387" y="145"/>
      <point x="387" y="114" type="curve" smooth="yes"/>
      <point x="387" y="84"/>
      <point x="363" y="62"/>
    </contour>
  </outline>
</glyph>
<glyph name="ka" format="2">
  <advance width="1025"/>
  <unicode hex="1000"/>
  <outline>
    <contour>
      <point x="358" y="-10" type="line"/>
      <point x="431" y="-6"/>
      <point x="482" y="22"/>
      <point x="519" y="70" type="curve" smooth="yes"/>
      <point x="561" y="124"/>
      <point x="575" y="190"/>
      <point x="575" y="269" type="curve" smooth="yes"/>
      <point x="575" y="347"/>
      <point x="561" y="413"/>
      <point x="519" y="464" type="curve" smooth="yes"/>
      <point x="480" y="512"/>
      <point x="417" y="546"/>
      <point x="325" y="546" type="curve" smooth="yes"/>
      <point x="305" y="546" type="line" smooth="yes"/>
      <point x="213" y="546"/>
      <point x="150" y="512"/>
      <point x="111" y="464" type="curve" smooth="yes"/>
      <point x="69" y="413"/>
      <point x="55" y="347"/>
      <point x="55" y="269" type="curve" smooth="yes"/>
      <point x="55" y="190"/>
      <point x="69" y="124"/>
      <point x="111" y="70" type="curve" smooth="yes"/>
      <point x="148" y="22"/>
      <point x="199" y="-6"/>
      <point x="272" y="-10" type="curve"/>
      <point x="272" y="118" type="line"/>
      <point x="185" y="126"/>
      <point x="121" y="160"/>
      <point x="121" y="263" type="curve" smooth="yes"/>
      <point x="121" y="273" type="line" smooth="yes"/>
      <point x="121" y="380"/>
      <point x="201" y="418"/>
      <point x="315" y="418" type="curve" smooth="yes"/>
      <point x="429" y="418"/>
      <point x="509" y="380"/>
      <point x="509" y="273" type="curve" smooth="yes"/>
      <point x="509" y="263" type="line" smooth="yes"/>
      <point x="509" y="160"/>
      <point x="445" y="126"/>
      <point x="358" y="118" type="curve"/>
    </contour>
    <contour>
      <point x="506" y="464" type="curve"/>
      <point x="554" y="372" type="line"/>
      <point x="588" y="405"/>
      <point x="643" y="418"/>
      <point x="710" y="418" type="curve" smooth="yes"/>
      <point x="824" y="418"/>
      <point x="904" y="380"/>
      <point x="904" y="273" type="curve" smooth="yes"/>
      <point x="904" y="263" type="line" smooth="yes"/>
      <point x="904" y="156"/>
      <point x="824" y="118"/>
      <point x="710" y="118" type="curve" smooth="yes"/>
      <point x="657" y="118" type="line"/>
      <point x="657" y="-7" type="line"/>
      <point x="673" y="-9"/>
      <point x="693" y="-10"/>
      <point x="714" y="-10" type="curve" smooth="yes"/>
      <point x="809" y="-10"/>
      <point x="877" y="24"/>
      <point x="918" y="77" type="curve" smooth="yes"/>
      <point x="955" y="124"/>
      <point x="970" y="185"/>
      <point x="970" y="268" type="curve" smooth="yes"/>
      <point x="970" y="351"/>
      <point x="955" y="412"/>
      <point x="918" y="459" type="curve" smooth="yes"/>
      <point x="877" y="512"/>
      <point x="809" y="546"/>
      <point x="720" y="546" type="curve" smooth="yes"/>
      <point x="700" y="546" type="line" smooth="yes"/>
      <point x="611" y="546"/>
      <point x="543" y="512"/>
    </contour>
  </outline>
</glyph>
<glyph name="gha" format="2">
  <advance width="1026"/>
  <unicode hex="1003"/>
  <outline>
    <contour>
      <point x="296" y="-10" type="curve" smooth="yes"/>
      <point x="317" y="-10" type="line" smooth="yes"/>
      <point x="413" y="-10"/>
      <point x="479" y="24"/>
      <point x="520" y="72" type="curve" smooth="yes"/>
      <point x="562" y="123"/>
      <point x="576" y="189"/>
      <point x="576" y="267" type="curve" smooth="yes"/>
      <point x="576" y="346"/>
      <point x="562" y="412"/>
      <point x="520" y="466" type="curve" smooth="yes"/>
      <point x="483" y="514"/>
      <point x="432" y="542"/>
      <point x="359" y="546" type="curve"/>
      <point x="359" y="418" type="line"/>
      <point x="446" y="410"/>
      <point x="510" y="376"/>
      <point x="510" y="273" type="curve" smooth="yes"/>
      <point x="510" y="263" type="line" smooth="yes"/>
      <point x="510" y="156"/>
      <point x="430" y="118"/>
      <point x="316" y="118" type="curve" smooth="yes"/>
      <point x="216" y="118"/>
      <point x="148" y="148"/>
      <point x="148" y="215" type="curve" smooth="yes"/>
      <point x="148" y="307"/>
      <point x="276" y="326"/>
      <point x="276" y="435" type="curve" smooth="yes"/>
      <point x="276" y="502"/>
      <point x="227" y="546"/>
      <point x="160" y="546" type="curve" smooth="yes"/>
      <point x="92" y="546"/>
      <point x="32" y="499"/>
      <point x="42" y="402" type="curve"/>
      <point x="83" y="402" type="line"/>
      <point x="92" y="420"/>
      <point x="105" y="437"/>
      <point x="132" y="437" type="curve" smooth="yes"/>
      <point x="157" y="437"/>
      <point x="176" y="421"/>
      <point x="176" y="393" type="curve" smooth="yes"/>
      <point x="176" y="326"/>
      <point x="56" y="297"/>
      <point x="56" y="172" type="curve" smooth="yes"/>
      <point x="56" y="64"/>
      <point x="146" y="-10"/>
    </contour>
    <contour>
      <point x="507" y="72" type="line"/>
      <point x="544" y="24"/>
      <point x="612" y="-10"/>
      <point x="701" y="-10" type="curve" smooth="yes"/>
      <point x="721" y="-10" type="line" smooth="yes"/>
      <point x="810" y="-10"/>
      <point x="878" y="24"/>
      <point x="919" y="77" type="curve" smooth="yes"/>
      <point x="956" y="124"/>
      <point x="971" y="185"/>
      <point x="971" y="268" type="curve" smooth="yes"/>
      <point x="971" y="351"/>
      <point x="956" y="412"/>
      <point x="919" y="459" type="curve" smooth="yes"/>
      <point x="878" y="512"/>
      <point x="810" y="546"/>
      <point x="715" y="546" type="curve" smooth="yes"/>
      <point x="694" y="546"/>
      <point x="674" y="545"/>
      <point x="658" y="543" type="curve"/>
      <point x="658" y="418" type="line"/>
      <point x="711" y="418" type="line" smooth="yes"/>
      <point x="825" y="418"/>
      <point x="905" y="380"/>
      <point x="905" y="273" type="curve" smooth="yes"/>
      <point x="905" y="263" type="line" smooth="yes"/>
      <point x="905" y="156"/>
      <point x="825" y="118"/>
      <point x="711" y="118" type="curve" smooth="yes"/>
      <point x="644" y="118"/>
      <point x="589" y="131"/>
      <point x="555" y="164" type="curve"/>
    </contour>
  </outline>
</glyph>
<glyph name="nga" format="2">
  <advance width="630"/>
  <unicode hex="1004"/>
  <outline>
    <contour>
      <point x="506" y="213" type="line"/>
      <point x="498" y="155"/>
      <point x="429" y="118"/>
      <point x="315" y="118" type="curve" smooth="yes"/>
      <point x="201" y="118"/>
      <point x="121" y="156"/>
      <point x="121" y="263" type="curve" smooth="yes"/>
      <point x="121" y="273" type="line" smooth="yes"/>
      <point x="121" y="380"/>
      <point x="201" y="418"/>
      <point x="315" y="418" type="curve" smooth="yes"/>
      <point x="429" y="418"/>
      <point x="498" y="381"/>
      <point x="506" y="323" type="curve"/>
      <point x="572" y="323" type="line"/>
      <point x="572" y="406"/>
      <point x="513" y="546"/>
      <point x="325" y="546" type="curve" smooth="yes"/>
      <point x="305" y="546" type="line" smooth="yes"/>
      <point x="216" y="546"/>
      <point x="148" y="512"/>
      <point x="107" y="459" type="curve" smooth="yes"/>
      <point x="70" y="412"/>
      <point x="55" y="351"/>
      <point x="55" y="268" type="curve" smooth="yes"/>
      <point x="55" y="185"/>
      <point x="70" y="124"/>
      <point x="107" y="77" type="curve" smooth="yes"/>
      <point x="148" y="24"/>
      <point x="216" y="-10"/>
      <point x="305" y="-10" type="curve"/>
      <point x="328" y="-10" type="line" smooth="yes"/>
      <point x="470" y="-10"/>
      <point x="567" y="79"/>
      <point x="572" y="213" type="curve"/>
    </contour>
  </outline>
</glyph>
<glyph name="ca" format="2">
  <advance width="630"/>
  <unicode hex="1005"/>
  <note>
ca
</note>
  <outline>
    <contour>
      <point x="206" y="163" type="curve" smooth="yes"/>
      <point x="333" y="163"/>
      <point x="377" y="192"/>
      <point x="377" y="268" type="curve" smooth="yes"/>
      <point x="377" y="339"/>
      <point x="333" y="373"/>
      <point x="206" y="373" type="curve" smooth="yes"/>
      <point x="97" y="373"/>
      <point x="60" y="343"/>
      <point x="60" y="268" type="curve" smooth="yes"/>
      <point x="60" y="193"/>
      <point x="97" y="163"/>
    </contour>
    <contour>
      <point x="197" y="220" type="curve" smooth="yes"/>
      <point x="132" y="220"/>
      <point x="111" y="238"/>
      <point x="111" y="270" type="curve" smooth="yes"/>
      <point x="111" y="299"/>
      <point x="132" y="316"/>
      <point x="197" y="316" type="curve" smooth="yes"/>
      <point x="260" y="316"/>
      <point x="281" y="299"/>
      <point x="281" y="270" type="curve" smooth="yes"/>
      <point x="281" y="238"/>
      <point x="260" y="220"/>
    </contour>
    <contour>
      <point x="305" y="546" type="line" smooth="yes"/>
      <point x="216" y="546"/>
      <point x="148" y="512"/>
      <point x="107" y="459" type="curve" smooth="yes"/>
      <point x="70" y="412"/>
      <point x="55" y="351"/>
      <point x="55" y="268" type="curve" smooth="yes"/>
      <point x="55" y="185"/>
      <point x="70" y="124"/>
      <point x="107" y="77" type="curve" smooth="yes"/>
      <point x="148" y="24"/>
      <point x="216" y="-10"/>
      <point x="305" y="-10" type="curve" smooth="yes"/>
      <point x="325" y="-10" type="line" smooth="yes"/>
      <point x="414" y="-10"/>
      <point x="482" y="24"/>
      <point x="523" y="77" type="curve" smooth="yes"/>
      <point x="560" y="124"/>
      <point x="575" y="185"/>
      <point x="575" y="268" type="curve" smooth="yes"/>
      <point x="575" y="351"/>
      <point x="560" y="412"/>
      <point x="523" y="459" type="curve" smooth="yes"/>
      <point x="482" y="512"/>
      <point x="414" y="546"/>
      <point x="325" y="546" type="curve" smooth="yes"/>
    </contour>
    <contour>
      <point x="309" y="107" type="curve" smooth="yes"/>
      <point x="191" y="107"/>
      <point x="108" y="148"/>
      <point x="108" y="263" type="curve" smooth="yes"/>
      <point x="108" y="273" type="line" smooth="yes"/>
      <point x="108" y="388"/>
      <point x="191" y="429"/>
      <point x="309" y="429" type="curve" smooth="yes"/>
      <point x="426" y="429"/>
      <point x="509" y="388"/>
      <point x="509" y="273" type="curve" smooth="yes"/>
      <point x="509" y="263" type="line" smooth="yes"/>
      <point x="509" y="148"/>
      <point x="426" y="107"/>
    </contour>
  </outline>
</glyph>
<glyph name="cha" format="2">
  <advance width="1019"/>
  <unicode hex="1006"/>
  <note>
cha
</note>
  <outline>
    <contour>
      <point x="547" y="164" type="curve"/>
      <point x="500" y="72" type="line"/>
      <point x="537" y="24"/>
      <point x="605" y="-10"/>
      <point x="694" y="-10" type="curve" smooth="yes"/>
      <point x="714" y="-10" type="line" smooth="yes"/>
      <point x="803" y="-10"/>
      <point x="871" y="24"/>
      <point x="912" y="77" type="curve" smooth="yes"/>
      <point x="949" y="124"/>
      <point x="964" y="185"/>
      <point x="964" y="268" type="curve" smooth="yes"/>
      <point x="964" y="351"/>
      <point x="949" y="412"/>
      <point x="912" y="459" type="curve" smooth="yes"/>
      <point x="871" y="512"/>
      <point x="803" y="546"/>
      <point x="714" y="546" type="curve" smooth="yes"/>
      <point x="694" y="546" type="line" smooth="yes"/>
      <point x="605" y="546"/>
      <point x="537" y="512"/>
      <point x="500" y="464" type="curve"/>
      <point x="548" y="373" type="line"/>
      <point x="583" y="405"/>
      <point x="637" y="418"/>
      <point x="704" y="418" type="curve" smooth="yes"/>
      <point x="818" y="418"/>
      <point x="898" y="380"/>
      <point x="898" y="273" type="curve" smooth="yes"/>
      <point x="898" y="263" type="line" smooth="yes"/>
      <point x="898" y="156"/>
      <point x="818" y="118"/>
      <point x="704" y="118" type="curve" smooth="yes"/>
      <point x="637" y="118"/>
      <point x="581" y="131"/>
    </contour>
    <component base="kha"/>
  </outline>
</glyph>
<glyph name="ja" format="2">
  <advance width="684"/>
  <unicode hex="1007"/>
  <note>
ja
</note>
  <outline>
    <contour>
      <point x="315" y="418" type="curve"/>
      <point x="327" y="512" type="line"/>
      <point x="272" y="481"/>
      <point x="247" y="432"/>
      <point x="247" y="384" type="curve" smooth="yes"/>
      <point x="247" y="329"/>
      <point x="271" y="264"/>
      <point x="409" y="264" type="curve" smooth="yes"/>
      <point x="547" y="264"/>
      <point x="571" y="329"/>
      <point x="571" y="384" type="curve" smooth="yes"/>
      <point x="571" y="464"/>
      <point x="503" y="546"/>
      <point x="337" y="546" type="curve" smooth="yes"/>
      <point x="326" y="546" type="line" smooth="yes"/>
      <point x="227" y="546"/>
      <point x="153" y="518"/>
      <point x="108" y="459" type="curve" smooth="yes"/>
      <point x="73" y="414"/>
      <point x="55" y="351"/>
      <point x="55" y="269" type="curve" smooth="yes"/>
      <point x="55" y="191"/>
      <point x="74" y="126"/>
      <point x="109" y="79" type="curve" smooth="yes"/>
      <point x="151" y="22"/>
      <point x="218" y="-10"/>
      <point x="305" y="-10" type="curve" smooth="yes"/>
      <point x="325" y="-10" type="line" smooth="yes"/>
      <point x="513" y="-10"/>
      <point x="572" y="130"/>
      <point x="572" y="213" type="curve"/>
      <point x="506" y="213" type="line"/>
      <point x="498" y="155"/>
      <point x="429" y="118"/>
      <point x="315" y="118" type="curve" smooth="yes"/>
      <point x="201" y="118"/>
      <point x="121" y="156"/>
      <point x="121" y="263" type="curve" smooth="yes"/>
      <point x="121" y="273" type="line" smooth="yes"/>
      <point x="121" y="380"/>
      <point x="201" y="418"/>
    </contour>
    <contour>
      <point x="409" y="418" type="curve" smooth="yes"/>
      <point x="481" y="418"/>
      <point x="508" y="399"/>
      <point x="508" y="371" type="curve" smooth="yes"/>
      <point x="508" y="341"/>
      <point x="472" y="331"/>
      <point x="431" y="331" type="curve" smooth="yes"/>
      <point x="387" y="331" type="line" smooth="yes"/>
      <point x="346" y="331"/>
      <point x="310" y="341"/>
      <point x="310" y="371" type="curve" smooth="yes"/>
      <point x="310" y="399"/>
      <point x="337" y="418"/>
    </contour>
    <contour>
      <point x="667" y="308" type="line"/>
      <point x="623" y="309"/>
      <point x="563" y="314"/>
      <point x="563" y="405" type="curve"/>
      <point x="514" y="383" type="line"/>
      <point x="514" y="281"/>
      <point x="591" y="247"/>
      <point x="667" y="251" type="curve"/>
    </contour>
  </outline>
</glyph>
<glyph name="jha" format="2">
  <advance width="826"/>
  <unicode hex="1008"/>
  <outline>
    <contour>
      <point x="766" y="536" type="line"/>
      <point x="690" y="536" type="line"/>
      <point x="690" y="-300" type="line" smooth="yes"/>
      <point x="690" y="-383"/>
      <point x="659" y="-414"/>
      <point x="580" y="-414" type="curve" smooth="yes"/>
      <point x="501" y="-414"/>
      <point x="470" y="-383"/>
      <point x="470" y="-300" type="curve" smooth="yes"/>
      <point x="470" y="69" type="line"/>
      <point x="394" y="69" type="line"/>
      <point x="394" y="-329" type="line" smooth="yes"/>
      <point x="394" y="-469"/>
      <point x="448" y="-542"/>
      <point x="580" y="-542" type="curve" smooth="yes"/>
      <point x="712" y="-542"/>
      <point x="766" y="-472"/>
      <point x="766" y="-329" type="curve" smooth="yes"/>
    </contour>
    <component base="ca"/>
  </outline>
</glyph>
<glyph name="nya" format="2">
  <advance width="630"/>
  <unicode hex="1009"/>
  <note>
nya
</note>
  <outline>
    <contour>
      <point x="975" y="-269" type="line"/>
      <point x="907" y="-269" type="line"/>
      <point x="907" y="-290" type="line" smooth="yes"/>
      <point x="907" y="-345"/>
      <point x="887" y="-379"/>
      <point x="840" y="-393" type="curve" smooth="yes"/>
      <point x="787" y="-409"/>
      <point x="682" y="-412"/>
      <point x="520" y="-412" type="curve" smooth="yes"/>
      <point x="357" y="-412"/>
      <point x="252" y="-409"/>
      <point x="200" y="-394" type="curve" smooth="yes"/>
      <point x="154" y="-379"/>
      <point x="132" y="-345"/>
      <point x="132" y="-290" type="curve" smooth="yes"/>
      <point x="132" y="130" type="line"/>
      <point x="58" y="213" type="line"/>
      <point x="58" y="-326" type="line" smooth="yes"/>
      <point x="58" y="-432"/>
      <point x="93" y="-477"/>
      <point x="135" y="-501" type="curve" smooth="yes"/>
      <point x="196" y="-539"/>
      <point x="316" y="-542"/>
      <point x="517" y="-542" type="curve" smooth="yes"/>
      <point x="718" y="-542"/>
      <point x="838" y="-539"/>
      <point x="899" y="-501" type="curve" smooth="yes"/>
      <point x="942" y="-477"/>
      <point x="975" y="-432"/>
      <point x="975" y="-326" type="curve" smooth="yes"/>
    </contour>
    <component base="nga" xScale="-1" yScale="-1" xOffset="630" yOffset="536"/>
  </outline>
</glyph>
<glyph name="nnya" format="2">
  <advance width="1030"/>
  <unicode hex="100A"/>
  <outline>
    <contour>
      <point x="975" y="-269" type="line"/>
      <point x="907" y="-269" type="line"/>
      <point x="907" y="-290" type="line" smooth="yes"/>
      <point x="907" y="-345"/>
      <point x="887" y="-379"/>
      <point x="840" y="-393" type="curve" smooth="yes"/>
      <point x="787" y="-411"/>
      <point x="682" y="-414"/>
      <point x="520" y="-414" type="curve" smooth="yes"/>
      <point x="357" y="-414"/>
      <point x="252" y="-411"/>
      <point x="200" y="-394" type="curve" smooth="yes"/>
      <point x="154" y="-379"/>
      <point x="132" y="-345"/>
      <point x="132" y="-290" type="curve" smooth="yes"/>
      <point x="132" y="130" type="line"/>
      <point x="58" y="213" type="line"/>
      <point x="58" y="-326" type="line" smooth="yes"/>
      <point x="58" y="-432"/>
      <point x="93" y="-477"/>
      <point x="135" y="-501" type="curve" smooth="yes"/>
      <point x="196" y="-539"/>
      <point x="316" y="-542"/>
      <point x="517" y="-542" type="curve" smooth="yes"/>
      <point x="718" y="-542"/>
      <point x="838" y="-539"/>
      <point x="899" y="-501" type="curve" smooth="yes"/>
      <point x="942" y="-477"/>
      <point x="975" y="-432"/>
      <point x="975" y="-326" type="curve" smooth="yes"/>
    </contour>
    <component base="nga" xScale="-1" yScale="-1" xOffset="630" yOffset="536"/>
    <component base="_aa" yScale="-1" xOffset="635" yOffset="536"/>
  </outline>
</glyph>
<glyph name="tta" format="2">
  <advance width="630"/>
  <unicode hex="100B"/>
  <outline>
    <contour>
      <point x="55" y="27" type="line"/>
      <point x="55" y="-187" type="line" smooth="yes"/>
      <point x="55" y="-292"/>
      <point x="78" y="-335"/>
      <point x="106" y="-358" type="curve" smooth="yes"/>
      <point x="148" y="-396"/>
      <point x="224" y="-401"/>
      <point x="313" y="-401" type="curve" smooth="yes"/>
      <point x="402" y="-401"/>
      <point x="477" y="-396"/>
      <point x="520" y="-358" type="curve" smooth="yes"/>
      <point x="547" y="-335"/>
      <point x="570" y="-292"/>
      <point x="570" y="-187" type="curve"/>
      <point x="570" y="-185" type="line"/>
      <point x="506" y="-185" type="line"/>
      <point x="506" y="-229"/>
      <point x="493" y="-254"/>
      <point x="465" y="-268" type="curve" smooth="yes"/>
      <point x="435" y="-284"/>
      <point x="372" y="-287"/>
      <point x="314" y="-287" type="curve" smooth="yes"/>
      <point x="256" y="-287"/>
      <point x="193" y="-284"/>
      <point x="164" y="-269" type="curve" smooth="yes"/>
      <point x="135" y="-254"/>
      <point x="122" y="-222"/>
      <point x="122" y="-169" type="curve" smooth="yes"/>
      <point x="122" y="-98" type="line"/>
    </contour>
    <contour>
      <point x="572" y="219" type="line"/>
      <point x="505" y="199" type="line"/>
      <point x="505" y="30" type="line" smooth="yes"/>
      <point x="505" y="-23"/>
      <point x="492" y="-55"/>
      <point x="463" y="-70" type="curve" smooth="yes"/>
      <point x="434" y="-85"/>
      <point x="371" y="-88"/>
      <point x="313" y="-88" type="curve" smooth="yes"/>
      <point x="255" y="-88"/>
      <point x="192" y="-85"/>
      <point x="162" y="-69" type="curve" smooth="yes"/>
      <point x="134" y="-55"/>
      <point x="121" y="-30"/>
      <point x="121" y="14" type="curve" smooth="yes"/>
      <point x="121" y="29" type="line"/>
      <point x="55" y="29" type="line"/>
      <point x="55" y="12" type="line" smooth="yes"/>
      <point x="55" y="-93"/>
      <point x="78" y="-136"/>
      <point x="105" y="-159" type="curve" smooth="yes"/>
      <point x="148" y="-197"/>
      <point x="224" y="-202"/>
      <point x="313" y="-202" type="curve" smooth="yes"/>
      <point x="402" y="-202"/>
      <point x="479" y="-197"/>
      <point x="521" y="-159" type="curve" smooth="yes"/>
      <point x="549" y="-136"/>
      <point x="572" y="-93"/>
      <point x="572" y="12" type="curve" smooth="yes"/>
    </contour>
    <contour>
      <point x="670" y="-414" type="line"/>
      <point x="655" y="-414" type="line" smooth="yes"/>
      <point x="591" y="-410"/>
      <point x="570" y="-388"/>
      <point x="570" y="-310" type="curve" smooth="yes"/>
      <point x="570" y="-186" type="line"/>
      <point x="506" y="-283" type="line"/>
      <point x="506" y="-362" type="line" smooth="yes"/>
      <point x="506" y="-489"/>
      <point x="552" y="-542"/>
      <point x="645" y="-542" type="curve" smooth="yes"/>
      <point x="660" y="-542"/>
      <point x="665" y="-542"/>
      <point x="670" y="-541" type="curve"/>
    </contour>
    <component base="nga" yScale="0.982" yOffset="10"/>
  </outline>
</glyph>
<glyph name="ttha" format="2">
  <advance width="630"/>
  <unicode hex="100C"/>
  <note>
ttha
</note>
  <outline>
    <contour>
      <point x="572" y="213" type="line"/>
      <point x="498" y="163" type="line"/>
      <point x="498" y="-303" type="line" smooth="yes"/>
      <point x="498" y="-356"/>
      <point x="484" y="-388"/>
      <point x="454" y="-403" type="curve" smooth="yes"/>
      <point x="426" y="-418"/>
      <point x="364" y="-420"/>
      <point x="309" y="-420" type="curve" smooth="yes"/>
      <point x="197" y="-420"/>
      <point x="121" y="-410"/>
      <point x="121" y="-343" type="curve" smooth="yes"/>
      <point x="121" y="-306"/>
      <point x="154" y="-280"/>
      <point x="219" y="-280" type="curve" smooth="yes"/>
      <point x="291" y="-280"/>
      <point x="321" y="-305"/>
      <point x="325" y="-348" type="curve"/>
      <point x="439" y="-348" type="line"/>
      <point x="436" y="-262"/>
      <point x="359" y="-207"/>
      <point x="244" y="-207" type="curve" smooth="yes"/>
      <point x="122" y="-207"/>
      <point x="55" y="-280"/>
      <point x="55" y="-373" type="curve" smooth="yes"/>
      <point x="55" y="-440"/>
      <point x="80" y="-476"/>
      <point x="108" y="-499" type="curve" smooth="yes"/>
      <point x="151" y="-537"/>
      <point x="226" y="-542"/>
      <point x="313" y="-542" type="curve" smooth="yes"/>
      <point x="401" y="-542"/>
      <point x="476" y="-537"/>
      <point x="519" y="-499" type="curve" smooth="yes"/>
      <point x="547" y="-476"/>
      <point x="572" y="-433"/>
      <point x="572" y="-328" type="curve" smooth="yes"/>
    </contour>
    <component base="nga"/>
  </outline>
</glyph>
<glyph name="dda" format="2">
  <advance width="630"/>
  <unicode hex="100D"/>
  <note>
dda
</note>
  <outline>
    <contour>
      <point x="58" y="213" type="line"/>
      <point x="58" y="-31" type="line" smooth="yes"/>
      <point x="58" y="-136"/>
      <point x="81" y="-179"/>
      <point x="109" y="-202" type="curve" smooth="yes"/>
      <point x="151" y="-240"/>
      <point x="228" y="-245"/>
      <point x="317" y="-245" type="curve" smooth="yes"/>
      <point x="406" y="-245"/>
      <point x="482" y="-240"/>
      <point x="525" y="-202" type="curve" smooth="yes"/>
      <point x="552" y="-179"/>
      <point x="575" y="-136"/>
      <point x="575" y="-31" type="curve" smooth="yes"/>
      <point x="575" y="-4" type="line"/>
      <point x="509" y="-4" type="line"/>
      <point x="509" y="-56"/>
      <point x="497" y="-88"/>
      <point x="469" y="-102" type="curve" smooth="yes"/>
      <point x="439" y="-118"/>
      <point x="376" y="-121"/>
      <point x="319" y="-121" type="curve" smooth="yes"/>
      <point x="262" y="-121"/>
      <point x="199" y="-118"/>
      <point x="170" y="-103" type="curve" smooth="yes"/>
      <point x="142" y="-88"/>
      <point x="129" y="-56"/>
      <point x="129" y="-3" type="curve" smooth="yes"/>
      <point x="129" y="193" type="line"/>
    </contour>
    <contour>
      <point x="681" y="-413" type="line"/>
      <point x="669" y="-413" type="line" smooth="yes"/>
      <point x="593" y="-413"/>
      <point x="575" y="-386"/>
      <point x="575" y="-303" type="curve" smooth="yes"/>
      <point x="575" y="-4" type="line"/>
      <point x="509" y="-134" type="line"/>
      <point x="509" y="-335" type="line" smooth="yes"/>
      <point x="509" y="-490"/>
      <point x="558" y="-542"/>
      <point x="665" y="-542" type="curve" smooth="yes"/>
      <point x="670" y="-542"/>
      <point x="676" y="-542"/>
      <point x="681" y="-541" type="curve"/>
    </contour>
    <component base="nga" xScale="-1" xOffset="630"/>
  </outline>
</glyph>
<glyph name="ddha" format="2">
  <advance width="631"/>
  <unicode hex="100E"/>
  <note>
ddha
</note>
  <outline>
    <contour>
      <point x="296" y="-10" type="curve" smooth="yes"/>
      <point x="317" y="-10" type="line" smooth="yes"/>
      <point x="413" y="-10"/>
      <point x="479" y="24"/>
      <point x="520" y="72" type="curve" smooth="yes"/>
      <point x="562" y="123"/>
      <point x="576" y="189"/>
      <point x="576" y="267" type="curve" smooth="yes"/>
      <point x="576" y="346"/>
      <point x="562" y="412"/>
      <point x="520" y="466" type="curve" smooth="yes"/>
      <point x="483" y="514"/>
      <point x="432" y="542"/>
      <point x="359" y="546" type="curve"/>
      <point x="359" y="418" type="line"/>
      <point x="446" y="410"/>
      <point x="510" y="376"/>
      <point x="510" y="273" type="curve" smooth="yes"/>
      <point x="510" y="263" type="line" smooth="yes"/>
      <point x="510" y="156"/>
      <point x="430" y="118"/>
      <point x="316" y="118" type="curve" smooth="yes"/>
      <point x="216" y="118"/>
      <point x="148" y="148"/>
      <point x="148" y="215" type="curve" smooth="yes"/>
      <point x="148" y="307"/>
      <point x="276" y="326"/>
      <point x="276" y="435" type="curve" smooth="yes"/>
      <point x="276" y="502"/>
      <point x="227" y="546"/>
      <point x="160" y="546" type="curve" smooth="yes"/>
      <point x="92" y="546"/>
      <point x="32" y="499"/>
      <point x="42" y="402" type="curve"/>
      <point x="83" y="402" type="line"/>
      <point x="92" y="420"/>
      <point x="105" y="437"/>
      <point x="132" y="437" type="curve" smooth="yes"/>
      <point x="157" y="437"/>
      <point x="176" y="421"/>
      <point x="176" y="393" type="curve" smooth="yes"/>
      <point x="176" y="326"/>
      <point x="56" y="297"/>
      <point x="56" y="172" type="curve" smooth="yes"/>
      <point x="56" y="64"/>
      <point x="146" y="-10"/>
    </contour>
  </outline>
</glyph>
<glyph name="nna" format="2">
  <advance width="1206"/>
  <unicode hex="100F"/>
  <note>
nna
</note>
  <outline>
    <contour>
      <point x="853" y="118" type="line"/>
      <point x="853" y="-7" type="line"/>
      <point x="866" y="-9"/>
      <point x="884" y="-10"/>
      <point x="901" y="-10" type="curve" smooth="yes"/>
      <point x="990" y="-10"/>
      <point x="1058" y="24"/>
      <point x="1099" y="77" type="curve" smooth="yes"/>
      <point x="1136" y="124"/>
      <point x="1151" y="185"/>
      <point x="1151" y="268" type="curve" smooth="yes"/>
      <point x="1151" y="351"/>
      <point x="1136" y="412"/>
      <point x="1099" y="459" type="curve" smooth="yes"/>
      <point x="1058" y="512"/>
      <point x="990" y="546"/>
      <point x="901" y="546" type="curve" smooth="yes"/>
      <point x="881" y="546" type="line" smooth="yes"/>
      <point x="748" y="546"/>
      <point x="647" y="451"/>
      <point x="647" y="340" type="curve" smooth="yes"/>
      <point x="647" y="281"/>
      <point x="668" y="237"/>
      <point x="668" y="177" type="curve" smooth="yes"/>
      <point x="668" y="132"/>
      <point x="651" y="96"/>
      <point x="603" y="96" type="curve" smooth="yes"/>
      <point x="555" y="96"/>
      <point x="538" y="132"/>
      <point x="538" y="177" type="curve" smooth="yes"/>
      <point x="538" y="237"/>
      <point x="559" y="281"/>
      <point x="559" y="340" type="curve" smooth="yes"/>
      <point x="559" y="451"/>
      <point x="458" y="546"/>
      <point x="325" y="546" type="curve" smooth="yes"/>
      <point x="305" y="546" type="line" smooth="yes"/>
      <point x="216" y="546"/>
      <point x="148" y="512"/>
      <point x="107" y="459" type="curve" smooth="yes"/>
      <point x="70" y="412"/>
      <point x="55" y="351"/>
      <point x="55" y="268" type="curve" smooth="yes"/>
      <point x="55" y="185"/>
      <point x="70" y="124"/>
      <point x="107" y="77" type="curve" smooth="yes"/>
      <point x="148" y="24"/>
      <point x="216" y="-10"/>
      <point x="305" y="-10" type="curve" smooth="yes"/>
      <point x="322" y="-10"/>
      <point x="340" y="-9"/>
      <point x="353" y="-7" type="curve"/>
      <point x="353" y="118" type="line"/>
      <point x="315" y="118" type="line" smooth="yes"/>
      <point x="201" y="118"/>
      <point x="121" y="156"/>
      <point x="121" y="263" type="curve" smooth="yes"/>
      <point x="121" y="273" type="line" smooth="yes"/>
      <point x="121" y="380"/>
      <point x="201" y="418"/>
      <point x="317" y="418" type="curve" smooth="yes"/>
      <point x="405" y="418"/>
      <point x="480" y="385"/>
      <point x="480" y="300" type="curve" smooth="yes"/>
      <point x="480" y="242"/>
      <point x="457" y="212"/>
      <point x="457" y="144" type="curve" smooth="yes"/>
      <point x="457" y="53"/>
      <point x="509" y="-11"/>
      <point x="601" y="-11" type="curve" smooth="yes"/>
      <point x="605" y="-11" type="line" smooth="yes"/>
      <point x="697" y="-11"/>
      <point x="749" y="53"/>
      <point x="749" y="144" type="curve" smooth="yes"/>
      <point x="749" y="212"/>
      <point x="726" y="242"/>
      <point x="726" y="300" type="curve" smooth="yes"/>
      <point x="726" y="385"/>
      <point x="801" y="418"/>
      <point x="889" y="418" type="curve" smooth="yes"/>
      <point x="1005" y="418"/>
      <point x="1085" y="380"/>
      <point x="1085" y="273" type="curve" smooth="yes"/>
      <point x="1085" y="263" type="line" smooth="yes"/>
      <point x="1085" y="156"/>
      <point x="1005" y="118"/>
      <point x="891" y="118" type="curve" smooth="yes"/>
    </contour>
    <contour>
      <point x="603" y="547" type="curve" smooth="yes"/>
      <point x="535" y="547"/>
      <point x="487" y="510"/>
      <point x="476" y="473" type="curve"/>
      <point x="524" y="389" type="line"/>
      <point x="533" y="426"/>
      <point x="562" y="445"/>
      <point x="603" y="445" type="curve" smooth="yes"/>
      <point x="644" y="445"/>
      <point x="673" y="426"/>
      <point x="682" y="389" type="curve"/>
      <point x="730" y="473" type="line"/>
      <point x="719" y="510"/>
      <point x="671" y="547"/>
    </contour>
  </outline>
</glyph>
<glyph name="ta" format="2">
  <advance width="1025"/>
  <unicode hex="1010"/>
  <outline>
    <contour>
      <point x="305" y="546" type="line" smooth="yes"/>
      <point x="216" y="546"/>
      <point x="148" y="512"/>
      <point x="107" y="459" type="curve" smooth="yes"/>
      <point x="70" y="412"/>
      <point x="55" y="351"/>
      <point x="55" y="268" type="curve" smooth="yes"/>
      <point x="55" y="185"/>
      <point x="70" y="124"/>
      <point x="107" y="77" type="curve" smooth="yes"/>
      <point x="148" y="24"/>
      <point x="216" y="-10"/>
      <point x="305" y="-10" type="curve" smooth="yes"/>
      <point x="325" y="-10" type="line" smooth="yes"/>
      <point x="414" y="-10"/>
      <point x="482" y="24"/>
      <point x="523" y="77" type="curve" smooth="yes"/>
      <point x="560" y="124"/>
      <point x="575" y="185"/>
      <point x="575" y="268" type="curve" smooth="yes"/>
      <point x="575" y="351"/>
      <point x="560" y="412"/>
      <point x="523" y="459" type="curve" smooth="yes"/>
      <point x="482" y="512"/>
      <point x="414" y="546"/>
      <point x="325" y="546" type="curve" smooth="yes"/>
    </contour>
    <contour>
      <point x="315" y="118" type="curve" smooth="yes"/>
      <point x="201" y="118"/>
      <point x="121" y="156"/>
      <point x="121" y="263" type="curve" smooth="yes"/>
      <point x="121" y="273" type="line" smooth="yes"/>
      <point x="121" y="380"/>
      <point x="201" y="418"/>
      <point x="315" y="418" type="curve" smooth="yes"/>
      <point x="429" y="418"/>
      <point x="509" y="380"/>
      <point x="509" y="273" type="curve" smooth="yes"/>
      <point x="509" y="263" type="line" smooth="yes"/>
      <point x="509" y="156"/>
      <point x="429" y="118"/>
    </contour>
    <contour>
      <point x="506" y="464" type="curve"/>
      <point x="554" y="372" type="line"/>
      <point x="588" y="405"/>
      <point x="643" y="418"/>
      <point x="710" y="418" type="curve" smooth="yes"/>
      <point x="824" y="418"/>
      <point x="904" y="380"/>
      <point x="904" y="273" type="curve" smooth="yes"/>
      <point x="904" y="263" type="line" smooth="yes"/>
      <point x="904" y="156"/>
      <point x="824" y="118"/>
      <point x="710" y="118" type="curve" smooth="yes"/>
      <point x="657" y="118" type="line"/>
      <point x="657" y="-7" type="line"/>
      <point x="673" y="-9"/>
      <point x="693" y="-10"/>
      <point x="714" y="-10" type="curve" smooth="yes"/>
      <point x="809" y="-10"/>
      <point x="877" y="24"/>
      <point x="918" y="77" type="curve" smooth="yes"/>
      <point x="955" y="124"/>
      <point x="970" y="185"/>
      <point x="970" y="268" type="curve" smooth="yes"/>
      <point x="970" y="351"/>
      <point x="955" y="412"/>
      <point x="918" y="459" type="curve" smooth="yes"/>
      <point x="877" y="512"/>
      <point x="809" y="546"/>
      <point x="720" y="546" type="curve" smooth="yes"/>
      <point x="700" y="546" type="line" smooth="yes"/>
      <point x="611" y="546"/>
      <point x="543" y="512"/>
    </contour>
  </outline>
</glyph>
<glyph name="da" format="2">
  <advance width="591"/>
  <unicode hex="1012"/>
  <note>
da
</note>
  <outline>
    <contour>
      <point x="533" y="394" type="curve" smooth="yes"/>
      <point x="533" y="484"/>
      <point x="465" y="546"/>
      <point x="314" y="546" type="curve" smooth="yes"/>
      <point x="294" y="546" type="line" smooth="yes"/>
      <point x="118" y="546"/>
      <point x="45" y="469"/>
      <point x="68" y="333" type="curve"/>
      <point x="134" y="333" type="line"/>
      <point x="132" y="404"/>
      <point x="182" y="438"/>
      <point x="294" y="438" type="curve" smooth="yes"/>
      <point x="404" y="438"/>
      <point x="436" y="413"/>
      <point x="436" y="368" type="curve" smooth="yes"/>
      <point x="436" y="326"/>
      <point x="402" y="301"/>
      <point x="299" y="301" type="curve" smooth="yes"/>
      <point x="195" y="301" type="line"/>
      <point x="195" y="235" type="line"/>
      <point x="299" y="235" type="line" smooth="yes"/>
      <point x="402" y="235"/>
      <point x="436" y="210"/>
      <point x="436" y="168" type="curve" smooth="yes"/>
      <point x="436" y="123"/>
      <point x="404" y="98"/>
      <point x="294" y="98" type="curve" smooth="yes"/>
      <point x="182" y="98"/>
      <point x="132" y="132"/>
      <point x="134" y="203" type="curve"/>
      <point x="68" y="203" type="line"/>
      <point x="45" y="67"/>
      <point x="118" y="-10"/>
      <point x="294" y="-10" type="curve" smooth="yes"/>
      <point x="314" y="-10" type="line" smooth="yes"/>
      <point x="465" y="-10"/>
      <point x="533" y="52"/>
      <point x="533" y="142" type="curve" smooth="yes"/>
      <point x="533" y="245"/>
      <point x="442" y="281"/>
      <point x="381" y="281" type="curve"/>
      <point x="381" y="255" type="line"/>
      <point x="442" y="255"/>
      <point x="533" y="291"/>
    </contour>
  </outline>
</glyph>
<glyph name="na" format="2">
  <advance width="574"/>
  <unicode hex="1014"/>
  <note>
This glyph won't take marks below. Na with dotbelow is precomposed; any other below marks would use na.alt.
</note>
  <outline>
    <contour>
      <point x="339" y="-532" type="line"/>
      <point x="339" y="123" type="line" smooth="yes"/>
      <point x="339" y="244"/>
      <point x="225" y="269"/>
      <point x="164" y="269" type="curve" smooth="yes"/>
      <point x="74" y="269"/>
      <point x="17" y="225"/>
      <point x="17" y="140" type="curve" smooth="yes"/>
      <point x="17" y="32"/>
      <point x="119" y="-10"/>
      <point x="274" y="-10" type="curve" smooth="yes"/>
      <point x="300" y="-10" type="line" smooth="yes"/>
      <point x="440" y="-10"/>
      <point x="550" y="31"/>
      <point x="550" y="162" type="curve" smooth="yes"/>
      <point x="550" y="284"/>
      <point x="457" y="321"/>
      <point x="346" y="331" type="curve" smooth="yes"/>
      <point x="301" y="335" type="line" smooth="yes"/>
      <point x="212" y="343"/>
      <point x="172" y="350"/>
      <point x="172" y="381" type="curve" smooth="yes"/>
      <point x="172" y="412"/>
      <point x="214" y="418"/>
      <point x="291" y="418" type="curve" smooth="yes"/>
      <point x="377" y="418"/>
      <point x="423" y="407"/>
      <point x="430" y="356" type="curve"/>
      <point x="496" y="356" type="line"/>
      <point x="493" y="491"/>
      <point x="428" y="546"/>
      <point x="294" y="546" type="curve" smooth="yes"/>
      <point x="169" y="546"/>
      <point x="96" y="493"/>
      <point x="96" y="402" type="curve" smooth="yes"/>
      <point x="96" y="336"/>
      <point x="130" y="288"/>
      <point x="270" y="275" type="curve" smooth="yes"/>
      <point x="313" y="271" type="line" smooth="yes"/>
      <point x="421" y="261"/>
      <point x="481" y="239"/>
      <point x="481" y="184" type="curve" smooth="yes"/>
      <point x="481" y="122"/>
      <point x="409" y="118"/>
      <point x="296" y="118" type="curve" smooth="yes"/>
      <point x="208" y="118" type="line" smooth="yes"/>
      <point x="121" y="118"/>
      <point x="80" y="131"/>
      <point x="80" y="163" type="curve" smooth="yes"/>
      <point x="80" y="193"/>
      <point x="116" y="206"/>
      <point x="160" y="206" type="curve" smooth="yes"/>
      <point x="226" y="206"/>
      <point x="263" y="175"/>
      <point x="263" y="132" type="curve" smooth="yes"/>
      <point x="263" y="-532" type="line"/>
    </contour>
  </outline>
</glyph>
<glyph name="pa" format="2">
  <advance width="630"/>
  <unicode hex="1015"/>
  <outline>
    <contour>
      <point x="358" y="546" type="curve"/>
      <point x="358" y="418" type="line"/>
      <point x="445" y="410"/>
      <point x="509" y="376"/>
      <point x="509" y="273" type="curve" smooth="yes"/>
      <point x="509" y="263" type="line" smooth="yes"/>
      <point x="509" y="156"/>
      <point x="429" y="118"/>
      <point x="315" y="118" type="curve" smooth="yes"/>
      <point x="201" y="118"/>
      <point x="121" y="156"/>
      <point x="121" y="263" type="curve" smooth="yes"/>
      <point x="121" y="273" type="line" smooth="yes"/>
      <point x="121" y="376"/>
      <point x="185" y="410"/>
      <point x="272" y="418" type="curve"/>
      <point x="272" y="546" type="line"/>
      <point x="199" y="542"/>
      <point x="148" y="514"/>
      <point x="111" y="466" type="curve" smooth="yes"/>
      <point x="69" y="412"/>
      <point x="55" y="346"/>
      <point x="55" y="267" type="curve" smooth="yes"/>
      <point x="55" y="189"/>
      <point x="69" y="123"/>
      <point x="111" y="72" type="curve" smooth="yes"/>
      <point x="150" y="24"/>
      <point x="213" y="-10"/>
      <point x="305" y="-10" type="curve" smooth="yes"/>
      <point x="325" y="-10" type="line" smooth="yes"/>
      <point x="417" y="-10"/>
      <point x="480" y="24"/>
      <point x="519" y="72" type="curve" smooth="yes"/>
      <point x="561" y="123"/>
      <point x="575" y="189"/>
      <point x="575" y="267" type="curve" smooth="yes"/>
      <point x="575" y="346"/>
      <point x="561" y="412"/>
      <point x="519" y="466" type="curve" smooth="yes"/>
      <point x="482" y="514"/>
      <point x="431" y="542"/>
    </contour>
  </outline>
</glyph>
<glyph name="pha" format="2">
  <advance width="630"/>
  <unicode hex="1016"/>
  <note>
pha
</note>
  <outline>
    <contour>
      <point x="575" y="267" type="curve" smooth="yes"/>
      <point x="575" y="395"/>
      <point x="528" y="546"/>
      <point x="425" y="546" type="curve" smooth="yes"/>
      <point x="359" y="546"/>
      <point x="325" y="483"/>
      <point x="325" y="376" type="curve" smooth="yes"/>
      <point x="325" y="208"/>
      <point x="410" y="123"/>
      <point x="502" y="114" type="curve"/>
      <point x="502" y="176" type="line"/>
      <point x="444" y="191"/>
      <point x="388" y="262"/>
      <point x="388" y="346" type="curve" smooth="yes"/>
      <point x="388" y="379"/>
      <point x="395" y="418"/>
      <point x="432" y="418" type="curve" smooth="yes"/>
      <point x="478" y="418"/>
      <point x="509" y="342"/>
      <point x="509" y="280" type="curve" smooth="yes"/>
      <point x="509" y="270" type="line" smooth="yes"/>
      <point x="509" y="156"/>
      <point x="429" y="118"/>
      <point x="315" y="118" type="curve" smooth="yes"/>
      <point x="201" y="118"/>
      <point x="121" y="156"/>
      <point x="121" y="263" type="curve" smooth="yes"/>
      <point x="121" y="273" type="line" smooth="yes"/>
      <point x="121" y="376"/>
      <point x="185" y="410"/>
      <point x="272" y="418" type="curve"/>
      <point x="272" y="546" type="line"/>
      <point x="199" y="542"/>
      <point x="148" y="514"/>
      <point x="111" y="466" type="curve" smooth="yes"/>
      <point x="69" y="412"/>
      <point x="55" y="346"/>
      <point x="55" y="267" type="curve" smooth="yes"/>
      <point x="55" y="189"/>
      <point x="69" y="123"/>
      <point x="111" y="72" type="curve" smooth="yes"/>
      <point x="150" y="24"/>
      <point x="213" y="-10"/>
      <point x="305" y="-10" type="curve" smooth="yes"/>
      <point x="325" y="-10" type="line" smooth="yes"/>
      <point x="417" y="-10"/>
      <point x="480" y="24"/>
      <point x="519" y="72" type="curve" smooth="yes"/>
      <point x="561" y="123"/>
      <point x="575" y="189"/>
    </contour>
  </outline>
</glyph>
<glyph name="ba" format="2">
  <advance width="630"/>
  <unicode hex="1017"/>
  <note>
ba
</note>
  <outline>
    <contour>
      <point x="372" y="546" type="curve"/>
      <point x="376" y="518"/>
      <point x="381" y="488"/>
      <point x="381" y="455" type="curve" smooth="yes"/>
      <point x="381" y="398"/>
      <point x="358" y="376"/>
      <point x="315" y="376" type="curve" smooth="yes"/>
      <point x="270" y="376"/>
      <point x="249" y="400"/>
      <point x="249" y="455" type="curve" smooth="yes"/>
      <point x="249" y="488"/>
      <point x="254" y="518"/>
      <point x="258" y="546" type="curve"/>
      <point x="197" y="542"/>
      <point x="147" y="514"/>
      <point x="111" y="466" type="curve" smooth="yes"/>
      <point x="70" y="411"/>
      <point x="55" y="346"/>
      <point x="55" y="267" type="curve" smooth="yes"/>
      <point x="55" y="189"/>
      <point x="69" y="123"/>
      <point x="111" y="72" type="curve" smooth="yes"/>
      <point x="150" y="24"/>
      <point x="213" y="-10"/>
      <point x="305" y="-10" type="curve" smooth="yes"/>
      <point x="325" y="-10" type="line" smooth="yes"/>
      <point x="417" y="-10"/>
      <point x="480" y="24"/>
      <point x="519" y="72" type="curve" smooth="yes"/>
      <point x="561" y="123"/>
      <point x="575" y="189"/>
      <point x="575" y="267" type="curve" smooth="yes"/>
      <point x="575" y="346"/>
      <point x="561" y="412"/>
      <point x="519" y="466" type="curve" smooth="yes"/>
      <point x="482" y="513"/>
      <point x="433" y="542"/>
    </contour>
    <contour>
      <point x="315" y="255" type="curve" smooth="yes"/>
      <point x="397" y="255"/>
      <point x="432" y="314"/>
      <point x="432" y="381" type="curve" smooth="yes"/>
      <point x="432" y="410"/>
      <point x="431" y="434"/>
      <point x="422" y="468" type="curve"/>
      <point x="388" y="443" type="line"/>
      <point x="445" y="438"/>
      <point x="509" y="385"/>
      <point x="509" y="289" type="curve" smooth="yes"/>
      <point x="509" y="279" type="line" smooth="yes"/>
      <point x="509" y="160"/>
      <point x="429" y="118"/>
      <point x="315" y="118" type="curve" smooth="yes"/>
      <point x="201" y="118"/>
      <point x="121" y="160"/>
      <point x="121" y="279" type="curve" smooth="yes"/>
      <point x="121" y="289" type="line" smooth="yes"/>
      <point x="121" y="385"/>
      <point x="185" y="438"/>
      <point x="242" y="443" type="curve"/>
      <point x="208" y="468" type="line"/>
      <point x="200" y="434"/>
      <point x="198" y="410"/>
      <point x="198" y="381" type="curve" smooth="yes"/>
      <point x="198" y="314"/>
      <point x="233" y="255"/>
    </contour>
  </outline>
</glyph>
<glyph name="ma" format="2">
  <advance width="630"/>
  <unicode hex="1019"/>
  <outline>
    <contour>
      <point x="462" y="104" type="line"/>
      <point x="462" y="163" type="line" smooth="yes"/>
      <point x="462" y="237"/>
      <point x="412" y="273"/>
      <point x="312" y="273" type="curve" smooth="yes"/>
      <point x="213" y="273"/>
      <point x="163" y="237"/>
      <point x="163" y="163" type="curve" smooth="yes"/>
      <point x="163" y="104" type="line"/>
      <point x="214" y="104" type="line"/>
      <point x="214" y="147" type="line" smooth="yes"/>
      <point x="214" y="199"/>
      <point x="250" y="205"/>
      <point x="300" y="205" type="curve" smooth="yes"/>
      <point x="325" y="205" type="line" smooth="yes"/>
      <point x="375" y="205"/>
      <point x="411" y="199"/>
      <point x="411" y="147" type="curve" smooth="yes"/>
      <point x="411" y="104" type="line"/>
    </contour>
    <component base="pa"/>
  </outline>
</glyph>
<glyph name="ya" format="2">
  <advance width="1025"/>
  <unicode hex="101A"/>
  <note>
ya
</note>
  <outline>
    <contour>
      <point x="358" y="546" type="curve"/>
      <point x="358" y="418" type="line"/>
      <point x="445" y="410"/>
      <point x="509" y="376"/>
      <point x="509" y="273" type="curve" smooth="yes"/>
      <point x="509" y="263" type="line" smooth="yes"/>
      <point x="509" y="156"/>
      <point x="429" y="118"/>
      <point x="315" y="118" type="curve" smooth="yes"/>
      <point x="201" y="118"/>
      <point x="121" y="156"/>
      <point x="121" y="263" type="curve" smooth="yes"/>
      <point x="121" y="273" type="line" smooth="yes"/>
      <point x="121" y="376"/>
      <point x="185" y="410"/>
      <point x="272" y="418" type="curve"/>
      <point x="272" y="546" type="line"/>
      <point x="199" y="542"/>
      <point x="148" y="514"/>
      <point x="111" y="466" type="curve" smooth="yes"/>
      <point x="69" y="412"/>
      <point x="55" y="346"/>
      <point x="55" y="267" type="curve" smooth="yes"/>
      <point x="55" y="189"/>
      <point x="69" y="123"/>
      <point x="111" y="72" type="curve" smooth="yes"/>
      <point x="150" y="24"/>
      <point x="213" y="-10"/>
      <point x="305" y="-10" type="curve" smooth="yes"/>
      <point x="325" y="-10" type="line" smooth="yes"/>
      <point x="417" y="-10"/>
      <point x="480" y="24"/>
      <point x="519" y="72" type="curve" smooth="yes"/>
      <point x="561" y="123"/>
      <point x="575" y="189"/>
      <point x="575" y="267" type="curve" smooth="yes"/>
      <point x="575" y="346"/>
      <point x="561" y="412"/>
      <point x="519" y="466" type="curve" smooth="yes"/>
      <point x="482" y="514"/>
      <point x="431" y="542"/>
    </contour>
    <contour>
      <point x="506" y="72" type="line"/>
      <point x="543" y="24"/>
      <point x="611" y="-10"/>
      <point x="700" y="-10" type="curve" smooth="yes"/>
      <point x="720" y="-10" type="line" smooth="yes"/>
      <point x="809" y="-10"/>
      <point x="877" y="24"/>
      <point x="918" y="77" type="curve" smooth="yes"/>
      <point x="955" y="124"/>
      <point x="970" y="185"/>
      <point x="970" y="268" type="curve" smooth="yes"/>
      <point x="970" y="351"/>
      <point x="955" y="412"/>
      <point x="918" y="459" type="curve" smooth="yes"/>
      <point x="877" y="512"/>
      <point x="809" y="546"/>
      <point x="714" y="546" type="curve" smooth="yes"/>
      <point x="693" y="546"/>
      <point x="673" y="545"/>
      <point x="657" y="543" type="curve"/>
      <point x="657" y="418" type="line"/>
      <point x="710" y="418" type="line" smooth="yes"/>
      <point x="824" y="418"/>
      <point x="904" y="380"/>
      <point x="904" y="273" type="curve" smooth="yes"/>
      <point x="904" y="263" type="line" smooth="yes"/>
      <point x="904" y="156"/>
      <point x="824" y="118"/>
      <point x="710" y="118" type="curve" smooth="yes"/>
      <point x="643" y="118"/>
      <point x="588" y="131"/>
      <point x="554" y="164" type="curve"/>
    </contour>
  </outline>
</glyph>
<glyph name="ra" format="2">
  <advance width="635"/>
  <unicode hex="101B"/>
  <outline>
    <contour>
      <point x="575" y="268" type="line" smooth="yes"/>
      <point x="575" y="351"/>
      <point x="560" y="412"/>
      <point x="523" y="459" type="curve" smooth="yes"/>
      <point x="482" y="512"/>
      <point x="414" y="546"/>
      <point x="325" y="546" type="curve" smooth="yes"/>
      <point x="305" y="546" type="line" smooth="yes"/>
      <point x="216" y="546"/>
      <point x="148" y="512"/>
      <point x="107" y="460" type="curve" smooth="yes"/>
      <point x="70" y="412"/>
      <point x="55" y="349"/>
      <point x="55" y="270" type="curve" smooth="yes"/>
      <point x="55" y="186"/>
      <point x="72" y="125"/>
      <point x="107" y="76" type="curve" smooth="yes"/>
      <point x="146" y="22"/>
      <point x="204" y="-10"/>
      <point x="281" y="-10" type="curve" smooth="yes"/>
      <point x="362" y="-10"/>
      <point x="427" y="24"/>
      <point x="427" y="138" type="curve" smooth="yes"/>
      <point x="427" y="231"/>
      <point x="379" y="273"/>
      <point x="260" y="273" type="curve" smooth="yes"/>
      <point x="159" y="273"/>
      <point x="114" y="253"/>
      <point x="109" y="165" type="curve"/>
      <point x="107" y="147" type="line"/>
      <point x="150" y="132" type="line"/>
      <point x="150" y="150" type="line" smooth="yes"/>
      <point x="150" y="196"/>
      <point x="182" y="205"/>
      <point x="240" y="205" type="curve" smooth="yes"/>
      <point x="274" y="205" type="line" smooth="yes"/>
      <point x="332" y="205"/>
      <point x="369" y="193"/>
      <point x="369" y="163" type="curve" smooth="yes"/>
      <point x="369" y="131"/>
      <point x="339" y="118"/>
      <point x="289" y="118" type="curve" smooth="yes"/>
      <point x="254" y="118" type="line" smooth="yes"/>
      <point x="145" y="118"/>
      <point x="121" y="159"/>
      <point x="121" y="249" type="curve" smooth="yes"/>
      <point x="121" y="273" type="line" smooth="yes"/>
      <point x="121" y="380"/>
      <point x="200" y="418"/>
      <point x="314" y="418" type="curve" smooth="yes"/>
      <point x="423" y="418"/>
      <point x="501" y="380"/>
      <point x="501" y="273" type="curve" smooth="yes"/>
      <point x="501" y="-330" type="line" smooth="yes"/>
      <point x="501" y="-483"/>
      <point x="564" y="-541"/>
      <point x="669" y="-541" type="curve" smooth="yes"/>
      <point x="678" y="-541"/>
      <point x="687" y="-541"/>
      <point x="696" y="-540" type="curve"/>
      <point x="696" y="-412" type="line"/>
      <point x="681" y="-412" type="line" smooth="yes"/>
      <point x="599" y="-412"/>
      <point x="575" y="-380"/>
      <point x="575" y="-298" type="curve" smooth="yes"/>
    </contour>
  </outline>
</glyph>
<glyph name="wa" format="2">
  <advance width="630"/>
  <unicode hex="101D"/>
  <outline>
    <contour>
      <point x="305" y="546" type="line" smooth="yes"/>
      <point x="216" y="546"/>
      <point x="148" y="512"/>
      <point x="107" y="459" type="curve" smooth="yes"/>
      <point x="70" y="412"/>
      <point x="55" y="351"/>
      <point x="55" y="268" type="curve" smooth="yes"/>
      <point x="55" y="185"/>
      <point x="70" y="124"/>
      <point x="107" y="77" type="curve" smooth="yes"/>
      <point x="148" y="24"/>
      <point x="216" y="-10"/>
      <point x="305" y="-10" type="curve" smooth="yes"/>
      <point x="325" y="-10" type="line" smooth="yes"/>
      <point x="414" y="-10"/>
      <point x="482" y="24"/>
      <point x="523" y="77" type="curve" smooth="yes"/>
      <point x="560" y="124"/>
      <point x="575" y="185"/>
      <point x="575" y="268" type="curve" smooth="yes"/>
      <point x="575" y="351"/>
      <point x="560" y="412"/>
      <point x="523" y="459" type="curve" smooth="yes"/>
      <point x="482" y="512"/>
      <point x="414" y="546"/>
      <point x="325" y="546" type="curve" smooth="yes"/>
    </contour>
    <contour>
      <point x="315" y="118" type="curve" smooth="yes"/>
      <point x="201" y="118"/>
      <point x="121" y="156"/>
      <point x="121" y="263" type="curve" smooth="yes"/>
      <point x="121" y="273" type="line" smooth="yes"/>
      <point x="121" y="380"/>
      <point x="201" y="418"/>
      <point x="315" y="418" type="curve" smooth="yes"/>
      <point x="429" y="418"/>
      <point x="509" y="380"/>
      <point x="509" y="273" type="curve" smooth="yes"/>
      <point x="509" y="263" type="line" smooth="yes"/>
      <point x="509" y="156"/>
      <point x="429" y="118"/>
    </contour>
  </outline>
</glyph>
<glyph name="sa" format="2">
  <advance width="1025"/>
  <unicode hex="101E"/>
  <note>
sa
</note>
  <outline>
    <contour>
      <point x="124" y="323" type="line"/>
      <point x="132" y="381"/>
      <point x="201" y="418"/>
      <point x="315" y="418" type="curve" smooth="yes"/>
      <point x="429" y="418"/>
      <point x="509" y="380"/>
      <point x="509" y="273" type="curve" smooth="yes"/>
      <point x="509" y="263" type="line" smooth="yes"/>
      <point x="509" y="156"/>
      <point x="429" y="118"/>
      <point x="315" y="118" type="curve" smooth="yes"/>
      <point x="201" y="118"/>
      <point x="132" y="155"/>
      <point x="124" y="213" type="curve"/>
      <point x="58" y="213" type="line"/>
      <point x="58" y="130"/>
      <point x="117" y="-10"/>
      <point x="305" y="-10" type="curve" smooth="yes"/>
      <point x="325" y="-10" type="line" smooth="yes"/>
      <point x="414" y="-10"/>
      <point x="482" y="24"/>
      <point x="523" y="77" type="curve" smooth="yes"/>
      <point x="560" y="124"/>
      <point x="575" y="185"/>
      <point x="575" y="268" type="curve" smooth="yes"/>
      <point x="575" y="351"/>
      <point x="560" y="412"/>
      <point x="523" y="459" type="curve" smooth="yes"/>
      <point x="482" y="512"/>
      <point x="414" y="546"/>
      <point x="325" y="546" type="curve"/>
      <point x="302" y="546" type="line" smooth="yes"/>
      <point x="160" y="546"/>
      <point x="63" y="457"/>
      <point x="58" y="323" type="curve"/>
    </contour>
    <contour>
      <point x="506" y="72" type="line"/>
      <point x="543" y="24"/>
      <point x="611" y="-10"/>
      <point x="700" y="-10" type="curve" smooth="yes"/>
      <point x="720" y="-10" type="line" smooth="yes"/>
      <point x="809" y="-10"/>
      <point x="877" y="24"/>
      <point x="918" y="77" type="curve" smooth="yes"/>
      <point x="955" y="124"/>
      <point x="970" y="185"/>
      <point x="970" y="268" type="curve" smooth="yes"/>
      <point x="970" y="351"/>
      <point x="955" y="412"/>
      <point x="918" y="459" type="curve" smooth="yes"/>
      <point x="877" y="512"/>
      <point x="809" y="546"/>
      <point x="714" y="546" type="curve" smooth="yes"/>
      <point x="693" y="546"/>
      <point x="673" y="545"/>
      <point x="657" y="543" type="curve"/>
      <point x="657" y="418" type="line"/>
      <point x="710" y="418" type="line" smooth="yes"/>
      <point x="824" y="418"/>
      <point x="904" y="380"/>
      <point x="904" y="273" type="curve" smooth="yes"/>
      <point x="904" y="263" type="line" smooth="yes"/>
      <point x="904" y="156"/>
      <point x="824" y="118"/>
      <point x="710" y="118" type="curve" smooth="yes"/>
      <point x="643" y="118"/>
      <point x="588" y="131"/>
      <point x="554" y="164" type="curve"/>
    </contour>
  </outline>
</glyph>
<glyph name="a_m" format="2">
  <advance width="1030"/>
  <unicode hex="1021"/>
  <note>
a_m
</note>
  <outline>
    <contour>
      <point x="725" y="546" type="curve" smooth="yes"/>
      <point x="705" y="546" type="line" smooth="yes"/>
      <point x="616" y="546"/>
      <point x="548" y="512"/>
      <point x="511" y="464" type="curve" smooth="yes"/>
      <point x="492" y="439"/>
      <point x="476" y="413"/>
      <point x="466" y="382" type="curve"/>
      <point x="526" y="329" type="line"/>
      <point x="559" y="404"/>
      <point x="629" y="418"/>
      <point x="715" y="418" type="curve" smooth="yes"/>
      <point x="829" y="418"/>
      <point x="909" y="380"/>
      <point x="909" y="273" type="curve" smooth="yes"/>
      <point x="909" y="249" type="line" smooth="yes"/>
      <point x="909" y="159"/>
      <point x="885" y="119"/>
      <point x="776" y="119" type="curve" smooth="yes"/>
      <point x="741" y="119" type="line" smooth="yes"/>
      <point x="691" y="119"/>
      <point x="661" y="132"/>
      <point x="661" y="162" type="curve" smooth="yes"/>
      <point x="661" y="197"/>
      <point x="698" y="212"/>
      <point x="756" y="212" type="curve" smooth="yes"/>
      <point x="792" y="212" type="line" smooth="yes"/>
      <point x="848" y="212"/>
      <point x="875" y="200"/>
      <point x="880" y="159" type="curve" smooth="yes"/>
      <point x="882" y="137" type="line"/>
      <point x="923" y="152" type="line"/>
      <point x="921" y="170" type="line"/>
      <point x="916" y="253"/>
      <point x="874" y="278"/>
      <point x="773" y="278" type="curve" smooth="yes"/>
      <point x="654" y="278"/>
      <point x="603" y="240"/>
      <point x="603" y="141" type="curve" smooth="yes"/>
      <point x="603" y="29"/>
      <point x="667" y="-10"/>
      <point x="748" y="-10" type="curve" smooth="yes"/>
      <point x="826" y="-10"/>
      <point x="883" y="23"/>
      <point x="923" y="76" type="curve" smooth="yes"/>
      <point x="958" y="125"/>
      <point x="975" y="186"/>
      <point x="975" y="270" type="curve" smooth="yes"/>
      <point x="975" y="349"/>
      <point x="960" y="412"/>
      <point x="923" y="460" type="curve" smooth="yes"/>
      <point x="882" y="512"/>
      <point x="814" y="546"/>
    </contour>
    <component base="da"/>
  </outline>
</glyph>
<glyph name="a_shn" format="2">
  <advance width="1026"/>
  <unicode hex="1022"/>
  <note>
a_shn
</note>
  <outline>
    <contour>
      <point x="296" y="546" type="line" smooth="yes"/>
      <point x="146" y="546"/>
      <point x="56" y="472"/>
      <point x="56" y="364" type="curve" smooth="yes"/>
      <point x="56" y="239"/>
      <point x="176" y="210"/>
      <point x="176" y="143" type="curve" smooth="yes"/>
      <point x="176" y="115"/>
      <point x="157" y="99"/>
      <point x="132" y="99" type="curve" smooth="yes"/>
      <point x="105" y="99"/>
      <point x="92" y="116"/>
      <point x="83" y="134" type="curve"/>
      <point x="42" y="134" type="line"/>
      <point x="32" y="37"/>
      <point x="92" y="-10"/>
      <point x="160" y="-10" type="curve" smooth="yes"/>
      <point x="227" y="-10"/>
      <point x="276" y="34"/>
      <point x="276" y="101" type="curve" smooth="yes"/>
      <point x="276" y="210"/>
      <point x="148" y="229"/>
      <point x="148" y="321" type="curve" smooth="yes"/>
      <point x="148" y="388"/>
      <point x="216" y="418"/>
      <point x="316" y="418" type="curve" smooth="yes"/>
      <point x="430" y="418"/>
      <point x="510" y="380"/>
      <point x="510" y="273" type="curve" smooth="yes"/>
      <point x="510" y="263" type="line" smooth="yes"/>
      <point x="510" y="160"/>
      <point x="446" y="126"/>
      <point x="359" y="118" type="curve"/>
      <point x="359" y="-10" type="line"/>
      <point x="432" y="-6"/>
      <point x="483" y="22"/>
      <point x="520" y="70" type="curve" smooth="yes"/>
      <point x="562" y="124"/>
      <point x="576" y="190"/>
      <point x="576" y="269" type="curve" smooth="yes"/>
      <point x="576" y="347"/>
      <point x="562" y="413"/>
      <point x="520" y="464" type="curve" smooth="yes"/>
      <point x="479" y="512"/>
      <point x="413" y="546"/>
      <point x="317" y="546" type="curve" smooth="yes"/>
    </contour>
    <contour>
      <point x="507" y="464" type="curve"/>
      <point x="555" y="372" type="line"/>
      <point x="589" y="405"/>
      <point x="644" y="418"/>
      <point x="711" y="418" type="curve" smooth="yes"/>
      <point x="825" y="418"/>
      <point x="905" y="380"/>
      <point x="905" y="273" type="curve" smooth="yes"/>
      <point x="905" y="263" type="line" smooth="yes"/>
      <point x="905" y="156"/>
      <point x="825" y="118"/>
      <point x="711" y="118" type="curve" smooth="yes"/>
      <point x="658" y="118" type="line"/>
      <point x="658" y="-7" type="line"/>
      <point x="674" y="-9"/>
      <point x="694" y="-10"/>
      <point x="715" y="-10" type="curve" smooth="yes"/>
      <point x="810" y="-10"/>
      <point x="878" y="24"/>
      <point x="919" y="77" type="curve" smooth="yes"/>
      <point x="956" y="124"/>
      <point x="971" y="185"/>
      <point x="971" y="268" type="curve" smooth="yes"/>
      <point x="971" y="351"/>
      <point x="956" y="412"/>
      <point x="919" y="459" type="curve" smooth="yes"/>
      <point x="878" y="512"/>
      <point x="810" y="546"/>
      <point x="721" y="546" type="curve" smooth="yes"/>
      <point x="701" y="546" type="line" smooth="yes"/>
      <point x="612" y="546"/>
      <point x="544" y="512"/>
    </contour>
  </outline>
</glyph>
<glyph name="i_m" format="2">
  <advance width="1025"/>
  <unicode hex="1023"/>
  <note>
Unlikely to ever have marks below.
</note>
  <outline>
    <contour>
      <point x="656" y="118" type="line"/>
      <point x="656" y="-7" type="line"/>
      <point x="672" y="-9"/>
      <point x="692" y="-10"/>
      <point x="713" y="-10" type="curve" smooth="yes"/>
      <point x="808" y="-10"/>
      <point x="876" y="24"/>
      <point x="917" y="77" type="curve" smooth="yes"/>
      <point x="954" y="124"/>
      <point x="969" y="185"/>
      <point x="969" y="269" type="curve" smooth="yes"/>
      <point x="969" y="349"/>
      <point x="953" y="412"/>
      <point x="918" y="460" type="curve" smooth="yes"/>
      <point x="878" y="514"/>
      <point x="812" y="546"/>
      <point x="727" y="546" type="curve" smooth="yes"/>
      <point x="707" y="546" type="line" smooth="yes"/>
      <point x="589" y="546"/>
      <point x="517" y="485"/>
      <point x="495" y="382" type="curve"/>
      <point x="529" y="382" type="line"/>
      <point x="507" y="484"/>
      <point x="434" y="546"/>
      <point x="317" y="546" type="curve" smooth="yes"/>
      <point x="297" y="546" type="line" smooth="yes"/>
      <point x="211" y="546"/>
      <point x="146" y="514"/>
      <point x="106" y="460" type="curve" smooth="yes"/>
      <point x="71" y="412"/>
      <point x="55" y="349"/>
      <point x="55" y="269" type="curve" smooth="yes"/>
      <point x="55" y="185"/>
      <point x="70" y="124"/>
      <point x="107" y="77" type="curve" smooth="yes"/>
      <point x="148" y="24"/>
      <point x="216" y="-10"/>
      <point x="311" y="-10" type="curve" smooth="yes"/>
      <point x="332" y="-10"/>
      <point x="352" y="-9"/>
      <point x="368" y="-7" type="curve"/>
      <point x="368" y="118" type="line"/>
      <point x="315" y="118" type="line" smooth="yes"/>
      <point x="201" y="118"/>
      <point x="121" y="156"/>
      <point x="121" y="263" type="curve" smooth="yes"/>
      <point x="121" y="269" type="line" smooth="yes"/>
      <point x="121" y="379"/>
      <point x="196" y="418"/>
      <point x="303" y="418" type="curve" smooth="yes"/>
      <point x="400" y="418"/>
      <point x="468" y="387"/>
      <point x="477" y="280" type="curve" smooth="yes"/>
      <point x="484" y="200" type="line"/>
      <point x="540" y="200" type="line"/>
      <point x="547" y="280" type="line" smooth="yes"/>
      <point x="556" y="387"/>
      <point x="623" y="418"/>
      <point x="721" y="418" type="curve" smooth="yes"/>
      <point x="827" y="418"/>
      <point x="903" y="379"/>
      <point x="903" y="269" type="curve" smooth="yes"/>
      <point x="903" y="263" type="line" smooth="yes"/>
      <point x="903" y="156"/>
      <point x="823" y="118"/>
      <point x="709" y="118" type="curve" smooth="yes"/>
    </contour>
    <contour>
      <point x="1033" y="-403" type="line"/>
      <point x="926" y="-403" type="line"/>
      <point x="926" y="-426" type="line" smooth="yes"/>
      <point x="926" y="-479"/>
      <point x="883" y="-495"/>
      <point x="806" y="-495" type="curve" smooth="yes"/>
      <point x="765" y="-495"/>
      <point x="729" y="-490"/>
      <point x="729" y="-470" type="curve" smooth="yes"/>
      <point x="729" y="-456" type="line"/>
      <point x="838" y="-423"/>
      <point x="913" y="-374"/>
      <point x="913" y="-256" type="curve" smooth="yes"/>
      <point x="913" y="-148"/>
      <point x="843" y="-63"/>
      <point x="709" y="-63" type="curve" smooth="yes"/>
      <point x="692" y="-63" type="line" smooth="yes"/>
      <point x="583" y="-63"/>
      <point x="517" y="-116"/>
      <point x="497" y="-204" type="curve"/>
      <point x="527" y="-204" type="line"/>
      <point x="508" y="-116"/>
      <point x="445" y="-63"/>
      <point x="344" y="-63" type="curve" smooth="yes"/>
      <point x="327" y="-63" type="line" smooth="yes"/>
      <point x="253" y="-63"/>
      <point x="197" y="-91"/>
      <point x="162" y="-137" type="curve" smooth="yes"/>
      <point x="131" y="-178"/>
      <point x="118" y="-233"/>
      <point x="118" y="-302" type="curve" smooth="yes"/>
      <point x="118" y="-374"/>
      <point x="131" y="-427"/>
      <point x="163" y="-467" type="curve" smooth="yes"/>
      <point x="199" y="-512"/>
      <point x="257" y="-542"/>
      <point x="339" y="-542" type="curve" smooth="yes"/>
      <point x="357" y="-542"/>
      <point x="374" y="-541"/>
      <point x="388" y="-539" type="curve"/>
      <point x="388" y="-426" type="line"/>
      <point x="342" y="-426" type="line" smooth="yes"/>
      <point x="246" y="-426"/>
      <point x="179" y="-395"/>
      <point x="179" y="-307" type="curve" smooth="yes"/>
      <point x="179" y="-302" type="line" smooth="yes"/>
      <point x="179" y="-211"/>
      <point x="242" y="-178"/>
      <point x="332" y="-178" type="curve" smooth="yes"/>
      <point x="416" y="-178"/>
      <point x="474" y="-204"/>
      <point x="482" y="-292" type="curve" smooth="yes"/>
      <point x="488" y="-361" type="line"/>
      <point x="536" y="-361" type="line"/>
      <point x="542" y="-292" type="line" smooth="yes"/>
      <point x="550" y="-204"/>
      <point x="612" y="-178"/>
      <point x="693" y="-178" type="curve" smooth="yes"/>
      <point x="770" y="-178"/>
      <point x="823" y="-216"/>
      <point x="823" y="-282" type="curve" smooth="yes"/>
      <point x="823" y="-287" type="line" smooth="yes"/>
      <point x="823" y="-366"/>
      <point x="754" y="-405"/>
      <point x="626" y="-438" type="curve"/>
      <point x="626" y="-477" type="line" smooth="yes"/>
      <point x="626" y="-534"/>
      <point x="705" y="-552"/>
      <point x="809" y="-552" type="curve" smooth="yes"/>
      <point x="935" y="-552"/>
      <point x="1033" y="-524"/>
      <point x="1033" y="-438" type="curve" smooth="yes"/>
    </contour>
  </outline>
</glyph>
<glyph name="ii" format="2">
  <advance width="1211"/>
  <unicode hex="1024"/>
  <outline>
    <contour>
      <point x="955" y="268" type="line" smooth="yes"/>
      <point x="955" y="349"/>
      <point x="938" y="414"/>
      <point x="905" y="461" type="curve" smooth="yes"/>
      <point x="865" y="516"/>
      <point x="803" y="546"/>
      <point x="720" y="546" type="curve" smooth="yes"/>
      <point x="700" y="546" type="line" smooth="yes"/>
      <point x="611" y="546"/>
      <point x="543" y="512"/>
      <point x="506" y="464" type="curve"/>
      <point x="554" y="372" type="line"/>
      <point x="588" y="405"/>
      <point x="643" y="418"/>
      <point x="710" y="418" type="curve" smooth="yes"/>
      <point x="811" y="418"/>
      <point x="879" y="380"/>
      <point x="879" y="273" type="curve" smooth="yes"/>
      <point x="879" y="-290" type="line" smooth="yes"/>
      <point x="879" y="-346"/>
      <point x="860" y="-380"/>
      <point x="815" y="-394" type="curve" smooth="yes"/>
      <point x="764" y="-411"/>
      <point x="667" y="-414"/>
      <point x="506" y="-414" type="curve" smooth="yes"/>
      <point x="343" y="-414"/>
      <point x="245" y="-411"/>
      <point x="195" y="-395" type="curve" smooth="yes"/>
      <point x="156" y="-384"/>
      <point x="131" y="-370"/>
      <point x="131" y="-338" type="curve" smooth="yes"/>
      <point x="131" y="-296"/>
      <point x="178" y="-264"/>
      <point x="305" y="-264" type="curve" smooth="yes"/>
      <point x="428" y="-264"/>
      <point x="478" y="-295"/>
      <point x="485" y="-343" type="curve"/>
      <point x="629" y="-343" type="line"/>
      <point x="625" y="-249"/>
      <point x="508" y="-185"/>
      <point x="336" y="-185" type="curve" smooth="yes"/>
      <point x="128" y="-185"/>
      <point x="55" y="-269"/>
      <point x="55" y="-366" type="curve" smooth="yes"/>
      <point x="55" y="-426"/>
      <point x="78" y="-469"/>
      <point x="125" y="-499" type="curve" smooth="yes"/>
      <point x="187" y="-538"/>
      <point x="302" y="-542"/>
      <point x="505" y="-542" type="curve" smooth="yes"/>
      <point x="708" y="-542"/>
      <point x="824" y="-539"/>
      <point x="882" y="-502" type="curve" smooth="yes"/>
      <point x="923" y="-477"/>
      <point x="955" y="-432"/>
      <point x="955" y="-326" type="curve" smooth="yes"/>
    </contour>
    <contour>
      <point x="1151" y="10" type="line"/>
      <point x="1075" y="10" type="line"/>
      <point x="1075" y="-532" type="line"/>
      <point x="1151" y="-532" type="line"/>
    </contour>
    <component base="asatstem" xOffset="1015"/>
    <component base="ga"/>
  </outline>
</glyph>
<glyph name="e_m" format="2">
  <advance width="630"/>
  <unicode hex="1027"/>
  <note>
e_m
</note>
  <outline>
    <contour>
      <point x="298" y="444" type="line"/>
      <point x="241" y="444" type="line"/>
      <point x="241" y="407" type="line" smooth="yes"/>
      <point x="241" y="297"/>
      <point x="319" y="280"/>
      <point x="407" y="280" type="curve" smooth="yes"/>
      <point x="527" y="280"/>
      <point x="559" y="327"/>
      <point x="559" y="388" type="curve" smooth="yes"/>
      <point x="559" y="461"/>
      <point x="503" y="546"/>
      <point x="338" y="546" type="curve" smooth="yes"/>
      <point x="149" y="546"/>
      <point x="55" y="458"/>
      <point x="55" y="268" type="curve" smooth="yes"/>
      <point x="55" y="78"/>
      <point x="149" y="-10"/>
      <point x="338" y="-10" type="curve" smooth="yes"/>
      <point x="503" y="-10"/>
      <point x="559" y="75"/>
      <point x="559" y="148" type="curve" smooth="yes"/>
      <point x="559" y="209"/>
      <point x="527" y="256"/>
      <point x="407" y="256" type="curve" smooth="yes"/>
      <point x="319" y="256"/>
      <point x="241" y="239"/>
      <point x="241" y="129" type="curve" smooth="yes"/>
      <point x="241" y="92" type="line"/>
      <point x="298" y="92" type="line"/>
      <point x="298" y="142" type="line" smooth="yes"/>
      <point x="298" y="178"/>
      <point x="330" y="198"/>
      <point x="383" y="198" type="curve" smooth="yes"/>
      <point x="425" y="198" type="line" smooth="yes"/>
      <point x="462" y="198"/>
      <point x="497" y="191"/>
      <point x="497" y="160" type="curve" smooth="yes"/>
      <point x="497" y="132"/>
      <point x="466" y="118"/>
      <point x="399" y="118" type="curve" smooth="yes"/>
      <point x="315" y="118" type="line" smooth="yes"/>
      <point x="201" y="118"/>
      <point x="121" y="156"/>
      <point x="121" y="263" type="curve" smooth="yes"/>
      <point x="121" y="273" type="line" smooth="yes"/>
      <point x="121" y="380"/>
      <point x="201" y="418"/>
      <point x="315" y="418" type="curve" smooth="yes"/>
      <point x="399" y="418" type="line" smooth="yes"/>
      <point x="466" y="418"/>
      <point x="497" y="404"/>
      <point x="497" y="376" type="curve" smooth="yes"/>
      <point x="497" y="345"/>
      <point x="462" y="338"/>
      <point x="425" y="338" type="curve" smooth="yes"/>
      <point x="383" y="338" type="line" smooth="yes"/>
      <point x="330" y="338"/>
      <point x="298" y="358"/>
      <point x="298" y="394" type="curve" smooth="yes"/>
    </contour>
  </outline>
</glyph>
<glyph name="e_mon" format="2">
  <advance width="630"/>
  <unicode hex="1028"/>
  <outline>
    <contour>
      <point x="203" y="251" type="curve"/>
      <point x="248" y="251" type="line"/>
      <point x="248" y="281"/>
      <point x="271" y="304"/>
      <point x="326" y="304" type="curve" smooth="yes"/>
      <point x="381" y="304"/>
      <point x="404" y="289"/>
      <point x="404" y="261" type="curve" smooth="yes"/>
      <point x="404" y="178"/>
      <point x="190" y="246"/>
      <point x="190" y="98" type="curve" smooth="yes"/>
      <point x="190" y="29"/>
      <point x="243" y="-10"/>
      <point x="342" y="-10" type="curve" smooth="yes"/>
      <point x="497" y="-10"/>
      <point x="580" y="99"/>
      <point x="580" y="268" type="curve" smooth="yes"/>
      <point x="580" y="439"/>
      <point x="495" y="546"/>
      <point x="330" y="546" type="curve" smooth="yes"/>
      <point x="310" y="546" type="line" smooth="yes"/>
      <point x="221" y="546"/>
      <point x="153" y="512"/>
      <point x="112" y="459" type="curve" smooth="yes"/>
      <point x="75" y="412"/>
      <point x="60" y="351"/>
      <point x="60" y="268" type="curve" smooth="yes"/>
      <point x="60" y="-264" type="line" smooth="yes"/>
      <point x="60" y="-347"/>
      <point x="75" y="-408"/>
      <point x="112" y="-455" type="curve" smooth="yes"/>
      <point x="153" y="-508"/>
      <point x="221" y="-542"/>
      <point x="310" y="-542" type="curve" smooth="yes"/>
      <point x="330" y="-542" type="line" smooth="yes"/>
      <point x="419" y="-542"/>
      <point x="487" y="-508"/>
      <point x="528" y="-455" type="curve" smooth="yes"/>
      <point x="565" y="-408"/>
      <point x="580" y="-347"/>
      <point x="580" y="-269" type="curve" smooth="yes"/>
      <point x="580" y="-265"/>
      <point x="580" y="-258"/>
      <point x="578" y="-251" type="curve"/>
      <point x="514" y="-251" type="line"/>
      <point x="514" y="-256" type="line" smooth="yes"/>
      <point x="514" y="-376"/>
      <point x="436" y="-414"/>
      <point x="324" y="-414" type="curve" smooth="yes"/>
      <point x="212" y="-414"/>
      <point x="134" y="-376"/>
      <point x="134" y="-240" type="curve" smooth="yes"/>
      <point x="134" y="244" type="line" smooth="yes"/>
      <point x="134" y="380"/>
      <point x="218" y="419"/>
      <point x="330" y="419" type="curve" smooth="yes"/>
      <point x="438" y="419"/>
      <point x="514" y="376"/>
      <point x="514" y="260" type="curve" smooth="yes"/>
      <point x="514" y="251" type="line" smooth="yes"/>
      <point x="514" y="134"/>
      <point x="437" y="93"/>
      <point x="328" y="93" type="curve" smooth="yes"/>
      <point x="272" y="93"/>
      <point x="246" y="104"/>
      <point x="246" y="125" type="curve" smooth="yes"/>
      <point x="246" y="192"/>
      <point x="460" y="131"/>
      <point x="460" y="278" type="curve" smooth="yes"/>
      <point x="460" y="346"/>
      <point x="414" y="383"/>
      <point x="329" y="383" type="curve" smooth="yes"/>
      <point x="244" y="383"/>
      <point x="190" y="333"/>
    </contour>
  </outline>
</glyph>
<glyph name="_tall_aa" format="2">
  <advance width="196"/>
  <unicode hex="102B"/>
  <note>
_tall_aa
</note>
  <outline>
    <contour>
      <point x="136" y="800" type="line" smooth="yes"/>
      <point x="136" y="978"/>
      <point x="61" y="1078"/>
      <point x="-92" y="1078" type="curve" smooth="yes"/>
      <point x="-245" y="1078"/>
      <point x="-320" y="976"/>
      <point x="-320" y="837" type="curve" smooth="yes"/>
      <point x="-320" y="821"/>
      <point x="-319" y="799"/>
      <point x="-317" y="788" type="curve"/>
      <point x="-259" y="788" type="line"/>
      <point x="-259" y="795" type="line" smooth="yes"/>
      <point x="-259" y="909"/>
      <point x="-196" y="950"/>
      <point x="-99" y="950" type="curve" smooth="yes"/>
      <point x="-2" y="950"/>
      <point x="60" y="909"/>
      <point x="60" y="776" type="curve" smooth="yes"/>
      <point x="60" y="0" type="line"/>
      <point x="136" y="0" type="line"/>
    </contour>
  </outline>
</glyph>
<glyph name="_aa" format="2">
  <advance width="395"/>
  <unicode hex="102C"/>
  <outline>
    <contour>
      <point x="-124" y="464" type="curve"/>
      <point x="-76" y="372" type="line"/>
      <point x="-42" y="405"/>
      <point x="13" y="418"/>
      <point x="80" y="418" type="curve" smooth="yes"/>
      <point x="194" y="418"/>
      <point x="274" y="380"/>
      <point x="274" y="273" type="curve" smooth="yes"/>
      <point x="274" y="263" type="line" smooth="yes"/>
      <point x="274" y="156"/>
      <point x="194" y="118"/>
      <point x="80" y="118" type="curve" smooth="yes"/>
      <point x="27" y="118" type="line"/>
      <point x="27" y="-7" type="line"/>
      <point x="43" y="-9"/>
      <point x="63" y="-10"/>
      <point x="84" y="-10" type="curve" smooth="yes"/>
      <point x="179" y="-10"/>
      <point x="247" y="24"/>
      <point x="288" y="77" type="curve" smooth="yes"/>
      <point x="325" y="124"/>
      <point x="340" y="185"/>
      <point x="340" y="268" type="curve" smooth="yes"/>
      <point x="340" y="351"/>
      <point x="325" y="412"/>
      <point x="288" y="459" type="curve" smooth="yes"/>
      <point x="247" y="512"/>
      <point x="179" y="546"/>
      <point x="90" y="546" type="curve" smooth="yes"/>
      <point x="70" y="546" type="line" smooth="yes"/>
      <point x="-19" y="546"/>
      <point x="-87" y="512"/>
    </contour>
  </outline>
</glyph>
<glyph name="_u" format="2">
  <unicode hex="102F"/>
  <outline>
    <contour>
      <point x="-277" y="73" type="line"/>
      <point x="-353" y="73" type="line"/>
      <point x="-353" y="-331" type="line" smooth="yes"/>
      <point x="-353" y="-484"/>
      <point x="-298" y="-542"/>
      <point x="-185" y="-542" type="curve" smooth="yes"/>
      <point x="-181" y="-542"/>
      <point x="-173" y="-542"/>
      <point x="-166" y="-541" type="curve"/>
      <point x="-166" y="-413" type="line"/>
      <point x="-171" y="-413" type="line" smooth="yes"/>
      <point x="-253" y="-413"/>
      <point x="-277" y="-381"/>
      <point x="-277" y="-299" type="curve" smooth="yes"/>
    </contour>
  </outline>
</glyph>
<glyph name="_uu" format="2">
  <unicode hex="1030"/>
  <outline>
    <contour>
      <point x="-434" y="-532" type="line"/>
      <point x="-358" y="-532" type="line"/>
      <point x="-358" y="8" type="line"/>
      <point x="-434" y="8" type="line"/>
    </contour>
    <component base="_u" xOffset="81"/>
  </outline>
</glyph>
<glyph name="_e" format="2">
  <advance width="630"/>
  <unicode hex="1031"/>
  <note>
_e
</note>
  <outline>
    <contour>
      <point x="572" y="323" type="line"/>
      <point x="572" y="406"/>
      <point x="513" y="546"/>
      <point x="325" y="546" type="curve" smooth="yes"/>
      <point x="305" y="546" type="line" smooth="yes"/>
      <point x="218" y="546"/>
      <point x="151" y="514"/>
      <point x="109" y="457" type="curve" smooth="yes"/>
      <point x="74" y="410"/>
      <point x="55" y="345"/>
      <point x="55" y="267" type="curve" smooth="yes"/>
      <point x="55" y="185"/>
      <point x="73" y="122"/>
      <point x="108" y="77" type="curve" smooth="yes"/>
      <point x="153" y="18"/>
      <point x="227" y="-10"/>
      <point x="326" y="-10" type="curve" smooth="yes"/>
      <point x="337" y="-10" type="line" smooth="yes"/>
      <point x="503" y="-10"/>
      <point x="571" y="72"/>
      <point x="571" y="152" type="curve" smooth="yes"/>
      <point x="571" y="207"/>
      <point x="547" y="272"/>
      <point x="411" y="272" type="curve" smooth="yes"/>
      <point x="333" y="272"/>
      <point x="253" y="252"/>
      <point x="253" y="142" type="curve" smooth="yes"/>
      <point x="253" y="92" type="line"/>
      <point x="310" y="92" type="line"/>
      <point x="310" y="149" type="line" smooth="yes"/>
      <point x="310" y="189"/>
      <point x="340" y="205"/>
      <point x="390" y="205" type="curve" smooth="yes"/>
      <point x="431" y="205" type="line" smooth="yes"/>
      <point x="472" y="205"/>
      <point x="508" y="195"/>
      <point x="508" y="165" type="curve" smooth="yes"/>
      <point x="508" y="137"/>
      <point x="481" y="118"/>
      <point x="408" y="118" type="curve" smooth="yes"/>
      <point x="315" y="118" type="line" smooth="yes"/>
      <point x="201" y="118"/>
      <point x="121" y="156"/>
      <point x="121" y="263" type="curve" smooth="yes"/>
      <point x="121" y="273" type="line" smooth="yes"/>
      <point x="121" y="380"/>
      <point x="201" y="418"/>
      <point x="315" y="418" type="curve" smooth="yes"/>
      <point x="429" y="418"/>
      <point x="498" y="381"/>
      <point x="506" y="323" type="curve"/>
    </contour>
  </outline>
</glyph>
<glyph name="_ii_mon" format="2">
  <unicode hex="1033"/>
  <outline>
    <contour>
      <point x="-315" y="754" type="curve" smooth="yes"/>
      <point x="-241" y="754"/>
      <point x="-204" y="782"/>
      <point x="-204" y="839" type="curve" smooth="yes"/>
      <point x="-204" y="895"/>
      <point x="-241" y="924"/>
      <point x="-315" y="924" type="curve" smooth="yes"/>
      <point x="-388" y="924"/>
      <point x="-425" y="895"/>
      <point x="-425" y="839" type="curve" smooth="yes"/>
      <point x="-425" y="782"/>
      <point x="-388" y="754"/>
    </contour>
    <contour>
      <point x="-315" y="806" type="curve" smooth="yes"/>
      <point x="-362" y="806"/>
      <point x="-384" y="816"/>
      <point x="-384" y="839" type="curve" smooth="yes"/>
      <point x="-384" y="862"/>
      <point x="-362" y="872"/>
      <point x="-315" y="872" type="curve" smooth="yes"/>
      <point x="-267" y="872"/>
      <point x="-245" y="862"/>
      <point x="-245" y="839" type="curve" smooth="yes"/>
      <point x="-245" y="816"/>
      <point x="-267" y="806"/>
    </contour>
    <component base="_i"/>
  </outline>
</glyph>
<glyph name="_o_mon" format="2">
  <unicode hex="1034"/>
  <note>
_o_mon
</note>
  <outline>
    <contour>
      <point x="-137" y="863" type="line"/>
      <point x="-256" y="906" type="line"/>
      <point x="-493" y="631" type="line"/>
      <point x="-398" y="647" type="line"/>
    </contour>
  </outline>
</glyph>
<glyph name="dot_below" format="2">
  <unicode hex="1037"/>
  <outline>
    <contour>
      <point x="-315" y="-352" type="curve" smooth="yes"/>
      <point x="-231" y="-352"/>
      <point x="-181" y="-299"/>
      <point x="-181" y="-222" type="curve" smooth="yes"/>
      <point x="-181" y="-143"/>
      <point x="-231" y="-90"/>
      <point x="-315" y="-90" type="curve" smooth="yes"/>
      <point x="-399" y="-90"/>
      <point x="-449" y="-143"/>
      <point x="-449" y="-222" type="curve" smooth="yes"/>
      <point x="-449" y="-299"/>
      <point x="-399" y="-352"/>
    </contour>
    <contour>
      <point x="-315" y="-274" type="curve" smooth="yes"/>
      <point x="-370" y="-274"/>
      <point x="-394" y="-252"/>
      <point x="-394" y="-222" type="curve" smooth="yes"/>
      <point x="-394" y="-191"/>
      <point x="-370" y="-168"/>
      <point x="-315" y="-168" type="curve" smooth="yes"/>
      <point x="-260" y="-168"/>
      <point x="-236" y="-191"/>
      <point x="-236" y="-222" type="curve" smooth="yes"/>
      <point x="-236" y="-252"/>
      <point x="-260" y="-274"/>
    </contour>
  </outline>
</glyph>
<glyph name="virama" format="2">
  <unicode hex="1039"/>
  <note>
virama
</note>
  <outline>
    <contour>
      <point x="-357" y="-532" type="line"/>
      <point x="-272" y="-532" type="line"/>
      <point x="-293" y="-297" type="line"/>
      <point x="-272" y="-63" type="line"/>
      <point x="-357" y="-63" type="line"/>
      <point x="-336" y="-297" type="line"/>
    </contour>
    <contour>
      <point x="-81" y="-331" type="line"/>
      <point x="-81" y="-264" type="line"/>
      <point x="-549" y="-264" type="line"/>
      <point x="-549" y="-331" type="line"/>
    </contour>
  </outline>
</glyph>
<glyph name="asat" format="2">
  <unicode hex="103A"/>
  <outline>
    <contour>
      <point x="-301" y="671" type="line"/>
      <point x="-404" y="725"/>
      <point x="-462" y="779"/>
      <point x="-462" y="851" type="curve" smooth="yes"/>
      <point x="-462" y="920"/>
      <point x="-409" y="961"/>
      <point x="-307" y="961" type="curve" smooth="yes"/>
      <point x="-216" y="961"/>
      <point x="-149" y="929"/>
      <point x="-149" y="838" type="curve" smooth="yes"/>
      <point x="-149" y="830" type="line"/>
      <point x="-93" y="830" type="line"/>
      <point x="-92" y="837"/>
      <point x="-91" y="847"/>
      <point x="-91" y="862" type="curve" smooth="yes"/>
      <point x="-91" y="996"/>
      <point x="-169" y="1078"/>
      <point x="-311" y="1078" type="curve" smooth="yes"/>
      <point x="-454" y="1078"/>
      <point x="-537" y="994"/>
      <point x="-537" y="875" type="curve" smooth="yes"/>
      <point x="-537" y="746"/>
      <point x="-439" y="677"/>
      <point x="-311" y="603" type="curve" smooth="yes"/>
      <point x="-301" y="597" type="line"/>
    </contour>
  </outline>
</glyph>
<glyph name="medial_ya" format="2">
  <advance width="196"/>
  <unicode hex="103B"/>
  <outline>
    <contour>
      <point x="136" y="536" type="line"/>
      <point x="60" y="536" type="line"/>
      <point x="60" y="-322" type="line" smooth="yes"/>
      <point x="60" y="-380"/>
      <point x="49" y="-405"/>
      <point x="13" y="-405" type="curve" smooth="yes"/>
      <point x="1" y="-405"/>
      <point x="-21" y="-403"/>
      <point x="-80" y="-377" type="curve" smooth="yes"/>
      <point x="-139" y="-351"/>
      <point x="-160" y="-333"/>
      <point x="-160" y="-243" type="curve" smooth="yes"/>
      <point x="-160" y="88" type="line"/>
      <point x="-236" y="68" type="line"/>
      <point x="-236" y="-271" type="line" smooth="yes"/>
      <point x="-236" y="-396"/>
      <point x="-235" y="-440"/>
      <point x="-110" y="-496" type="curve" smooth="yes"/>
      <point x="-12" y="-540"/>
      <point x="14" y="-542"/>
      <point x="37" y="-542" type="curve" smooth="yes"/>
      <point x="103" y="-542"/>
      <point x="136" y="-491"/>
      <point x="136" y="-387" type="curve" smooth="yes"/>
    </contour>
  </outline>
</glyph>
<glyph name="medial_ra" format="2">
  <advance width="196"/>
  <unicode hex="103C"/>
  <outline>
    <contour>
      <point x="666" y="69" type="line"/>
      <point x="590" y="69" type="line"/>
      <point x="590" y="-296" type="line" smooth="yes"/>
      <point x="590" y="-349"/>
      <point x="575" y="-381"/>
      <point x="542" y="-395" type="curve" smooth="yes"/>
      <point x="506" y="-411"/>
      <point x="432" y="-414"/>
      <point x="363" y="-414" type="curve" smooth="yes"/>
      <point x="294" y="-414"/>
      <point x="220" y="-411"/>
      <point x="185" y="-396" type="curve" smooth="yes"/>
      <point x="152" y="-381"/>
      <point x="136" y="-349"/>
      <point x="136" y="-296" type="curve" smooth="yes"/>
      <point x="136" y="833" type="line" smooth="yes"/>
      <point x="136" y="886"/>
      <point x="152" y="918"/>
      <point x="184" y="933" type="curve" smooth="yes"/>
      <point x="220" y="948"/>
      <point x="294" y="950"/>
      <point x="363" y="950" type="curve" smooth="yes"/>
      <point x="432" y="950"/>
      <point x="506" y="948"/>
      <point x="543" y="933" type="curve" smooth="yes"/>
      <point x="575" y="918"/>
      <point x="590" y="886"/>
      <point x="590" y="833" type="curve" smooth="yes"/>
      <point x="590" y="787" type="line"/>
      <point x="666" y="787" type="line"/>
      <point x="666" y="864" type="line" smooth="yes"/>
      <point x="666" y="969"/>
      <point x="639" y="1012"/>
      <point x="608" y="1035" type="curve" smooth="yes"/>
      <point x="557" y="1073"/>
      <point x="468" y="1078"/>
      <point x="363" y="1078" type="curve" smooth="yes"/>
      <point x="259" y="1078"/>
      <point x="170" y="1073"/>
      <point x="119" y="1035" type="curve" smooth="yes"/>
      <point x="87" y="1012"/>
      <point x="60" y="969"/>
      <point x="60" y="864" type="curve" smooth="yes"/>
      <point x="60" y="-328" type="line" smooth="yes"/>
      <point x="60" y="-433"/>
      <point x="87" y="-476"/>
      <point x="119" y="-499" type="curve" smooth="yes"/>
      <point x="170" y="-537"/>
      <point x="259" y="-542"/>
      <point x="363" y="-542" type="curve" smooth="yes"/>
      <point x="468" y="-542"/>
      <point x="557" y="-537"/>
      <point x="608" y="-499" type="curve" smooth="yes"/>
      <point x="639" y="-476"/>
      <point x="666" y="-433"/>
      <point x="666" y="-328" type="curve" smooth="yes"/>
    </contour>
  </outline>
</glyph>
<glyph name="medial_wa" format="2">
  <unicode hex="103D"/>
  <outline>
    <contour>
      <point x="-324" y="-63" type="line" smooth="yes"/>
      <point x="-402" y="-63"/>
      <point x="-462" y="-91"/>
      <point x="-498" y="-137" type="curve" smooth="yes"/>
      <point x="-530" y="-178"/>
      <point x="-544" y="-231"/>
      <point x="-544" y="-302" type="curve" smooth="yes"/>
      <point x="-544" y="-374"/>
      <point x="-530" y="-426"/>
      <point x="-498" y="-467" type="curve" smooth="yes"/>
      <point x="-462" y="-513"/>
      <point x="-402" y="-542"/>
      <point x="-324" y="-542" type="curve" smooth="yes"/>
      <point x="-306" y="-542" type="line" smooth="yes"/>
      <point x="-228" y="-542"/>
      <point x="-168" y="-513"/>
      <point x="-131" y="-467" type="curve" smooth="yes"/>
      <point x="-99" y="-426"/>
      <point x="-86" y="-374"/>
      <point x="-86" y="-302" type="curve" smooth="yes"/>
      <point x="-86" y="-231"/>
      <point x="-99" y="-178"/>
      <point x="-131" y="-137" type="curve" smooth="yes"/>
      <point x="-168" y="-91"/>
      <point x="-228" y="-63"/>
      <point x="-306" y="-63" type="curve" smooth="yes"/>
    </contour>
    <contour>
      <point x="-315" y="-426" type="curve" smooth="yes"/>
      <point x="-414" y="-426"/>
      <point x="-483" y="-395"/>
      <point x="-483" y="-306" type="curve" smooth="yes"/>
      <point x="-483" y="-298" type="line" smooth="yes"/>
      <point x="-483" y="-210"/>
      <point x="-414" y="-179"/>
      <point x="-315" y="-179" type="curve" smooth="yes"/>
      <point x="-216" y="-179"/>
      <point x="-147" y="-210"/>
      <point x="-147" y="-298" type="curve" smooth="yes"/>
      <point x="-147" y="-306" type="line" smooth="yes"/>
      <point x="-147" y="-395"/>
      <point x="-216" y="-426"/>
    </contour>
  </outline>
</glyph>
<glyph name="great_sa" format="2">
  <advance width="1420"/>
  <unicode hex="103F"/>
  <note>
Disable this ligature (sa+virama+sa) and use sa with subjoined sa for Mon.
</note>
  <outline>
    <contour>
      <point x="124" y="323" type="line"/>
      <point x="132" y="381"/>
      <point x="201" y="418"/>
      <point x="315" y="418" type="curve" smooth="yes"/>
      <point x="429" y="418"/>
      <point x="509" y="380"/>
      <point x="509" y="273" type="curve" smooth="yes"/>
      <point x="509" y="263" type="line" smooth="yes"/>
      <point x="509" y="156"/>
      <point x="429" y="118"/>
      <point x="315" y="118" type="curve" smooth="yes"/>
      <point x="201" y="118"/>
      <point x="132" y="155"/>
      <point x="124" y="213" type="curve"/>
      <point x="58" y="213" type="line"/>
      <point x="58" y="130"/>
      <point x="117" y="-10"/>
      <point x="305" y="-10" type="curve" smooth="yes"/>
      <point x="325" y="-10" type="line" smooth="yes"/>
      <point x="414" y="-10"/>
      <point x="482" y="24"/>
      <point x="523" y="77" type="curve" smooth="yes"/>
      <point x="560" y="124"/>
      <point x="575" y="185"/>
      <point x="575" y="268" type="curve" smooth="yes"/>
      <point x="575" y="351"/>
      <point x="560" y="412"/>
      <point x="523" y="459" type="curve" smooth="yes"/>
      <point x="482" y="512"/>
      <point x="414" y="546"/>
      <point x="325" y="546" type="curve"/>
      <point x="302" y="546" type="line" smooth="yes"/>
      <point x="160" y="546"/>
      <point x="63" y="457"/>
      <point x="58" y="323" type="curve"/>
    </contour>
    <contour>
      <point x="506" y="72" type="line"/>
      <point x="543" y="24"/>
      <point x="611" y="-10"/>
      <point x="700" y="-10" type="curve" smooth="yes"/>
      <point x="720" y="-10" type="line" smooth="yes"/>
      <point x="809" y="-10"/>
      <point x="877" y="24"/>
      <point x="918" y="77" type="curve" smooth="yes"/>
      <point x="955" y="124"/>
      <point x="970" y="185"/>
      <point x="970" y="268" type="curve" smooth="yes"/>
      <point x="970" y="351"/>
      <point x="955" y="412"/>
      <point x="918" y="459" type="curve" smooth="yes"/>
      <point x="877" y="512"/>
      <point x="809" y="546"/>
      <point x="714" y="546" type="curve" smooth="yes"/>
      <point x="693" y="546"/>
      <point x="673" y="545"/>
      <point x="657" y="543" type="curve"/>
      <point x="657" y="418" type="line"/>
      <point x="710" y="418" type="line" smooth="yes"/>
      <point x="824" y="418"/>
      <point x="904" y="380"/>
      <point x="904" y="273" type="curve" smooth="yes"/>
      <point x="904" y="263" type="line" smooth="yes"/>
      <point x="904" y="156"/>
      <point x="824" y="118"/>
      <point x="710" y="118" type="curve" smooth="yes"/>
      <point x="643" y="118"/>
      <point x="588" y="131"/>
      <point x="554" y="164" type="curve"/>
    </contour>
    <contour>
      <point x="901" y="72" type="line"/>
      <point x="938" y="24"/>
      <point x="1006" y="-10"/>
      <point x="1095" y="-10" type="curve" smooth="yes"/>
      <point x="1115" y="-10" type="line" smooth="yes"/>
      <point x="1204" y="-10"/>
      <point x="1272" y="24"/>
      <point x="1313" y="77" type="curve" smooth="yes"/>
      <point x="1350" y="124"/>
      <point x="1365" y="185"/>
      <point x="1365" y="268" type="curve" smooth="yes"/>
      <point x="1365" y="351"/>
      <point x="1350" y="412"/>
      <point x="1313" y="459" type="curve" smooth="yes"/>
      <point x="1272" y="512"/>
      <point x="1204" y="546"/>
      <point x="1109" y="546" type="curve" smooth="yes"/>
      <point x="1088" y="546"/>
      <point x="1068" y="545"/>
      <point x="1052" y="543" type="curve"/>
      <point x="1052" y="418" type="line"/>
      <point x="1105" y="418" type="line" smooth="yes"/>
      <point x="1219" y="418"/>
      <point x="1299" y="380"/>
      <point x="1299" y="273" type="curve" smooth="yes"/>
      <point x="1299" y="263" type="line" smooth="yes"/>
      <point x="1299" y="156"/>
      <point x="1219" y="118"/>
      <point x="1105" y="118" type="curve" smooth="yes"/>
      <point x="1038" y="118"/>
      <point x="983" y="131"/>
      <point x="949" y="164" type="curve"/>
    </contour>
  </outline>
</glyph>
<glyph name="two_m" format="2">
  <advance width="565"/>
  <unicode hex="1042"/>
  <outline>
    <contour>
      <point x="505" y="-164" type="curve" smooth="yes"/>
      <point x="505" y="536" type="line"/>
      <point x="429" y="536" type="line"/>
      <point x="429" y="-140" type="line" smooth="yes"/>
      <point x="429" y="-273"/>
      <point x="367" y="-314"/>
      <point x="270" y="-314" type="curve" smooth="yes"/>
      <point x="173" y="-314"/>
      <point x="110" y="-273"/>
      <point x="110" y="-159" type="curve" smooth="yes"/>
      <point x="110" y="-152" type="line"/>
      <point x="52" y="-152" type="line"/>
      <point x="50" y="-163"/>
      <point x="49" y="-185"/>
      <point x="49" y="-201" type="curve" smooth="yes"/>
      <point x="49" y="-340"/>
      <point x="124" y="-442"/>
      <point x="277" y="-442" type="curve" smooth="yes"/>
      <point x="430" y="-442"/>
      <point x="505" y="-342"/>
    </contour>
  </outline>
</glyph>
<glyph name="three_m" format="2">
  <advance width="630"/>
  <unicode hex="1043"/>
  <outline>
    <contour>
      <point x="302" y="-10" type="curve" smooth="yes"/>
      <point x="325" y="-10" type="line" smooth="yes"/>
      <point x="414" y="-10"/>
      <point x="482" y="24"/>
      <point x="523" y="77" type="curve" smooth="yes"/>
      <point x="560" y="124"/>
      <point x="575" y="185"/>
      <point x="575" y="268" type="curve" smooth="yes"/>
      <point x="575" y="351"/>
      <point x="560" y="412"/>
      <point x="523" y="459" type="curve" smooth="yes"/>
      <point x="482" y="512"/>
      <point x="414" y="546"/>
      <point x="325" y="546" type="curve" smooth="yes"/>
      <point x="305" y="546" type="line" smooth="yes"/>
      <point x="117" y="546"/>
      <point x="58" y="406"/>
      <point x="58" y="323" type="curve"/>
      <point x="124" y="323" type="line"/>
      <point x="132" y="381"/>
      <point x="201" y="418"/>
      <point x="315" y="418" type="curve" smooth="yes"/>
      <point x="429" y="418"/>
      <point x="509" y="380"/>
      <point x="509" y="273" type="curve" smooth="yes"/>
      <point x="509" y="263" type="line" smooth="yes"/>
      <point x="509" y="156"/>
      <point x="429" y="118"/>
      <point x="315" y="118" type="curve" smooth="yes"/>
      <point x="201" y="118"/>
      <point x="132" y="155"/>
      <point x="124" y="213" type="curve"/>
      <point x="58" y="213" type="line"/>
      <point x="60" y="165"/>
      <point x="73" y="123"/>
      <point x="118" y="56" type="curve" smooth="yes"/>
      <point x="456" y="-442" type="line"/>
      <point x="575" y="-399" type="line"/>
      <point x="254" y="-6" type="line"/>
      <point x="269" y="-9"/>
      <point x="285" y="-10"/>
    </contour>
  </outline>
</glyph>
<glyph name="five_m" format="2">
  <advance width="635"/>
  <unicode hex="1045"/>
  <outline>
    <contour>
      <point x="281" y="22" type="curve" smooth="yes"/>
      <point x="365" y="22"/>
      <point x="415" y="75"/>
      <point x="415" y="152" type="curve" smooth="yes"/>
      <point x="415" y="231"/>
      <point x="365" y="284"/>
      <point x="281" y="284" type="curve" smooth="yes"/>
      <point x="197" y="284"/>
      <point x="147" y="231"/>
      <point x="147" y="152" type="curve" smooth="yes"/>
      <point x="147" y="75"/>
      <point x="197" y="22"/>
    </contour>
    <contour>
      <point x="121" y="-151" type="line"/>
      <point x="57" y="-151" type="line"/>
      <point x="55" y="-158"/>
      <point x="55" y="-165"/>
      <point x="55" y="-169" type="curve" smooth="yes"/>
      <point x="55" y="-247"/>
      <point x="70" y="-308"/>
      <point x="107" y="-355" type="curve" smooth="yes"/>
      <point x="148" y="-408"/>
      <point x="216" y="-442"/>
      <point x="305" y="-442" type="curve" smooth="yes"/>
      <point x="325" y="-442" type="line" smooth="yes"/>
      <point x="414" y="-442"/>
      <point x="482" y="-408"/>
      <point x="523" y="-355" type="curve" smooth="yes"/>
      <point x="560" y="-308"/>
      <point x="575" y="-247"/>
      <point x="575" y="-164" type="curve" smooth="yes"/>
      <point x="575" y="268" type="line" smooth="yes"/>
      <point x="575" y="351"/>
      <point x="560" y="412"/>
      <point x="523" y="459" type="curve" smooth="yes"/>
      <point x="482" y="512"/>
      <point x="414" y="546"/>
      <point x="325" y="546" type="curve" smooth="yes"/>
      <point x="305" y="546" type="line" smooth="yes"/>
      <point x="216" y="546"/>
      <point x="148" y="512"/>
      <point x="107" y="460" type="curve" smooth="yes"/>
      <point x="70" y="412"/>
      <point x="55" y="349"/>
      <point x="55" y="270" type="curve" smooth="yes"/>
      <point x="55" y="186"/>
      <point x="72" y="125"/>
      <point x="107" y="76" type="curve" smooth="yes"/>
      <point x="146" y="22"/>
      <point x="203" y="-10"/>
      <point x="281" y="-10" type="curve" smooth="yes"/>
      <point x="373" y="-10"/>
      <point x="415" y="48"/>
      <point x="415" y="152" type="curve"/>
      <point x="351" y="82"/>
      <point x="308" y="85"/>
      <point x="254" y="85" type="curve"/>
      <point x="147" y="85"/>
      <point x="121" y="143"/>
      <point x="121" y="233" type="curve" smooth="yes"/>
      <point x="121" y="252" type="line" smooth="yes"/>
      <point x="121" y="372"/>
      <point x="206" y="418"/>
      <point x="313" y="418" type="curve" smooth="yes"/>
      <point x="424" y="418"/>
      <point x="501" y="369"/>
      <point x="501" y="244" type="curve" smooth="yes"/>
      <point x="501" y="-144" type="line" smooth="yes"/>
      <point x="501" y="-277"/>
      <point x="423" y="-314"/>
      <point x="311" y="-314" type="curve" smooth="yes"/>
      <point x="199" y="-314"/>
      <point x="121" y="-276"/>
      <point x="121" y="-156" type="curve" smooth="yes"/>
    </contour>
    <contour>
      <point x="281" y="100" type="curve" smooth="yes"/>
      <point x="226" y="100"/>
      <point x="202" y="122"/>
      <point x="202" y="152" type="curve" smooth="yes"/>
      <point x="202" y="183"/>
      <point x="226" y="206"/>
      <point x="281" y="206" type="curve" smooth="yes"/>
      <point x="336" y="206"/>
      <point x="360" y="183"/>
      <point x="360" y="152" type="curve" smooth="yes"/>
      <point x="360" y="122"/>
      <point x="336" y="100"/>
    </contour>
  </outline>
</glyph>
<glyph name="seven_m" format="2">
  <advance width="630"/>
  <unicode hex="1047"/>
  <outline>
    <contour>
      <point x="519" y="-222" type="curve"/>
      <point x="461" y="-222" type="line"/>
      <point x="461" y="-229" type="line" smooth="yes"/>
      <point x="461" y="-300"/>
      <point x="411" y="-326"/>
      <point x="343" y="-326" type="curve" smooth="yes"/>
      <point x="266" y="-326"/>
      <point x="228" y="-300"/>
      <point x="228" y="-246" type="curve" smooth="yes"/>
      <point x="228" y="-196"/>
      <point x="266" y="-155"/>
      <point x="356" y="-79" type="curve" smooth="yes"/>
      <point x="485" y="29"/>
      <point x="575" y="118"/>
      <point x="575" y="270" type="curve" smooth="yes"/>
      <point x="575" y="347"/>
      <point x="561" y="413"/>
      <point x="519" y="464" type="curve" smooth="yes"/>
      <point x="480" y="512"/>
      <point x="417" y="546"/>
      <point x="325" y="546" type="curve" smooth="yes"/>
      <point x="305" y="546" type="line" smooth="yes"/>
      <point x="213" y="546"/>
      <point x="150" y="512"/>
      <point x="111" y="464" type="curve" smooth="yes"/>
      <point x="69" y="413"/>
      <point x="55" y="347"/>
      <point x="55" y="269" type="curve" smooth="yes"/>
      <point x="55" y="190"/>
      <point x="69" y="124"/>
      <point x="111" y="70" type="curve" smooth="yes"/>
      <point x="148" y="22"/>
      <point x="199" y="-6"/>
      <point x="272" y="-10" type="curve"/>
      <point x="272" y="118" type="line"/>
      <point x="185" y="126"/>
      <point x="121" y="160"/>
      <point x="121" y="263" type="curve" smooth="yes"/>
      <point x="121" y="273" type="line" smooth="yes"/>
      <point x="121" y="380"/>
      <point x="201" y="418"/>
      <point x="315" y="418" type="curve" smooth="yes"/>
      <point x="423" y="418"/>
      <point x="497" y="377"/>
      <point x="497" y="256" type="curve" smooth="yes"/>
      <point x="497" y="246" type="line" smooth="yes"/>
      <point x="497" y="145"/>
      <point x="431" y="78"/>
      <point x="320" y="-21" type="curve" smooth="yes"/>
      <point x="203" y="-126"/>
      <point x="152" y="-183"/>
      <point x="152" y="-276" type="curve" smooth="yes"/>
      <point x="152" y="-376"/>
      <point x="214" y="-442"/>
      <point x="342" y="-442" type="curve" smooth="yes"/>
      <point x="465" y="-442"/>
      <point x="526" y="-370"/>
      <point x="526" y="-263" type="curve" smooth="yes"/>
      <point x="526" y="-247"/>
      <point x="523" y="-231"/>
    </contour>
  </outline>
</glyph>
<glyph name="nine_m" format="2">
  <advance width="630"/>
  <unicode hex="1049"/>
  <outline>
    <contour>
      <point x="325" y="252" type="curve"/>
      <point x="428" y="181" type="line"/>
      <point x="497" y="192"/>
      <point x="580" y="223"/>
      <point x="580" y="331" type="curve" smooth="yes"/>
      <point x="580" y="458"/>
      <point x="505" y="546"/>
      <point x="334" y="546" type="curve" smooth="yes"/>
      <point x="314" y="546" type="line" smooth="yes"/>
      <point x="221" y="546"/>
      <point x="153" y="512"/>
      <point x="112" y="459" type="curve" smooth="yes"/>
      <point x="75" y="412"/>
      <point x="60" y="351"/>
      <point x="60" y="268" type="curve" smooth="yes"/>
      <point x="60" y="-164" type="line" smooth="yes"/>
      <point x="60" y="-247"/>
      <point x="75" y="-308"/>
      <point x="112" y="-355" type="curve" smooth="yes"/>
      <point x="153" y="-408"/>
      <point x="221" y="-442"/>
      <point x="310" y="-442" type="curve" smooth="yes"/>
      <point x="330" y="-442" type="line" smooth="yes"/>
      <point x="419" y="-442"/>
      <point x="487" y="-408"/>
      <point x="528" y="-355" type="curve" smooth="yes"/>
      <point x="565" y="-308"/>
      <point x="580" y="-247"/>
      <point x="580" y="-169" type="curve" smooth="yes"/>
      <point x="580" y="-165"/>
      <point x="580" y="-158"/>
      <point x="578" y="-151" type="curve"/>
      <point x="514" y="-151" type="line"/>
      <point x="514" y="-156" type="line" smooth="yes"/>
      <point x="514" y="-276"/>
      <point x="436" y="-314"/>
      <point x="324" y="-314" type="curve" smooth="yes"/>
      <point x="212" y="-314"/>
      <point x="134" y="-276"/>
      <point x="134" y="-140" type="curve" smooth="yes"/>
      <point x="134" y="252" type="line" smooth="yes"/>
      <point x="134" y="371"/>
      <point x="207" y="418"/>
      <point x="339" y="418" type="curve" smooth="yes"/>
      <point x="445" y="418"/>
      <point x="514" y="386"/>
      <point x="514" y="333" type="curve" smooth="yes"/>
      <point x="514" y="292"/>
      <point x="476" y="286"/>
      <point x="393" y="283" type="curve" smooth="yes"/>
      <point x="251" y="278"/>
      <point x="191" y="219"/>
      <point x="191" y="120" type="curve" smooth="yes"/>
      <point x="191" y="43"/>
      <point x="241" y="-10"/>
      <point x="325" y="-10" type="curve" smooth="yes"/>
      <point x="409" y="-10"/>
      <point x="459" y="43"/>
      <point x="459" y="120" type="curve" smooth="yes"/>
      <point x="459" y="199"/>
      <point x="409" y="252"/>
    </contour>
    <contour>
      <point x="325" y="68" type="curve" smooth="yes"/>
      <point x="270" y="68"/>
      <point x="246" y="90"/>
      <point x="246" y="120" type="curve" smooth="yes"/>
      <point x="246" y="151"/>
      <point x="270" y="174"/>
      <point x="325" y="174" type="curve" smooth="yes"/>
      <point x="380" y="174"/>
      <point x="404" y="151"/>
      <point x="404" y="120" type="curve" smooth="yes"/>
      <point x="404" y="90"/>
      <point x="380" y="68"/>
    </contour>
  </outline>
</glyph>
<glyph name="little_section" format="2">
  <advance width="264"/>
  <unicode hex="104A"/>
  <note>
little_section
</note>
  <outline>
    <contour>
      <point x="170" y="536" type="line"/>
      <point x="94" y="536" type="line"/>
      <point x="94" y="0" type="line"/>
      <point x="170" y="0" type="line"/>
    </contour>
  </outline>
</glyph>
<glyph name="locative" format="2">
  <advance width="630"/>
  <unicode hex="104C"/>
  <note>
locative
</note>
  <outline>
    <contour>
      <point x="58" y="219" type="line"/>
      <point x="58" y="12" type="line" smooth="yes"/>
      <point x="58" y="-93"/>
      <point x="81" y="-136"/>
      <point x="109" y="-159" type="curve" smooth="yes"/>
      <point x="151" y="-197"/>
      <point x="228" y="-202"/>
      <point x="317" y="-202" type="curve" smooth="yes"/>
      <point x="406" y="-202"/>
      <point x="482" y="-197"/>
      <point x="525" y="-159" type="curve" smooth="yes"/>
      <point x="552" y="-136"/>
      <point x="575" y="-93"/>
      <point x="575" y="12" type="curve" smooth="yes"/>
      <point x="575" y="29" type="line"/>
      <point x="509" y="29" type="line" smooth="yes"/>
      <point x="509" y="-30"/>
      <point x="496" y="-55"/>
      <point x="468" y="-69" type="curve" smooth="yes"/>
      <point x="438" y="-85"/>
      <point x="375" y="-88"/>
      <point x="317" y="-88" type="curve" smooth="yes"/>
      <point x="259" y="-88"/>
      <point x="196" y="-85"/>
      <point x="167" y="-70" type="curve" smooth="yes"/>
      <point x="138" y="-55"/>
      <point x="125" y="-23"/>
      <point x="125" y="30" type="curve" smooth="yes"/>
      <point x="125" y="199" type="line"/>
    </contour>
    <contour>
      <point x="575" y="23" type="line"/>
      <point x="504" y="-67" type="line"/>
      <point x="504" y="-303" type="line" smooth="yes"/>
      <point x="504" y="-356"/>
      <point x="490" y="-388"/>
      <point x="460" y="-403" type="curve" smooth="yes"/>
      <point x="432" y="-418"/>
      <point x="367" y="-420"/>
      <point x="312" y="-420" type="curve" smooth="yes"/>
      <point x="203" y="-420"/>
      <point x="124" y="-413"/>
      <point x="124" y="-368" type="curve" smooth="yes"/>
      <point x="124" y="-339"/>
      <point x="156" y="-320"/>
      <point x="221" y="-320" type="curve" smooth="yes"/>
      <point x="293" y="-320"/>
      <point x="324" y="-345"/>
      <point x="328" y="-388" type="curve"/>
      <point x="442" y="-388" type="line"/>
      <point x="439" y="-302"/>
      <point x="361" y="-247"/>
      <point x="246" y="-247" type="curve" smooth="yes"/>
      <point x="115" y="-247"/>
      <point x="58" y="-311"/>
      <point x="58" y="-393" type="curve" smooth="yes"/>
      <point x="58" y="-451"/>
      <point x="83" y="-482"/>
      <point x="111" y="-503" type="curve" smooth="yes"/>
      <point x="156" y="-537"/>
      <point x="229" y="-542"/>
      <point x="316" y="-542" type="curve" smooth="yes"/>
      <point x="404" y="-542"/>
      <point x="479" y="-537"/>
      <point x="522" y="-499" type="curve" smooth="yes"/>
      <point x="550" y="-476"/>
      <point x="575" y="-433"/>
      <point x="575" y="-328" type="curve" smooth="yes"/>
    </contour>
    <component base="asat" xOffset="633"/>
    <component base="nga" xScale="-1" yScale="0.981" xOffset="630" yOffset="10"/>
  </outline>
</glyph>
<glyph name="completed" format="2">
  <advance width="831"/>
  <unicode hex="104D"/>
  <note>
completed
</note>
  <outline>
    <contour>
      <point x="771" y="10" type="line"/>
      <point x="695" y="10" type="line"/>
      <point x="695" y="-290" type="line" smooth="yes"/>
      <point x="695" y="-348"/>
      <point x="676" y="-383"/>
      <point x="631" y="-397" type="curve" smooth="yes"/>
      <point x="582" y="-414"/>
      <point x="489" y="-420"/>
      <point x="322" y="-420" type="curve" smooth="yes"/>
      <point x="201" y="-420"/>
      <point x="121" y="-413"/>
      <point x="121" y="-343" type="curve" smooth="yes"/>
      <point x="121" y="-306"/>
      <point x="154" y="-280"/>
      <point x="219" y="-280" type="curve" smooth="yes"/>
      <point x="291" y="-280"/>
      <point x="321" y="-305"/>
      <point x="325" y="-348" type="curve"/>
      <point x="439" y="-348" type="line"/>
      <point x="436" y="-262"/>
      <point x="359" y="-207"/>
      <point x="244" y="-207" type="curve" smooth="yes"/>
      <point x="122" y="-207"/>
      <point x="55" y="-280"/>
      <point x="55" y="-373" type="curve" smooth="yes"/>
      <point x="55" y="-440"/>
      <point x="80" y="-476"/>
      <point x="108" y="-499" type="curve" smooth="yes"/>
      <point x="151" y="-537"/>
      <point x="227" y="-542"/>
      <point x="324" y="-542" type="curve" smooth="yes"/>
      <point x="530" y="-542"/>
      <point x="640" y="-539"/>
      <point x="698" y="-502" type="curve" smooth="yes"/>
      <point x="739" y="-477"/>
      <point x="771" y="-432"/>
      <point x="771" y="-326" type="curve" smooth="yes"/>
    </contour>
    <component base="ra.alt2"/>
    <component base="asatstem" xOffset="635"/>
  </outline>
</glyph>
<glyph name="aforementioned" format="2">
  <advance width="630"/>
  <unicode hex="104E"/>
  <outline>
    <contour>
      <point x="496" y="-532" type="line"/>
      <point x="572" y="-532" type="line"/>
      <point x="572" y="213" type="line"/>
      <point x="496" y="123" type="line"/>
    </contour>
    <component base="nga"/>
  </outline>
</glyph>
<glyph name="genitive" format="2">
  <advance width="1092"/>
  <unicode hex="104F"/>
  <note>
genitive
</note>
  <outline>
    <contour>
      <point x="553" y="351" type="curve" smooth="yes"/>
      <point x="567" y="394"/>
      <point x="594" y="423"/>
      <point x="662" y="423" type="curve" smooth="yes"/>
      <point x="727" y="423"/>
      <point x="760" y="394"/>
      <point x="760" y="328" type="curve" smooth="yes"/>
      <point x="760" y="0" type="line"/>
      <point x="836" y="0" type="line"/>
      <point x="836" y="343" type="line" smooth="yes"/>
      <point x="836" y="465"/>
      <point x="785" y="546"/>
      <point x="667" y="546" type="curve" smooth="yes"/>
      <point x="659" y="546" type="line" smooth="yes"/>
      <point x="570" y="546"/>
      <point x="519" y="499"/>
      <point x="500" y="434" type="curve"/>
      <point x="550" y="437" type="line"/>
      <point x="529" y="494"/>
      <point x="467" y="546"/>
      <point x="338" y="546" type="curve" smooth="yes"/>
      <point x="149" y="546"/>
      <point x="55" y="458"/>
      <point x="55" y="268" type="curve" smooth="yes"/>
      <point x="55" y="78"/>
      <point x="149" y="-10"/>
      <point x="338" y="-10" type="curve" smooth="yes"/>
      <point x="503" y="-10"/>
      <point x="559" y="75"/>
      <point x="559" y="148" type="curve" smooth="yes"/>
      <point x="559" y="209"/>
      <point x="527" y="256"/>
      <point x="407" y="256" type="curve" smooth="yes"/>
      <point x="319" y="256"/>
      <point x="241" y="239"/>
      <point x="241" y="129" type="curve" smooth="yes"/>
      <point x="241" y="92" type="line"/>
      <point x="298" y="92" type="line"/>
      <point x="298" y="142" type="line" smooth="yes"/>
      <point x="298" y="178"/>
      <point x="330" y="198"/>
      <point x="383" y="198" type="curve" smooth="yes"/>
      <point x="425" y="198" type="line" smooth="yes"/>
      <point x="462" y="198"/>
      <point x="497" y="191"/>
      <point x="497" y="160" type="curve" smooth="yes"/>
      <point x="497" y="132"/>
      <point x="466" y="118"/>
      <point x="399" y="118" type="curve" smooth="yes"/>
      <point x="315" y="118" type="line" smooth="yes"/>
      <point x="201" y="118"/>
      <point x="121" y="156"/>
      <point x="121" y="263" type="curve" smooth="yes"/>
      <point x="121" y="273" type="line" smooth="yes"/>
      <point x="121" y="380"/>
      <point x="201" y="418"/>
      <point x="315" y="418" type="curve" smooth="yes"/>
      <point x="399" y="418" type="line" smooth="yes"/>
      <point x="466" y="418"/>
      <point x="497" y="404"/>
      <point x="497" y="376" type="curve" smooth="yes"/>
      <point x="497" y="345"/>
      <point x="462" y="338"/>
      <point x="425" y="338" type="curve" smooth="yes"/>
      <point x="383" y="338" type="line" smooth="yes"/>
      <point x="330" y="338"/>
      <point x="298" y="358"/>
      <point x="298" y="394" type="curve" smooth="yes"/>
      <point x="298" y="444" type="line"/>
      <point x="241" y="444" type="line"/>
      <point x="241" y="407" type="line" smooth="yes"/>
      <point x="241" y="297"/>
      <point x="319" y="280"/>
      <point x="407" y="280" type="curve" smooth="yes"/>
      <point x="501" y="280"/>
      <point x="539" y="308"/>
    </contour>
    <component base="asatstem" xOffset="896"/>
  </outline>
</glyph>
<glyph name="vocRR_skt" format="2">
  <advance width="632"/>
  <unicode hex="1053"/>
  <note>
vocRR_skt
</note>
  <outline>
    <contour>
      <point x="335" y="-10" type="line" smooth="yes"/>
      <point x="486" y="-10"/>
      <point x="576" y="64"/>
      <point x="576" y="172" type="curve" smooth="yes"/>
      <point x="576" y="297"/>
      <point x="456" y="326"/>
      <point x="456" y="393" type="curve" smooth="yes"/>
      <point x="456" y="421"/>
      <point x="475" y="437"/>
      <point x="500" y="437" type="curve" smooth="yes"/>
      <point x="527" y="437"/>
      <point x="540" y="420"/>
      <point x="549" y="402" type="curve"/>
      <point x="590" y="402" type="line"/>
      <point x="600" y="499"/>
      <point x="540" y="546"/>
      <point x="472" y="546" type="curve" smooth="yes"/>
      <point x="405" y="546"/>
      <point x="356" y="502"/>
      <point x="356" y="435" type="curve" smooth="yes"/>
      <point x="356" y="326"/>
      <point x="484" y="307"/>
      <point x="484" y="215" type="curve" smooth="yes"/>
      <point x="484" y="148"/>
      <point x="416" y="118"/>
      <point x="316" y="118" type="curve" smooth="yes"/>
      <point x="216" y="118"/>
      <point x="148" y="148"/>
      <point x="148" y="215" type="curve" smooth="yes"/>
      <point x="148" y="307"/>
      <point x="276" y="326"/>
      <point x="276" y="435" type="curve" smooth="yes"/>
      <point x="276" y="502"/>
      <point x="227" y="546"/>
      <point x="160" y="546" type="curve" smooth="yes"/>
      <point x="92" y="546"/>
      <point x="32" y="499"/>
      <point x="42" y="402" type="curve"/>
      <point x="83" y="402" type="line"/>
      <point x="92" y="420"/>
      <point x="105" y="437"/>
      <point x="132" y="437" type="curve" smooth="yes"/>
      <point x="157" y="437"/>
      <point x="176" y="421"/>
      <point x="176" y="393" type="curve" smooth="yes"/>
      <point x="176" y="326"/>
      <point x="56" y="297"/>
      <point x="56" y="172" type="curve" smooth="yes"/>
      <point x="56" y="64"/>
      <point x="146" y="-10"/>
      <point x="297" y="-10" type="curve" smooth="yes"/>
    </contour>
  </outline>
</glyph>
<glyph name="vocLL_skt" format="2">
  <advance width="639"/>
  <unicode hex="1055"/>
  <note>
vocLL_skt
</note>
  <outline>
    <contour>
      <point x="205" y="118" type="curve" smooth="yes"/>
      <point x="148" y="118"/>
      <point x="121" y="154"/>
      <point x="121" y="250" type="curve" smooth="yes"/>
      <point x="121" y="257" type="line" smooth="yes"/>
      <point x="121" y="377"/>
      <point x="206" y="418"/>
      <point x="327" y="418" type="curve" smooth="yes"/>
      <point x="420" y="418" type="line" smooth="yes"/>
      <point x="493" y="418"/>
      <point x="520" y="399"/>
      <point x="520" y="371" type="curve" smooth="yes"/>
      <point x="520" y="341"/>
      <point x="484" y="331"/>
      <point x="443" y="331" type="curve" smooth="yes"/>
      <point x="402" y="331" type="line" smooth="yes"/>
      <point x="352" y="331"/>
      <point x="322" y="347"/>
      <point x="322" y="387" type="curve" smooth="yes"/>
      <point x="322" y="444" type="line"/>
      <point x="265" y="444" type="line"/>
      <point x="265" y="394" type="line" smooth="yes"/>
      <point x="265" y="284"/>
      <point x="345" y="264"/>
      <point x="423" y="264" type="curve" smooth="yes"/>
      <point x="559" y="264"/>
      <point x="583" y="325"/>
      <point x="583" y="380" type="curve" smooth="yes"/>
      <point x="583" y="459"/>
      <point x="520" y="546"/>
      <point x="349" y="546" type="curve" smooth="yes"/>
      <point x="229" y="546"/>
      <point x="143" y="509"/>
      <point x="96" y="431" type="curve" smooth="yes"/>
      <point x="69" y="386"/>
      <point x="55" y="328"/>
      <point x="55" y="255" type="curve" smooth="yes"/>
      <point x="55" y="87"/>
      <point x="97" y="-10"/>
      <point x="202" y="-10" type="curve" smooth="yes"/>
      <point x="262" y="-10"/>
      <point x="308" y="30"/>
      <point x="321" y="80" type="curve"/>
      <point x="334" y="30"/>
      <point x="379" y="-10"/>
      <point x="438" y="-10" type="curve" smooth="yes"/>
      <point x="558" y="-10"/>
      <point x="584" y="130"/>
      <point x="584" y="213" type="curve"/>
      <point x="518" y="213" type="line"/>
      <point x="515" y="155"/>
      <point x="489" y="118"/>
      <point x="439" y="118" type="curve" smooth="yes"/>
      <point x="388" y="118"/>
      <point x="359" y="157"/>
      <point x="359" y="213" type="curve"/>
      <point x="283" y="213" type="line"/>
      <point x="283" y="157"/>
      <point x="255" y="118"/>
    </contour>
  </outline>
</glyph>
<glyph name="_vocR_skt" format="2">
  <advance width="369"/>
  <unicode hex="1056"/>
  <note>
_vocR_skt
</note>
  <outline>
    <contour>
      <point x="72" y="-10" type="line" smooth="yes"/>
      <point x="223" y="-10"/>
      <point x="313" y="64"/>
      <point x="313" y="172" type="curve" smooth="yes"/>
      <point x="313" y="297"/>
      <point x="193" y="326"/>
      <point x="193" y="393" type="curve" smooth="yes"/>
      <point x="193" y="421"/>
      <point x="212" y="437"/>
      <point x="237" y="437" type="curve" smooth="yes"/>
      <point x="264" y="437"/>
      <point x="277" y="420"/>
      <point x="286" y="402" type="curve"/>
      <point x="327" y="402" type="line"/>
      <point x="337" y="499"/>
      <point x="277" y="546"/>
      <point x="209" y="546" type="curve" smooth="yes"/>
      <point x="142" y="546"/>
      <point x="93" y="502"/>
      <point x="93" y="435" type="curve" smooth="yes"/>
      <point x="93" y="326"/>
      <point x="221" y="307"/>
      <point x="221" y="215" type="curve" smooth="yes"/>
      <point x="221" y="148"/>
      <point x="153" y="118"/>
      <point x="53" y="118" type="curve" smooth="yes"/>
      <point x="-14" y="118"/>
      <point x="-70" y="131"/>
      <point x="-104" y="164" type="curve"/>
      <point x="-151" y="72" type="line"/>
      <point x="-110" y="24"/>
      <point x="-44" y="-10"/>
      <point x="52" y="-10" type="curve" smooth="yes"/>
    </contour>
  </outline>
</glyph>
<glyph name="_vocRR_skt" format="2">
  <advance width="465"/>
  <unicode hex="1057"/>
  <note>
_vocRR_skt
</note>
  <outline>
    <contour>
      <point x="-74" y="170" type="curve"/>
      <point x="-123" y="74" type="line"/>
      <point x="-100" y="20"/>
      <point x="-61" y="-10"/>
      <point x="-3" y="-10" type="curve" smooth="yes"/>
      <point x="57" y="-10"/>
      <point x="103" y="30"/>
      <point x="116" y="80" type="curve"/>
      <point x="129" y="30"/>
      <point x="174" y="-10"/>
      <point x="244" y="-10" type="curve" smooth="yes"/>
      <point x="341" y="-10"/>
      <point x="405" y="67"/>
      <point x="405" y="164" type="curve" smooth="yes"/>
      <point x="405" y="300"/>
      <point x="288" y="325"/>
      <point x="288" y="393" type="curve" smooth="yes"/>
      <point x="288" y="421"/>
      <point x="308" y="437"/>
      <point x="332" y="437" type="curve" smooth="yes"/>
      <point x="360" y="437"/>
      <point x="373" y="420"/>
      <point x="382" y="402" type="curve"/>
      <point x="423" y="402" type="line"/>
      <point x="433" y="499"/>
      <point x="373" y="546"/>
      <point x="305" y="546" type="curve" smooth="yes"/>
      <point x="238" y="546"/>
      <point x="188" y="502"/>
      <point x="188" y="436" type="curve" smooth="yes"/>
      <point x="188" y="325"/>
      <point x="313" y="309"/>
      <point x="313" y="213" type="curve" smooth="yes"/>
      <point x="313" y="155"/>
      <point x="284" y="118"/>
      <point x="234" y="118" type="curve" smooth="yes"/>
      <point x="183" y="118"/>
      <point x="154" y="157"/>
      <point x="154" y="213" type="curve"/>
      <point x="78" y="213" type="line"/>
      <point x="78" y="157"/>
      <point x="50" y="118"/>
      <point x="0" y="118" type="curve" smooth="yes"/>
      <point x="-37" y="118"/>
      <point x="-61" y="133"/>
    </contour>
  </outline>
</glyph>
<glyph name="_vocLL_skt" format="2">
  <unicode hex="1059"/>
  <outline>
    <contour>
      <point x="-87" y="-349" type="curve"/>
      <point x="-148" y="-349" type="line"/>
      <point x="-151" y="-396"/>
      <point x="-173" y="-427"/>
      <point x="-216" y="-427" type="curve" smooth="yes"/>
      <point x="-260" y="-427"/>
      <point x="-285" y="-395"/>
      <point x="-285" y="-349" type="curve"/>
      <point x="-352" y="-349" type="line"/>
      <point x="-352" y="-395"/>
      <point x="-377" y="-427"/>
      <point x="-420" y="-427" type="curve" smooth="yes"/>
      <point x="-469" y="-427"/>
      <point x="-492" y="-398"/>
      <point x="-492" y="-321" type="curve" smooth="yes"/>
      <point x="-492" y="-303" type="line" smooth="yes"/>
      <point x="-492" y="-208"/>
      <point x="-419" y="-175"/>
      <point x="-313" y="-175" type="curve" smooth="yes"/>
      <point x="-231" y="-175" type="line" smooth="yes"/>
      <point x="-168" y="-175"/>
      <point x="-145" y="-191"/>
      <point x="-145" y="-214" type="curve" smooth="yes"/>
      <point x="-145" y="-238"/>
      <point x="-176" y="-246"/>
      <point x="-211" y="-246" type="curve" smooth="yes"/>
      <point x="-247" y="-246" type="line" smooth="yes"/>
      <point x="-290" y="-246"/>
      <point x="-316" y="-233"/>
      <point x="-316" y="-200" type="curve" smooth="yes"/>
      <point x="-316" y="-151" type="line"/>
      <point x="-368" y="-151" type="line"/>
      <point x="-368" y="-194" type="line" smooth="yes"/>
      <point x="-368" y="-290"/>
      <point x="-297" y="-308"/>
      <point x="-228" y="-308" type="curve" smooth="yes"/>
      <point x="-109" y="-308"/>
      <point x="-88" y="-254"/>
      <point x="-88" y="-206" type="curve" smooth="yes"/>
      <point x="-88" y="-138"/>
      <point x="-147" y="-63"/>
      <point x="-294" y="-63" type="curve" smooth="yes"/>
      <point x="-317" y="-63" type="line" smooth="yes"/>
      <point x="-401" y="-63"/>
      <point x="-461" y="-92"/>
      <point x="-499" y="-136" type="curve" smooth="yes"/>
      <point x="-537" y="-179"/>
      <point x="-553" y="-231"/>
      <point x="-553" y="-313" type="curve" smooth="yes"/>
      <point x="-553" y="-461"/>
      <point x="-515" y="-541"/>
      <point x="-423" y="-541" type="curve" smooth="yes"/>
      <point x="-370" y="-541"/>
      <point x="-330" y="-506"/>
      <point x="-319" y="-463" type="curve"/>
      <point x="-307" y="-506"/>
      <point x="-267" y="-541"/>
      <point x="-216" y="-541" type="curve" smooth="yes"/>
      <point x="-110" y="-541"/>
      <point x="-87" y="-420"/>
    </contour>
  </outline>
</glyph>
<glyph name="jha_mon" format="2">
  <advance width="826"/>
  <unicode hex="105B"/>
  <note>
Unlikely to ever take marks below.
</note>
  <outline>
    <contour>
      <point x="394" y="-329" type="line" smooth="yes"/>
      <point x="394" y="-469"/>
      <point x="448" y="-542"/>
      <point x="580" y="-542" type="curve" smooth="yes"/>
      <point x="712" y="-542"/>
      <point x="766" y="-472"/>
      <point x="766" y="-329" type="curve" smooth="yes"/>
      <point x="766" y="536" type="line"/>
      <point x="690" y="536" type="line"/>
      <point x="690" y="-300" type="line" smooth="yes"/>
      <point x="690" y="-383"/>
      <point x="659" y="-414"/>
      <point x="580" y="-414" type="curve" smooth="yes"/>
      <point x="501" y="-414"/>
      <point x="470" y="-383"/>
      <point x="470" y="-300" type="curve" smooth="yes"/>
      <point x="470" y="88" type="line"/>
      <point x="371" y="88" type="line"/>
      <point x="234" y="-328" type="line" smooth="yes"/>
      <point x="211" y="-398"/>
      <point x="187" y="-419"/>
      <point x="133" y="-413" type="curve" smooth="yes"/>
      <point x="118" y="-411"/>
      <point x="108" y="-408"/>
      <point x="93" y="-402" type="curve"/>
      <point x="54" y="-524" type="line"/>
      <point x="68" y="-530"/>
      <point x="90" y="-538"/>
      <point x="119" y="-541" type="curve" smooth="yes"/>
      <point x="200" y="-551"/>
      <point x="257" y="-507"/>
      <point x="297" y="-382" type="curve" smooth="yes"/>
      <point x="356" y="-198" type="line" smooth="yes"/>
      <point x="372" y="-149"/>
      <point x="388" y="-92"/>
      <point x="395" y="-57" type="curve"/>
      <point x="400" y="-57" type="line"/>
      <point x="396" y="-102"/>
      <point x="394" y="-151"/>
      <point x="394" y="-207" type="curve" smooth="yes"/>
    </contour>
    <component base="ja"/>
  </outline>
</glyph>
<glyph name="bbe_mon" format="2">
  <advance width="630"/>
  <unicode hex="105D"/>
  <outline>
    <contour>
      <point x="470" y="127" type="line"/>
      <point x="398" y="97" type="line"/>
      <point x="398" y="-299" type="line" smooth="yes"/>
      <point x="398" y="-360"/>
      <point x="388" y="-387"/>
      <point x="367" y="-401" type="curve" smooth="yes"/>
      <point x="344" y="-419"/>
      <point x="302" y="-421"/>
      <point x="253" y="-421" type="curve" smooth="yes"/>
      <point x="176" y="-421"/>
      <point x="116" y="-411"/>
      <point x="116" y="-356" type="curve" smooth="yes"/>
      <point x="116" y="-326"/>
      <point x="137" y="-299"/>
      <point x="191" y="-299" type="curve" smooth="yes"/>
      <point x="241" y="-299"/>
      <point x="264" y="-324"/>
      <point x="267" y="-357" type="curve"/>
      <point x="359" y="-357" type="line"/>
      <point x="354" y="-280"/>
      <point x="299" y="-234"/>
      <point x="209" y="-234" type="curve" smooth="yes"/>
      <point x="104" y="-234"/>
      <point x="55" y="-300"/>
      <point x="55" y="-385" type="curve" smooth="yes"/>
      <point x="55" y="-443"/>
      <point x="74" y="-480"/>
      <point x="99" y="-502" type="curve" smooth="yes"/>
      <point x="135" y="-535"/>
      <point x="192" y="-541"/>
      <point x="262" y="-541" type="curve" smooth="yes"/>
      <point x="339" y="-541"/>
      <point x="391" y="-533"/>
      <point x="425" y="-498" type="curve" smooth="yes"/>
      <point x="450" y="-474"/>
      <point x="470" y="-433"/>
      <point x="470" y="-332" type="curve" smooth="yes"/>
    </contour>
    <component base="ma"/>
  </outline>
</glyph>
<glyph name="_medialNa_mon" format="2">
  <unicode hex="105E"/>
  <outline>
    <contour>
      <point x="-160" y="73" type="line"/>
      <point x="-231" y="73" type="line"/>
      <point x="-231" y="-363" type="line" smooth="yes"/>
      <point x="-231" y="-405"/>
      <point x="-248" y="-426"/>
      <point x="-292" y="-426" type="curve" smooth="yes"/>
      <point x="-369" y="-426"/>
      <point x="-483" y="-382"/>
      <point x="-483" y="-324" type="curve" smooth="yes"/>
      <point x="-483" y="-275"/>
      <point x="-388" y="-255"/>
      <point x="-272" y="-255" type="curve" smooth="yes"/>
      <point x="-179" y="-255"/>
      <point x="-89" y="-279"/>
      <point x="-29" y="-307" type="curve"/>
      <point x="2" y="-205" type="line"/>
      <point x="-76" y="-167"/>
      <point x="-172" y="-145"/>
      <point x="-275" y="-145" type="curve" smooth="yes"/>
      <point x="-445" y="-145"/>
      <point x="-544" y="-206"/>
      <point x="-544" y="-321" type="curve" smooth="yes"/>
      <point x="-544" y="-444"/>
      <point x="-402" y="-542"/>
      <point x="-290" y="-542" type="curve" smooth="yes"/>
      <point x="-191" y="-542"/>
      <point x="-160" y="-462"/>
      <point x="-160" y="-401" type="curve" smooth="yes"/>
    </contour>
  </outline>
</glyph>
<glyph name="_medialMa_mon" format="2">
  <unicode hex="105F"/>
  <outline>
    <contour>
      <point x="-160" y="45" type="line"/>
      <point x="-231" y="32" type="line"/>
      <point x="-231" y="-147" type="line"/>
      <point x="-421" y="-133"/>
      <point x="-544" y="-199"/>
      <point x="-544" y="-347" type="curve" smooth="yes"/>
      <point x="-544" y="-483"/>
      <point x="-444" y="-542"/>
      <point x="-284" y="-542" type="curve" smooth="yes"/>
      <point x="-207" y="-542"/>
      <point x="-128" y="-528"/>
      <point x="-59" y="-499" type="curve"/>
      <point x="-76" y="-395" type="line"/>
      <point x="-143" y="-419"/>
      <point x="-224" y="-426"/>
      <point x="-285" y="-426" type="curve" smooth="yes"/>
      <point x="-393" y="-426"/>
      <point x="-483" y="-406"/>
      <point x="-483" y="-343" type="curve" smooth="yes"/>
      <point x="-483" y="-273"/>
      <point x="-368" y="-237"/>
      <point x="-160" y="-266" type="curve"/>
    </contour>
  </outline>
</glyph>
<glyph name="_medialLa_mon" format="2">
  <unicode hex="1060"/>
  <outline>
    <contour>
      <point x="-182" y="36" type="curve"/>
      <point x="-311" y="10" type="line"/>
      <point x="-373" y="-121"/>
      <point x="-463" y="-241"/>
      <point x="-585" y="-368" type="curve"/>
      <point x="-573" y="-479"/>
      <point x="-470" y="-542"/>
      <point x="-309" y="-542" type="curve" smooth="yes"/>
      <point x="-159" y="-542"/>
      <point x="-54" y="-487"/>
      <point x="-54" y="-344" type="curve"/>
      <point x="-112" y="-335" type="line"/>
      <point x="-137" y="-404"/>
      <point x="-209" y="-420"/>
      <point x="-296" y="-420" type="curve" smooth="yes"/>
      <point x="-394" y="-420"/>
      <point x="-463" y="-399"/>
      <point x="-489" y="-353" type="curve"/>
      <point x="-377" y="-234"/>
      <point x="-283" y="-137"/>
    </contour>
  </outline>
</glyph>
<glyph name="sha_skn" format="2">
  <advance width="635"/>
  <unicode hex="1061"/>
  <note>
Sgaw Karen does not use subjoined consonants.
</note>
  <outline>
    <contour>
      <point x="351" y="73" type="line"/>
      <point x="351" y="-299" type="line" smooth="yes"/>
      <point x="351" y="-381"/>
      <point x="327" y="-413"/>
      <point x="245" y="-413" type="curve" smooth="yes"/>
      <point x="240" y="-413" type="line"/>
      <point x="240" y="-541" type="line"/>
      <point x="247" y="-542"/>
      <point x="255" y="-542"/>
      <point x="259" y="-542" type="curve" smooth="yes"/>
      <point x="372" y="-542"/>
      <point x="427" y="-484"/>
      <point x="427" y="-331" type="curve" smooth="yes"/>
      <point x="427" y="138" type="line"/>
    </contour>
    <component base="ra.alt"/>
  </outline>
</glyph>
<glyph name="eu_skn" format="2">
  <advance width="555"/>
  <unicode hex="1062"/>
  <note>
Used in Sgaw, Khamti, Shan.
</note>
  <outline>
    <contour>
      <point x="495" y="0" type="line"/>
      <point x="495" y="396" type="line" smooth="yes"/>
      <point x="495" y="529"/>
      <point x="408" y="546"/>
      <point x="264" y="546" type="curve" smooth="yes"/>
      <point x="120" y="546"/>
      <point x="41" y="511"/>
      <point x="41" y="403" type="curve" smooth="yes"/>
      <point x="41" y="384"/>
      <point x="43" y="364"/>
      <point x="48" y="349" type="curve"/>
      <point x="101" y="349" type="line"/>
      <point x="116" y="420"/>
      <point x="167" y="426"/>
      <point x="271" y="426" type="curve" smooth="yes"/>
      <point x="376" y="426"/>
      <point x="419" y="418"/>
      <point x="419" y="330" type="curve" smooth="yes"/>
      <point x="419" y="0" type="line"/>
    </contour>
  </outline>
</glyph>
<glyph name="kepho_skn" format="2">
  <advance width="488"/>
  <unicode hex="1064"/>
  <outline>
    <contour>
      <point x="144" y="546" type="curve" smooth="yes"/>
      <point x="101" y="546"/>
      <point x="66" y="540"/>
      <point x="41" y="531" type="curve"/>
      <point x="41" y="418" type="line"/>
      <point x="129" y="418" type="line" smooth="yes"/>
      <point x="183" y="418"/>
      <point x="210" y="396"/>
      <point x="210" y="331" type="curve" smooth="yes"/>
      <point x="210" y="142" type="line" smooth="yes"/>
      <point x="210" y="43"/>
      <point x="257" y="-10"/>
      <point x="344" y="-10" type="curve" smooth="yes"/>
      <point x="387" y="-10"/>
      <point x="422" y="-4"/>
      <point x="447" y="5" type="curve"/>
      <point x="447" y="118" type="line"/>
      <point x="359" y="118" type="line" smooth="yes"/>
      <point x="305" y="118"/>
      <point x="278" y="140"/>
      <point x="278" y="205" type="curve" smooth="yes"/>
      <point x="278" y="394" type="line" smooth="yes"/>
      <point x="278" y="493"/>
      <point x="231" y="546"/>
    </contour>
  </outline>
</glyph>
<glyph name="pwa_wpk" format="2">
  <advance width="630"/>
  <unicode hex="1066"/>
  <outline>
    <contour>
      <point x="575" y="-348" type="curve" smooth="yes"/>
      <point x="575" y="267" type="line"/>
      <point x="501" y="73" type="line"/>
      <point x="501" y="-313" type="line" smooth="yes"/>
      <point x="501" y="-393"/>
      <point x="460" y="-417"/>
      <point x="402" y="-417" type="curve" smooth="yes"/>
      <point x="347" y="-417"/>
      <point x="313" y="-395"/>
      <point x="310" y="-357" type="curve"/>
      <point x="243" y="-357" type="line"/>
      <point x="242" y="-365"/>
      <point x="242" y="-375"/>
      <point x="242" y="-383" type="curve" smooth="yes"/>
      <point x="242" y="-489"/>
      <point x="312" y="-542"/>
      <point x="409" y="-542" type="curve" smooth="yes"/>
      <point x="522" y="-542"/>
      <point x="575" y="-461"/>
    </contour>
    <component base="pa"/>
  </outline>
</glyph>
<glyph name="eu_wpk" format="2">
  <advance width="407"/>
  <unicode hex="1067"/>
  <outline>
    <contour>
      <point x="347" y="536" type="line"/>
      <point x="271" y="536" type="line"/>
      <point x="271" y="213" type="line"/>
      <point x="334" y="140" type="line"/>
      <point x="334" y="232"/>
      <point x="280" y="282"/>
      <point x="193" y="282" type="curve" smooth="yes"/>
      <point x="106" y="282"/>
      <point x="50" y="232"/>
      <point x="50" y="140" type="curve" smooth="yes"/>
      <point x="50" y="43"/>
      <point x="103" y="-10"/>
      <point x="202" y="-10" type="curve" smooth="yes"/>
      <point x="302" y="-10"/>
      <point x="347" y="56"/>
      <point x="347" y="130" type="curve" smooth="yes"/>
    </contour>
    <contour>
      <point x="196" y="98" type="curve" smooth="yes"/>
      <point x="141" y="98"/>
      <point x="117" y="121"/>
      <point x="117" y="152" type="curve" smooth="yes"/>
      <point x="117" y="182"/>
      <point x="141" y="204"/>
      <point x="196" y="204" type="curve" smooth="yes"/>
      <point x="251" y="204"/>
      <point x="275" y="182"/>
      <point x="275" y="152" type="curve" smooth="yes"/>
      <point x="275" y="121"/>
      <point x="251" y="98"/>
    </contour>
  </outline>
</glyph>
<glyph name="tone1_wpk" format="2">
  <advance width="426"/>
  <unicode hex="1069"/>
  <outline>
    <contour>
      <point x="361" y="173" type="curve"/>
      <point x="305" y="173" type="line"/>
      <point x="305" y="164" type="line" smooth="yes"/>
      <point x="305" y="121"/>
      <point x="268" y="98"/>
      <point x="213" y="98" type="curve" smooth="yes"/>
      <point x="158" y="98"/>
      <point x="132" y="121"/>
      <point x="132" y="152" type="curve" smooth="yes"/>
      <point x="132" y="190"/>
      <point x="175" y="211"/>
      <point x="224" y="236" type="curve" smooth="yes"/>
      <point x="306" y="278"/>
      <point x="369" y="316"/>
      <point x="369" y="407" type="curve" smooth="yes"/>
      <point x="369" y="485"/>
      <point x="324" y="546"/>
      <point x="218" y="546" type="curve" smooth="yes"/>
      <point x="120" y="546"/>
      <point x="63" y="493"/>
      <point x="63" y="408" type="curve" smooth="yes"/>
      <point x="63" y="385"/>
      <point x="63" y="375"/>
      <point x="65" y="363" type="curve"/>
      <point x="121" y="363" type="line"/>
      <point x="121" y="372" type="line" smooth="yes"/>
      <point x="121" y="415"/>
      <point x="158" y="438"/>
      <point x="213" y="438" type="curve" smooth="yes"/>
      <point x="268" y="438"/>
      <point x="294" y="415"/>
      <point x="294" y="384" type="curve" smooth="yes"/>
      <point x="294" y="346"/>
      <point x="251" y="325"/>
      <point x="202" y="300" type="curve" smooth="yes"/>
      <point x="120" y="258"/>
      <point x="57" y="220"/>
      <point x="57" y="129" type="curve" smooth="yes"/>
      <point x="57" y="51"/>
      <point x="102" y="-10"/>
      <point x="208" y="-10" type="curve" smooth="yes"/>
      <point x="306" y="-10"/>
      <point x="363" y="43"/>
      <point x="363" y="128" type="curve" smooth="yes"/>
      <point x="363" y="151"/>
      <point x="363" y="161"/>
    </contour>
  </outline>
</glyph>
<glyph name="tone3_wpk" format="2">
  <advance width="421"/>
  <unicode hex="106B"/>
  <outline>
    <contour>
      <point x="361" y="0" type="line"/>
      <point x="361" y="349" type="line" smooth="yes"/>
      <point x="361" y="485"/>
      <point x="306" y="546"/>
      <point x="202" y="546" type="curve" smooth="yes"/>
      <point x="90" y="546"/>
      <point x="39" y="474"/>
      <point x="39" y="378" type="curve" smooth="yes"/>
      <point x="39" y="373"/>
      <point x="39" y="367"/>
      <point x="40" y="358" type="curve"/>
      <point x="101" y="358" type="line"/>
      <point x="113" y="400"/>
      <point x="144" y="423"/>
      <point x="196" y="423" type="curve" smooth="yes"/>
      <point x="252" y="423"/>
      <point x="285" y="396"/>
      <point x="285" y="330" type="curve" smooth="yes"/>
      <point x="285" y="0" type="line"/>
    </contour>
  </outline>
</glyph>
<glyph name="tone5_wpk" format="2">
  <advance width="420"/>
  <unicode hex="106D"/>
  <outline>
    <contour>
      <point x="211" y="546" type="curve" smooth="yes"/>
      <point x="107" y="546"/>
      <point x="62" y="480"/>
      <point x="62" y="406" type="curve" smooth="yes"/>
      <point x="62" y="317"/>
      <point x="113" y="277"/>
      <point x="197" y="236" type="curve" smooth="yes"/>
      <point x="250" y="210"/>
      <point x="288" y="189"/>
      <point x="288" y="151" type="curve" smooth="yes"/>
      <point x="288" y="121"/>
      <point x="261" y="98"/>
      <point x="206" y="98" type="curve" smooth="yes"/>
      <point x="152" y="98"/>
      <point x="115" y="121"/>
      <point x="115" y="164" type="curve" smooth="yes"/>
      <point x="115" y="173" type="line"/>
      <point x="59" y="173" type="line"/>
      <point x="57" y="161"/>
      <point x="57" y="151"/>
      <point x="57" y="128" type="curve" smooth="yes"/>
      <point x="57" y="43"/>
      <point x="113" y="-10"/>
      <point x="214" y="-10" type="curve" smooth="yes"/>
      <point x="318" y="-10"/>
      <point x="363" y="55"/>
      <point x="363" y="124" type="curve" smooth="yes"/>
      <point x="363" y="218"/>
      <point x="307" y="256"/>
      <point x="219" y="300" type="curve"/>
      <point x="216" y="254" type="line"/>
      <point x="303" y="254"/>
      <point x="359" y="304"/>
      <point x="359" y="396" type="curve" smooth="yes"/>
      <point x="359" y="493"/>
      <point x="306" y="546"/>
    </contour>
    <contour>
      <point x="213" y="332" type="curve" smooth="yes"/>
      <point x="158" y="332"/>
      <point x="134" y="354"/>
      <point x="134" y="384" type="curve" smooth="yes"/>
      <point x="134" y="415"/>
      <point x="158" y="438"/>
      <point x="213" y="438" type="curve" smooth="yes"/>
      <point x="268" y="438"/>
      <point x="292" y="415"/>
      <point x="292" y="384" type="curve" smooth="yes"/>
      <point x="292" y="354"/>
      <point x="268" y="332"/>
    </contour>
  </outline>
</glyph>
<glyph name="nna_epk" format="2">
  <advance width="1206"/>
  <unicode hex="106E"/>
  <note>
Also used in Thai Mon.
</note>
  <outline>
    <contour>
      <point x="559" y="342" type="line"/>
      <point x="557" y="395"/>
      <point x="587" y="418"/>
      <point x="624" y="418" type="curve" smooth="yes"/>
      <point x="658" y="418"/>
      <point x="685" y="397"/>
      <point x="696" y="343" type="curve" smooth="yes"/>
      <point x="705" y="306"/>
      <point x="704" y="234"/>
      <point x="696" y="195" type="curve" smooth="yes"/>
      <point x="685" y="143"/>
      <point x="657" y="123"/>
      <point x="624" y="118" type="curve"/>
      <point x="624" y="-10" type="line"/>
      <point x="699" y="-5"/>
      <point x="746" y="60"/>
      <point x="762" y="166" type="curve" smooth="yes"/>
      <point x="770" y="224"/>
      <point x="772" y="305"/>
      <point x="764" y="370" type="curve" smooth="yes"/>
      <point x="751" y="487"/>
      <point x="704" y="546"/>
      <point x="624" y="546" type="curve" smooth="yes"/>
      <point x="536" y="546"/>
      <point x="483" y="486"/>
      <point x="483" y="374" type="curve"/>
    </contour>
    <component base="_aa" xOffset="811"/>
    <component base="ga"/>
  </outline>
</glyph>
<glyph name="ywa_epk" format="2">
  <advance width="1025"/>
  <unicode hex="106F"/>
  <outline>
    <contour>
      <point x="499" y="73" type="line"/>
      <point x="499" y="-299" type="line" smooth="yes"/>
      <point x="499" y="-381"/>
      <point x="475" y="-413"/>
      <point x="393" y="-413" type="curve" smooth="yes"/>
      <point x="388" y="-413" type="line"/>
      <point x="388" y="-541" type="line"/>
      <point x="395" y="-542"/>
      <point x="403" y="-542"/>
      <point x="407" y="-542" type="curve" smooth="yes"/>
      <point x="520" y="-542"/>
      <point x="575" y="-484"/>
      <point x="575" y="-331" type="curve" smooth="yes"/>
      <point x="575" y="268" type="line"/>
    </contour>
    <component base="ha"/>
  </outline>
</glyph>
<glyph name="ghwa_epk" format="2">
  <advance width="1026"/>
  <unicode hex="1070"/>
  <outline>
    <contour>
      <point x="474" y="73" type="line"/>
      <point x="474" y="-299" type="line" smooth="yes"/>
      <point x="474" y="-381"/>
      <point x="450" y="-413"/>
      <point x="368" y="-413" type="curve" smooth="yes"/>
      <point x="363" y="-413" type="line"/>
      <point x="363" y="-541" type="line"/>
      <point x="370" y="-542"/>
      <point x="378" y="-542"/>
      <point x="382" y="-542" type="curve" smooth="yes"/>
      <point x="495" y="-542"/>
      <point x="550" y="-484"/>
      <point x="550" y="-331" type="curve" smooth="yes"/>
      <point x="550" y="73" type="line"/>
    </contour>
    <component base="gha"/>
  </outline>
</glyph>
<glyph name="u_kyh" format="2">
  <unicode hex="1073"/>
  <outline>
    <contour>
      <point x="-174" y="644" type="line"/>
      <point x="-55" y="687" type="line"/>
      <point x="-276" y="903" type="line"/>
      <point x="-354" y="903" type="line"/>
      <point x="-575" y="687" type="line"/>
      <point x="-456" y="644" type="line"/>
      <point x="-315" y="847" type="line"/>
    </contour>
  </outline>
</glyph>
<glyph name="kha_shn" format="2">
  <advance width="627"/>
  <unicode hex="1076"/>
  <outline>
    <contour>
      <point x="132" y="546" type="curve"/>
      <point x="74" y="546" type="line"/>
      <point x="62" y="533"/>
      <point x="54" y="505"/>
      <point x="54" y="478" type="curve" smooth="yes"/>
      <point x="54" y="423"/>
      <point x="89" y="370"/>
      <point x="167" y="370" type="curve" smooth="yes"/>
      <point x="249" y="370"/>
      <point x="296" y="419"/>
      <point x="381" y="419" type="curve" smooth="yes"/>
      <point x="439" y="419"/>
      <point x="506" y="380"/>
      <point x="506" y="273" type="curve" smooth="yes"/>
      <point x="506" y="263" type="line" smooth="yes"/>
      <point x="506" y="156"/>
      <point x="426" y="118"/>
      <point x="312" y="118" type="curve" smooth="yes"/>
      <point x="219" y="118" type="line" smooth="yes"/>
      <point x="146" y="118"/>
      <point x="119" y="137"/>
      <point x="119" y="165" type="curve" smooth="yes"/>
      <point x="119" y="195"/>
      <point x="155" y="205"/>
      <point x="196" y="205" type="curve" smooth="yes"/>
      <point x="237" y="205" type="line" smooth="yes"/>
      <point x="287" y="205"/>
      <point x="317" y="189"/>
      <point x="317" y="149" type="curve" smooth="yes"/>
      <point x="317" y="92" type="line"/>
      <point x="374" y="92" type="line"/>
      <point x="374" y="142" type="line" smooth="yes"/>
      <point x="374" y="252"/>
      <point x="294" y="272"/>
      <point x="216" y="272" type="curve" smooth="yes"/>
      <point x="80" y="272"/>
      <point x="56" y="207"/>
      <point x="56" y="152" type="curve" smooth="yes"/>
      <point x="56" y="72"/>
      <point x="124" y="-10"/>
      <point x="290" y="-10" type="curve" smooth="yes"/>
      <point x="301" y="-10" type="line" smooth="yes"/>
      <point x="400" y="-10"/>
      <point x="474" y="18"/>
      <point x="519" y="77" type="curve" smooth="yes"/>
      <point x="554" y="122"/>
      <point x="572" y="185"/>
      <point x="572" y="267" type="curve" smooth="yes"/>
      <point x="572" y="416"/>
      <point x="493" y="546"/>
      <point x="362" y="546" type="curve" smooth="yes"/>
      <point x="271" y="546"/>
      <point x="230" y="478"/>
      <point x="176" y="478" type="curve" smooth="yes"/>
      <point x="144" y="478"/>
      <point x="126" y="500"/>
    </contour>
  </outline>
</glyph>
<glyph name="ga_shn" format="2">
  <advance width="631"/>
  <unicode hex="1077"/>
  <note>
ga_shn
</note>
  <outline>
    <contour>
      <point x="296" y="546" type="line" smooth="yes"/>
      <point x="146" y="546"/>
      <point x="56" y="472"/>
      <point x="56" y="364" type="curve" smooth="yes"/>
      <point x="56" y="239"/>
      <point x="176" y="210"/>
      <point x="176" y="143" type="curve" smooth="yes"/>
      <point x="176" y="115"/>
      <point x="157" y="99"/>
      <point x="132" y="99" type="curve" smooth="yes"/>
      <point x="105" y="99"/>
      <point x="92" y="116"/>
      <point x="83" y="134" type="curve"/>
      <point x="42" y="134" type="line"/>
      <point x="32" y="37"/>
      <point x="92" y="-10"/>
      <point x="160" y="-10" type="curve" smooth="yes"/>
      <point x="227" y="-10"/>
      <point x="276" y="34"/>
      <point x="276" y="101" type="curve" smooth="yes"/>
      <point x="276" y="210"/>
      <point x="148" y="229"/>
      <point x="148" y="321" type="curve" smooth="yes"/>
      <point x="148" y="388"/>
      <point x="216" y="418"/>
      <point x="316" y="418" type="curve" smooth="yes"/>
      <point x="430" y="418"/>
      <point x="510" y="380"/>
      <point x="510" y="266" type="curve" smooth="yes"/>
      <point x="510" y="256" type="line" smooth="yes"/>
      <point x="510" y="194"/>
      <point x="479" y="118"/>
      <point x="433" y="118" type="curve" smooth="yes"/>
      <point x="396" y="118"/>
      <point x="389" y="157"/>
      <point x="389" y="190" type="curve" smooth="yes"/>
      <point x="389" y="274"/>
      <point x="445" y="345"/>
      <point x="503" y="360" type="curve"/>
      <point x="503" y="422" type="line"/>
      <point x="411" y="413"/>
      <point x="326" y="328"/>
      <point x="326" y="160" type="curve" smooth="yes"/>
      <point x="326" y="53"/>
      <point x="360" y="-10"/>
      <point x="426" y="-10" type="curve" smooth="yes"/>
      <point x="529" y="-10"/>
      <point x="576" y="141"/>
      <point x="576" y="269" type="curve" smooth="yes"/>
      <point x="576" y="347"/>
      <point x="562" y="413"/>
      <point x="520" y="464" type="curve" smooth="yes"/>
      <point x="481" y="512"/>
      <point x="418" y="546"/>
      <point x="326" y="546" type="curve" smooth="yes"/>
    </contour>
  </outline>
</glyph>
<glyph name="na_shn" format="2">
  <advance width="1058"/>
  <unicode hex="107C"/>
  <note>
na_shn
</note>
  <outline>
    <contour>
      <point x="1000" y="323" type="line"/>
      <point x="1000" y="452"/>
      <point x="919" y="546"/>
      <point x="777" y="546" type="curve" smooth="yes"/>
      <point x="622" y="546"/>
      <point x="557" y="435"/>
      <point x="557" y="266" type="curve" smooth="yes"/>
      <point x="557" y="86"/>
      <point x="630" y="-10"/>
      <point x="791" y="-10" type="curve" smooth="yes"/>
      <point x="927" y="-10"/>
      <point x="979" y="58"/>
      <point x="979" y="144" type="curve" smooth="yes"/>
      <point x="979" y="231"/>
      <point x="925" y="272"/>
      <point x="811" y="288" type="curve" smooth="yes"/>
      <point x="733" y="299"/>
      <point x="613" y="300"/>
      <point x="529" y="300" type="curve" smooth="yes"/>
      <point x="445" y="300"/>
      <point x="325" y="299"/>
      <point x="247" y="288" type="curve" smooth="yes"/>
      <point x="133" y="272"/>
      <point x="79" y="231"/>
      <point x="79" y="144" type="curve" smooth="yes"/>
      <point x="79" y="58"/>
      <point x="131" y="-10"/>
      <point x="267" y="-10" type="curve" smooth="yes"/>
      <point x="428" y="-10"/>
      <point x="501" y="86"/>
      <point x="501" y="266" type="curve" smooth="yes"/>
      <point x="501" y="435"/>
      <point x="436" y="546"/>
      <point x="281" y="546" type="curve" smooth="yes"/>
      <point x="139" y="546"/>
      <point x="58" y="452"/>
      <point x="58" y="323" type="curve"/>
      <point x="123" y="323" type="line"/>
      <point x="129" y="381"/>
      <point x="188" y="419"/>
      <point x="278" y="419" type="curve" smooth="yes"/>
      <point x="373" y="419"/>
      <point x="436" y="377"/>
      <point x="436" y="274" type="curve" smooth="yes"/>
      <point x="436" y="261" type="line" smooth="yes"/>
      <point x="436" y="158"/>
      <point x="374" y="117"/>
      <point x="254" y="117" type="curve" smooth="yes"/>
      <point x="188" y="117"/>
      <point x="153" y="129"/>
      <point x="153" y="164" type="curve" smooth="yes"/>
      <point x="153" y="198"/>
      <point x="187" y="216"/>
      <point x="252" y="224" type="curve" smooth="yes"/>
      <point x="290" y="229"/>
      <point x="392" y="235"/>
      <point x="529" y="235" type="curve" smooth="yes"/>
      <point x="666" y="235"/>
      <point x="768" y="229"/>
      <point x="806" y="224" type="curve" smooth="yes"/>
      <point x="871" y="216"/>
      <point x="905" y="198"/>
      <point x="905" y="164" type="curve" smooth="yes"/>
      <point x="905" y="129"/>
      <point x="870" y="117"/>
      <point x="804" y="117" type="curve" smooth="yes"/>
      <point x="684" y="117"/>
      <point x="622" y="158"/>
      <point x="622" y="261" type="curve" smooth="yes"/>
      <point x="622" y="274" type="line" smooth="yes"/>
      <point x="622" y="377"/>
      <point x="685" y="419"/>
      <point x="780" y="419" type="curve" smooth="yes"/>
      <point x="870" y="419"/>
      <point x="929" y="381"/>
      <point x="935" y="323" type="curve"/>
    </contour>
  </outline>
</glyph>
<glyph name="tha_shn" format="2">
  <advance width="1025"/>
  <unicode hex="1080"/>
  <note>
tha_shn
</note>
  <outline>
    <contour>
      <point x="58" y="323" type="curve"/>
      <point x="124" y="323" type="line"/>
      <point x="132" y="381"/>
      <point x="201" y="418"/>
      <point x="315" y="418" type="curve" smooth="yes"/>
      <point x="429" y="418"/>
      <point x="509" y="380"/>
      <point x="509" y="273" type="curve" smooth="yes"/>
      <point x="509" y="263" type="line" smooth="yes"/>
      <point x="509" y="156"/>
      <point x="429" y="118"/>
      <point x="315" y="118" type="curve" smooth="yes"/>
      <point x="222" y="118" type="line" smooth="yes"/>
      <point x="149" y="118"/>
      <point x="122" y="137"/>
      <point x="122" y="165" type="curve" smooth="yes"/>
      <point x="122" y="195"/>
      <point x="158" y="205"/>
      <point x="199" y="205" type="curve" smooth="yes"/>
      <point x="240" y="205" type="line" smooth="yes"/>
      <point x="290" y="205"/>
      <point x="320" y="189"/>
      <point x="320" y="149" type="curve" smooth="yes"/>
      <point x="320" y="92" type="line"/>
      <point x="377" y="92" type="line"/>
      <point x="377" y="142" type="line" smooth="yes"/>
      <point x="377" y="252"/>
      <point x="297" y="272"/>
      <point x="219" y="272" type="curve" smooth="yes"/>
      <point x="83" y="272"/>
      <point x="59" y="207"/>
      <point x="59" y="152" type="curve" smooth="yes"/>
      <point x="59" y="72"/>
      <point x="127" y="-10"/>
      <point x="293" y="-10" type="curve" smooth="yes"/>
      <point x="304" y="-10" type="line" smooth="yes"/>
      <point x="403" y="-10"/>
      <point x="477" y="18"/>
      <point x="522" y="77" type="curve" smooth="yes"/>
      <point x="557" y="122"/>
      <point x="575" y="185"/>
      <point x="575" y="267" type="curve" smooth="yes"/>
      <point x="575" y="345"/>
      <point x="556" y="410"/>
      <point x="521" y="457" type="curve" smooth="yes"/>
      <point x="479" y="514"/>
      <point x="412" y="546"/>
      <point x="325" y="546" type="curve" smooth="yes"/>
      <point x="305" y="546" type="line" smooth="yes"/>
      <point x="117" y="546"/>
      <point x="58" y="406"/>
    </contour>
    <contour>
      <point x="506" y="72" type="line"/>
      <point x="543" y="24"/>
      <point x="611" y="-10"/>
      <point x="700" y="-10" type="curve" smooth="yes"/>
      <point x="720" y="-10" type="line" smooth="yes"/>
      <point x="809" y="-10"/>
      <point x="877" y="24"/>
      <point x="918" y="77" type="curve" smooth="yes"/>
      <point x="955" y="124"/>
      <point x="970" y="185"/>
      <point x="970" y="268" type="curve" smooth="yes"/>
      <point x="970" y="351"/>
      <point x="955" y="412"/>
      <point x="918" y="459" type="curve" smooth="yes"/>
      <point x="877" y="512"/>
      <point x="809" y="546"/>
      <point x="714" y="546" type="curve" smooth="yes"/>
      <point x="693" y="546"/>
      <point x="673" y="545"/>
      <point x="657" y="543" type="curve"/>
      <point x="657" y="418" type="line"/>
      <point x="710" y="418" type="line" smooth="yes"/>
      <point x="824" y="418"/>
      <point x="904" y="380"/>
      <point x="904" y="273" type="curve" smooth="yes"/>
      <point x="904" y="263" type="line" smooth="yes"/>
      <point x="904" y="156"/>
      <point x="824" y="118"/>
      <point x="710" y="118" type="curve" smooth="yes"/>
      <point x="643" y="118"/>
      <point x="588" y="131"/>
      <point x="554" y="164" type="curve"/>
    </contour>
  </outline>
</glyph>
<glyph name="ha_shn" format="2">
  <advance width="630"/>
  <unicode hex="1081"/>
  <outline>
    <contour>
      <point x="554" y="170" type="line"/>
      <point x="561" y="191"/>
      <point x="575" y="242"/>
      <point x="575" y="294" type="curve" smooth="yes"/>
      <point x="575" y="347"/>
      <point x="561" y="413"/>
      <point x="519" y="464" type="curve" smooth="yes"/>
      <point x="480" y="512"/>
      <point x="417" y="546"/>
      <point x="325" y="546" type="curve" smooth="yes"/>
      <point x="305" y="546" type="line" smooth="yes"/>
      <point x="213" y="546"/>
      <point x="150" y="512"/>
      <point x="111" y="464" type="curve" smooth="yes"/>
      <point x="69" y="413"/>
      <point x="55" y="347"/>
      <point x="55" y="269" type="curve" smooth="yes"/>
      <point x="55" y="190"/>
      <point x="69" y="124"/>
      <point x="111" y="70" type="curve" smooth="yes"/>
      <point x="148" y="22"/>
      <point x="202" y="-10"/>
      <point x="272" y="-10" type="curve" smooth="yes"/>
      <point x="304" y="-10"/>
      <point x="331" y="-2"/>
      <point x="352" y="11" type="curve"/>
      <point x="307" y="38" type="line"/>
      <point x="186" y="-328" type="line" smooth="yes"/>
      <point x="164" y="-395"/>
      <point x="143" y="-414"/>
      <point x="98" y="-414" type="curve" smooth="yes"/>
      <point x="85" y="-414"/>
      <point x="68" y="-412"/>
      <point x="50" y="-404" type="curve"/>
      <point x="11" y="-524" type="line"/>
      <point x="27" y="-534"/>
      <point x="52" y="-542"/>
      <point x="87" y="-542" type="curve" smooth="yes"/>
      <point x="159" y="-542"/>
      <point x="209" y="-502"/>
      <point x="247" y="-387" type="curve" smooth="yes"/>
      <point x="386" y="32" type="line" smooth="yes"/>
      <point x="400" y="75"/>
      <point x="406" y="102"/>
      <point x="406" y="120" type="curve" smooth="yes"/>
      <point x="406" y="199"/>
      <point x="356" y="252"/>
      <point x="272" y="252" type="curve" smooth="yes"/>
      <point x="188" y="252"/>
      <point x="138" y="199"/>
      <point x="138" y="120" type="curve" smooth="yes"/>
      <point x="138" y="43"/>
      <point x="188" y="-5"/>
      <point x="272" y="-5" type="curve"/>
      <point x="272" y="44" type="line"/>
      <point x="174" y="64"/>
      <point x="121" y="146"/>
      <point x="121" y="252" type="curve" smooth="yes"/>
      <point x="121" y="380"/>
      <point x="201" y="418"/>
      <point x="315" y="418" type="curve" smooth="yes"/>
      <point x="429" y="418"/>
      <point x="509" y="380"/>
      <point x="509" y="252" type="curve" smooth="yes"/>
      <point x="509" y="224"/>
      <point x="505" y="199"/>
      <point x="499" y="170" type="curve"/>
    </contour>
    <contour>
      <point x="272" y="68" type="curve" smooth="yes"/>
      <point x="217" y="68"/>
      <point x="193" y="90"/>
      <point x="193" y="120" type="curve" smooth="yes"/>
      <point x="193" y="151"/>
      <point x="217" y="174"/>
      <point x="272" y="174" type="curve" smooth="yes"/>
      <point x="327" y="174"/>
      <point x="351" y="151"/>
      <point x="351" y="120" type="curve" smooth="yes"/>
      <point x="351" y="90"/>
      <point x="327" y="68"/>
    </contour>
  </outline>
</glyph>
<glyph name="aa_shn" format="2">
  <advance width="343"/>
  <unicode hex="1083"/>
  <outline>
    <contour>
      <point x="283" y="348" type="line" smooth="yes"/>
      <point x="283" y="481"/>
      <point x="234" y="546"/>
      <point x="105" y="546" type="curve" smooth="yes"/>
      <point x="68" y="546"/>
      <point x="35" y="541"/>
      <point x="15" y="533" type="curve"/>
      <point x="15" y="408" type="line"/>
      <point x="34" y="413"/>
      <point x="62" y="419"/>
      <point x="102" y="419" type="curve" smooth="yes"/>
      <point x="174" y="419"/>
      <point x="207" y="390"/>
      <point x="207" y="317" type="curve" smooth="yes"/>
      <point x="207" y="-342" type="line" smooth="yes"/>
      <point x="207" y="-481"/>
      <point x="257" y="-542"/>
      <point x="381" y="-542" type="curve" smooth="yes"/>
      <point x="395" y="-542"/>
      <point x="412" y="-542"/>
      <point x="425" y="-539" type="curve"/>
      <point x="425" y="-410" type="line"/>
      <point x="413" y="-412"/>
      <point x="401" y="-413"/>
      <point x="385" y="-413" type="curve" smooth="yes"/>
      <point x="316" y="-413"/>
      <point x="283" y="-388"/>
      <point x="283" y="-311" type="curve" smooth="yes"/>
    </contour>
  </outline>
</glyph>
<glyph name="_final_y_shn" format="2">
  <unicode hex="1086"/>
  <note>
Renamed from _f_above_shn
</note>
  <outline>
    <contour>
      <point x="-134" y="865" type="curve"/>
      <point x="-198" y="879" type="line"/>
      <point x="-219" y="788"/>
      <point x="-280" y="714"/>
      <point x="-351" y="654" type="curve"/>
      <point x="-300" y="599" type="line"/>
      <point x="-187" y="680"/>
      <point x="-113" y="803"/>
      <point x="-113" y="931" type="curve" smooth="yes"/>
      <point x="-113" y="1020"/>
      <point x="-163" y="1078"/>
      <point x="-247" y="1078" type="curve" smooth="yes"/>
      <point x="-331" y="1078"/>
      <point x="-381" y="1025"/>
      <point x="-381" y="946" type="curve" smooth="yes"/>
      <point x="-381" y="869"/>
      <point x="-331" y="816"/>
      <point x="-247" y="816" type="curve" smooth="yes"/>
      <point x="-195" y="816"/>
      <point x="-157" y="834"/>
    </contour>
    <contour>
      <point x="-247" y="894" type="curve" smooth="yes"/>
      <point x="-302" y="894"/>
      <point x="-326" y="916"/>
      <point x="-326" y="946" type="curve" smooth="yes"/>
      <point x="-326" y="977"/>
      <point x="-302" y="1000"/>
      <point x="-247" y="1000" type="curve" smooth="yes"/>
      <point x="-192" y="1000"/>
      <point x="-168" y="977"/>
      <point x="-168" y="946" type="curve" smooth="yes"/>
      <point x="-168" y="916"/>
      <point x="-192" y="894"/>
    </contour>
  </outline>
</glyph>
<glyph name="tone2_shn" format="2">
  <advance width="390"/>
  <unicode hex="1087"/>
  <outline>
    <contour>
      <point x="137" y="-222" type="line"/>
      <point x="269" y="-132"/>
      <point x="329" y="-22"/>
      <point x="329" y="110" type="curve" smooth="yes"/>
      <point x="329" y="206"/>
      <point x="279" y="252"/>
      <point x="197" y="252" type="curve" smooth="yes"/>
      <point x="111" y="252"/>
      <point x="61" y="199"/>
      <point x="61" y="122" type="curve" smooth="yes"/>
      <point x="61" y="34"/>
      <point x="123" y="-5"/>
      <point x="186" y="-5" type="curve" smooth="yes"/>
      <point x="230" y="-5"/>
      <point x="271" y="11"/>
      <point x="297" y="34" type="curve"/>
      <point x="245" y="57" type="line"/>
      <point x="226" y="-19"/>
      <point x="199" y="-91"/>
      <point x="91" y="-172" type="curve"/>
    </contour>
    <contour>
      <point x="195" y="68" type="curve" smooth="yes"/>
      <point x="140" y="68"/>
      <point x="116" y="90"/>
      <point x="116" y="120" type="curve" smooth="yes"/>
      <point x="116" y="151"/>
      <point x="140" y="174"/>
      <point x="195" y="174" type="curve" smooth="yes"/>
      <point x="250" y="174"/>
      <point x="274" y="151"/>
      <point x="274" y="120" type="curve" smooth="yes"/>
      <point x="274" y="90"/>
      <point x="250" y="68"/>
    </contour>
  </outline>
</glyph>
<glyph name="tone6_shn" format="2">
  <advance width="558"/>
  <unicode hex="108A"/>
  <outline>
    <contour>
      <point x="238" y="352" type="curve"/>
      <point x="296" y="323" type="line"/>
      <point x="317" y="346"/>
      <point x="329" y="377"/>
      <point x="329" y="414" type="curve" smooth="yes"/>
      <point x="329" y="493"/>
      <point x="279" y="546"/>
      <point x="195" y="546" type="curve" smooth="yes"/>
      <point x="111" y="546"/>
      <point x="61" y="493"/>
      <point x="61" y="415" type="curve" smooth="yes"/>
      <point x="61" y="337"/>
      <point x="109" y="284"/>
      <point x="234" y="284" type="curve" smooth="yes"/>
      <point x="331" y="284"/>
      <point x="447" y="316"/>
      <point x="528" y="436" type="curve"/>
      <point x="473" y="477" type="line"/>
      <point x="403" y="377"/>
      <point x="295" y="352"/>
    </contour>
    <contour>
      <point x="195" y="362" type="curve" smooth="yes"/>
      <point x="140" y="362"/>
      <point x="116" y="384"/>
      <point x="116" y="414" type="curve" smooth="yes"/>
      <point x="116" y="445"/>
      <point x="140" y="468"/>
      <point x="195" y="468" type="curve" smooth="yes"/>
      <point x="250" y="468"/>
      <point x="274" y="445"/>
      <point x="274" y="414" type="curve" smooth="yes"/>
      <point x="274" y="384"/>
      <point x="250" y="362"/>
    </contour>
    <contour>
      <point x="238" y="58" type="curve"/>
      <point x="296" y="29" type="line"/>
      <point x="317" y="52"/>
      <point x="329" y="83"/>
      <point x="329" y="121" type="curve" smooth="yes"/>
      <point x="329" y="199"/>
      <point x="279" y="252"/>
      <point x="195" y="252" type="curve" smooth="yes"/>
      <point x="111" y="252"/>
      <point x="61" y="199"/>
      <point x="61" y="122" type="curve" smooth="yes"/>
      <point x="61" y="43"/>
      <point x="109" y="-10"/>
      <point x="234" y="-10" type="curve" smooth="yes"/>
      <point x="331" y="-10"/>
      <point x="447" y="22"/>
      <point x="528" y="142" type="curve"/>
      <point x="473" y="183" type="line"/>
      <point x="403" y="83"/>
      <point x="295" y="58"/>
    </contour>
    <contour>
      <point x="195" y="68" type="curve" smooth="yes"/>
      <point x="140" y="68"/>
      <point x="116" y="90"/>
      <point x="116" y="120" type="curve" smooth="yes"/>
      <point x="116" y="151"/>
      <point x="140" y="174"/>
      <point x="195" y="174" type="curve" smooth="yes"/>
      <point x="250" y="174"/>
      <point x="274" y="151"/>
      <point x="274" y="120" type="curve" smooth="yes"/>
      <point x="274" y="90"/>
      <point x="250" y="68"/>
    </contour>
  </outline>
</glyph>
<glyph name="zero_shn" format="2">
  <advance width="640"/>
  <unicode hex="1090"/>
  <outline>
    <contour>
      <point x="580" y="268" type="line" smooth="yes"/>
      <point x="580" y="351"/>
      <point x="565" y="412"/>
      <point x="528" y="459" type="curve" smooth="yes"/>
      <point x="487" y="512"/>
      <point x="419" y="546"/>
      <point x="330" y="546" type="curve" smooth="yes"/>
      <point x="310" y="546" type="line" smooth="yes"/>
      <point x="221" y="546"/>
      <point x="153" y="512"/>
      <point x="112" y="459" type="curve" smooth="yes"/>
      <point x="75" y="412"/>
      <point x="60" y="351"/>
      <point x="60" y="268" type="curve" smooth="yes"/>
      <point x="60" y="-164" type="line" smooth="yes"/>
      <point x="60" y="-247"/>
      <point x="75" y="-308"/>
      <point x="112" y="-355" type="curve" smooth="yes"/>
      <point x="153" y="-408"/>
      <point x="221" y="-442"/>
      <point x="310" y="-442" type="curve" smooth="yes"/>
      <point x="330" y="-442" type="line" smooth="yes"/>
      <point x="419" y="-442"/>
      <point x="487" y="-408"/>
      <point x="528" y="-355" type="curve" smooth="yes"/>
      <point x="565" y="-308"/>
      <point x="580" y="-247"/>
      <point x="580" y="-164" type="curve" smooth="yes"/>
    </contour>
    <contour>
      <point x="514" y="243" type="curve" smooth="yes"/>
      <point x="514" y="-139" type="line" smooth="yes"/>
      <point x="514" y="-262"/>
      <point x="434" y="-314"/>
      <point x="320" y="-314" type="curve" smooth="yes"/>
      <point x="206" y="-314"/>
      <point x="126" y="-262"/>
      <point x="126" y="-139" type="curve" smooth="yes"/>
      <point x="126" y="243" type="line" smooth="yes"/>
      <point x="126" y="366"/>
      <point x="206" y="418"/>
      <point x="320" y="418" type="curve" smooth="yes"/>
      <point x="434" y="418"/>
      <point x="514" y="366"/>
    </contour>
  </outline>
</glyph>
<glyph name="one_shn" format="2">
  <advance width="449"/>
  <unicode hex="1091"/>
  <outline>
    <contour>
      <point x="291" y="536" type="line"/>
      <point x="228" y="536" type="line"/>
      <point x="70" y="437" type="line"/>
      <point x="70" y="301" type="line"/>
      <point x="215" y="392" type="line"/>
      <point x="215" y="-231" type="line" smooth="yes"/>
      <point x="215" y="-384"/>
      <point x="270" y="-442"/>
      <point x="386" y="-442" type="curve" smooth="yes"/>
      <point x="392" y="-442"/>
      <point x="396" y="-442"/>
      <point x="402" y="-441" type="curve"/>
      <point x="402" y="-313" type="line"/>
      <point x="397" y="-313" type="line" smooth="yes"/>
      <point x="315" y="-313"/>
      <point x="291" y="-281"/>
      <point x="291" y="-199" type="curve" smooth="yes"/>
    </contour>
  </outline>
</glyph>
<glyph name="two_shn" format="2">
  <advance width="648"/>
  <unicode hex="1092"/>
  <outline>
    <contour>
      <point x="134" y="546" type="curve"/>
      <point x="74" y="546" type="line"/>
      <point x="66" y="532"/>
      <point x="57" y="506"/>
      <point x="57" y="478" type="curve" smooth="yes"/>
      <point x="57" y="424"/>
      <point x="93" y="370"/>
      <point x="178" y="370" type="curve" smooth="yes"/>
      <point x="262" y="370"/>
      <point x="303" y="423"/>
      <point x="384" y="423" type="curve" smooth="yes"/>
      <point x="477" y="423"/>
      <point x="502" y="353"/>
      <point x="502" y="288" type="curve" smooth="yes"/>
      <point x="502" y="25"/>
      <point x="66" y="19"/>
      <point x="66" y="-290" type="curve" smooth="yes"/>
      <point x="66" y="-356"/>
      <point x="86" y="-404"/>
      <point x="109" y="-432" type="curve"/>
      <point x="227" y="-432" type="line"/>
      <point x="230" y="-421" type="line"/>
      <point x="201" y="-384"/>
      <point x="182" y="-336"/>
      <point x="182" y="-275" type="curve" smooth="yes"/>
      <point x="182" y="-9"/>
      <point x="593" y="-6"/>
      <point x="593" y="309" type="curve" smooth="yes"/>
      <point x="593" y="434"/>
      <point x="523" y="546"/>
      <point x="382" y="546" type="curve" smooth="yes"/>
      <point x="275" y="546"/>
      <point x="237" y="478"/>
      <point x="179" y="478" type="curve" smooth="yes"/>
      <point x="151" y="478"/>
      <point x="133" y="495"/>
      <point x="133" y="529" type="curve" smooth="yes"/>
      <point x="133" y="535"/>
      <point x="133" y="540"/>
    </contour>
  </outline>
</glyph>
<glyph name="three_shn" format="2">
  <advance width="590"/>
  <unicode hex="1093"/>
  <outline>
    <contour>
      <point x="415" y="536" type="line"/>
      <point x="154" y="536" type="line"/>
      <point x="154" y="413" type="line"/>
      <point x="303" y="413" type="line"/>
      <point x="23" y="-432" type="line"/>
      <point x="103" y="-432" type="line"/>
      <point x="418" y="525" type="line"/>
    </contour>
    <contour>
      <point x="227" y="100" type="line"/>
      <point x="188" y="-28" type="line"/>
      <point x="280" y="-28" type="line" smooth="yes"/>
      <point x="362" y="-28"/>
      <point x="396" y="-37"/>
      <point x="425" y="-149" type="curve" smooth="yes"/>
      <point x="448" y="-238"/>
      <point x="458" y="-333"/>
      <point x="470" y="-432" type="curve"/>
      <point x="564" y="-432" type="line"/>
      <point x="535" y="-311"/>
      <point x="518" y="-233"/>
      <point x="481" y="-110" type="curve" smooth="yes"/>
      <point x="439" y="29"/>
      <point x="411" y="100"/>
      <point x="312" y="100" type="curve" smooth="yes"/>
    </contour>
  </outline>
</glyph>
<glyph name="four_shn" format="2">
  <advance width="757"/>
  <unicode hex="1094"/>
  <outline>
    <contour>
      <point x="433" y="536" type="line"/>
      <point x="172" y="536" type="line"/>
      <point x="172" y="413" type="line"/>
      <point x="317" y="413" type="line"/>
      <point x="158" y="-231" type="line" smooth="yes"/>
      <point x="142" y="-296"/>
      <point x="123" y="-314"/>
      <point x="85" y="-314" type="curve" smooth="yes"/>
      <point x="75" y="-314"/>
      <point x="66" y="-313"/>
      <point x="56" y="-310" type="curve"/>
      <point x="24" y="-435" type="line"/>
      <point x="42" y="-440"/>
      <point x="58" y="-442"/>
      <point x="85" y="-442" type="curve" smooth="yes"/>
      <point x="151" y="-442"/>
      <point x="190" y="-403"/>
      <point x="207" y="-334" type="curve" smooth="yes"/>
      <point x="409" y="495" type="line"/>
      <point x="371" y="495" type="line"/>
      <point x="573" y="-334" type="line" smooth="yes"/>
      <point x="590" y="-403"/>
      <point x="629" y="-442"/>
      <point x="695" y="-442" type="curve" smooth="yes"/>
      <point x="722" y="-442"/>
      <point x="738" y="-440"/>
      <point x="756" y="-435" type="curve"/>
      <point x="724" y="-310" type="line"/>
      <point x="714" y="-313"/>
      <point x="705" y="-314"/>
      <point x="695" y="-314" type="curve" smooth="yes"/>
      <point x="657" y="-314"/>
      <point x="638" y="-296"/>
      <point x="622" y="-231" type="curve" smooth="yes"/>
    </contour>
  </outline>
</glyph>
<glyph name="six_shn" format="2">
  <advance width="687"/>
  <unicode hex="1096"/>
  <outline>
    <contour>
      <point x="643" y="112" type="line"/>
      <point x="315" y="112" type="line" smooth="yes"/>
      <point x="196" y="112"/>
      <point x="121" y="155"/>
      <point x="121" y="263" type="curve" smooth="yes"/>
      <point x="121" y="273" type="line" smooth="yes"/>
      <point x="121" y="380"/>
      <point x="201" y="418"/>
      <point x="313" y="418" type="curve" smooth="yes"/>
      <point x="423" y="418"/>
      <point x="490" y="380"/>
      <point x="490" y="261" type="curve" smooth="yes"/>
      <point x="490" y="251" type="line" smooth="yes"/>
      <point x="490" y="52"/>
      <point x="400" y="-201"/>
      <point x="309" y="-432" type="curve"/>
      <point x="446" y="-432" type="line"/>
      <point x="503" y="-210"/>
      <point x="556" y="86"/>
      <point x="556" y="253" type="curve" smooth="yes"/>
      <point x="556" y="442"/>
      <point x="489" y="546"/>
      <point x="324" y="546" type="curve" smooth="yes"/>
      <point x="305" y="546" type="line" smooth="yes"/>
      <point x="216" y="546"/>
      <point x="148" y="512"/>
      <point x="107" y="459" type="curve" smooth="yes"/>
      <point x="70" y="411"/>
      <point x="55" y="349"/>
      <point x="55" y="265" type="curve" smooth="yes"/>
      <point x="55" y="90"/>
      <point x="140" y="-11"/>
      <point x="305" y="-11" type="curve" smooth="yes"/>
      <point x="643" y="-11" type="line"/>
    </contour>
  </outline>
</glyph>
<glyph name="seven_shn" format="2">
  <advance width="623"/>
  <unicode hex="1097"/>
  <outline>
    <contour>
      <point x="606" y="432" type="line"/>
      <point x="575" y="496"/>
      <point x="493" y="546"/>
      <point x="333" y="546" type="curve" smooth="yes"/>
      <point x="294" y="546" type="line" smooth="yes"/>
      <point x="104" y="546"/>
      <point x="36" y="485"/>
      <point x="36" y="368" type="curve" smooth="yes"/>
      <point x="36" y="354"/>
      <point x="38" y="335"/>
      <point x="42" y="320" type="curve"/>
      <point x="105" y="320" type="line"/>
      <point x="105" y="399"/>
      <point x="162" y="418"/>
      <point x="281" y="418" type="curve" smooth="yes"/>
      <point x="405" y="418"/>
      <point x="463" y="397"/>
      <point x="485" y="368" type="curve"/>
      <point x="24" y="-405" type="line"/>
      <point x="73" y="-432"/>
      <point x="154" y="-442"/>
      <point x="241" y="-442" type="curve" smooth="yes"/>
      <point x="440" y="-442"/>
      <point x="505" y="-388"/>
      <point x="505" y="-268" type="curve" smooth="yes"/>
      <point x="505" y="-253"/>
      <point x="504" y="-235"/>
      <point x="500" y="-220" type="curve"/>
      <point x="438" y="-220" type="line"/>
      <point x="438" y="-300"/>
      <point x="381" y="-316"/>
      <point x="260" y="-316" type="curve" smooth="yes"/>
      <point x="217" y="-316"/>
      <point x="189" y="-314"/>
      <point x="163" y="-309" type="curve"/>
    </contour>
  </outline>
</glyph>
<glyph name="eight_shn" format="2">
  <advance width="650"/>
  <unicode hex="1098"/>
  <outline>
    <contour>
      <point x="62" y="394" type="curve" smooth="yes"/>
      <point x="62" y="69"/>
      <point x="514" y="51"/>
      <point x="514" y="-171" type="curve" smooth="yes"/>
      <point x="514" y="-249"/>
      <point x="460" y="-318"/>
      <point x="342" y="-318" type="curve" smooth="yes"/>
      <point x="308" y="-318" type="line" smooth="yes"/>
      <point x="190" y="-318"/>
      <point x="137" y="-249"/>
      <point x="137" y="-171" type="curve" smooth="yes"/>
      <point x="137" y="51"/>
      <point x="588" y="69"/>
      <point x="588" y="394" type="curve" smooth="yes"/>
      <point x="588" y="460"/>
      <point x="568" y="508"/>
      <point x="545" y="536" type="curve"/>
      <point x="431" y="536" type="line"/>
      <point x="428" y="525" type="line"/>
      <point x="457" y="486"/>
      <point x="477" y="434"/>
      <point x="477" y="370" type="curve" smooth="yes"/>
      <point x="477" y="83"/>
      <point x="55" y="99"/>
      <point x="55" y="-199" type="curve" smooth="yes"/>
      <point x="55" y="-328"/>
      <point x="131" y="-442"/>
      <point x="296" y="-442" type="curve" smooth="yes"/>
      <point x="355" y="-442" type="line" smooth="yes"/>
      <point x="519" y="-442"/>
      <point x="595" y="-328"/>
      <point x="595" y="-199" type="curve" smooth="yes"/>
      <point x="595" y="99"/>
      <point x="173" y="83"/>
      <point x="173" y="370" type="curve" smooth="yes"/>
      <point x="173" y="434"/>
      <point x="193" y="486"/>
      <point x="222" y="525" type="curve"/>
      <point x="219" y="536" type="line"/>
      <point x="105" y="536" type="line"/>
      <point x="82" y="508"/>
      <point x="62" y="460"/>
    </contour>
  </outline>
</glyph>
<glyph name="tone1_khm" format="2">
  <advance width="336"/>
  <unicode hex="109A"/>
  <outline>
    <contour>
      <point x="168" y="334" type="curve" smooth="yes"/>
      <point x="233" y="334"/>
      <point x="275" y="380"/>
      <point x="275" y="439" type="curve" smooth="yes"/>
      <point x="275" y="500"/>
      <point x="233" y="546"/>
      <point x="168" y="546" type="curve" smooth="yes"/>
      <point x="103" y="546"/>
      <point x="61" y="500"/>
      <point x="61" y="439" type="curve" smooth="yes"/>
      <point x="61" y="380"/>
      <point x="103" y="334"/>
    </contour>
  </outline>
</glyph>
<glyph name="_a_atn" format="2">
  <advance width="470"/>
  <unicode hex="109C"/>
  <outline>
    <contour>
      <point x="434" y="439" type="line"/>
      <point x="356" y="508"/>
      <point x="289" y="536"/>
      <point x="215" y="536" type="curve" smooth="yes"/>
      <point x="122" y="536"/>
      <point x="61" y="486"/>
      <point x="61" y="407" type="curve" smooth="yes"/>
      <point x="61" y="348"/>
      <point x="101" y="306"/>
      <point x="156" y="306" type="curve" smooth="yes"/>
      <point x="216" y="306"/>
      <point x="254" y="347"/>
      <point x="254" y="394" type="curve" smooth="yes"/>
      <point x="254" y="441"/>
      <point x="211" y="477"/>
      <point x="166" y="477" type="curve" smooth="yes"/>
      <point x="152" y="477"/>
      <point x="137" y="474"/>
      <point x="130" y="465" type="curve"/>
      <point x="142" y="453" type="line"/>
      <point x="161" y="461"/>
      <point x="187" y="466"/>
      <point x="215" y="466" type="curve" smooth="yes"/>
      <point x="262" y="466"/>
      <point x="323" y="446"/>
      <point x="396" y="384" type="curve"/>
    </contour>
    <contour>
      <point x="434" y="133" type="line"/>
      <point x="356" y="202"/>
      <point x="290" y="230"/>
      <point x="216" y="230" type="curve" smooth="yes"/>
      <point x="123" y="230"/>
      <point x="61" y="180"/>
      <point x="61" y="102" type="curve" smooth="yes"/>
      <point x="61" y="42"/>
      <point x="101" y="0"/>
      <point x="156" y="0" type="curve" smooth="yes"/>
      <point x="216" y="0"/>
      <point x="254" y="42"/>
      <point x="254" y="89" type="curve" smooth="yes"/>
      <point x="254" y="135"/>
      <point x="211" y="172"/>
      <point x="167" y="172" type="curve" smooth="yes"/>
      <point x="153" y="172"/>
      <point x="138" y="168"/>
      <point x="130" y="159" type="curve"/>
      <point x="142" y="148" type="line"/>
      <point x="161" y="155"/>
      <point x="187" y="160"/>
      <point x="215" y="160" type="curve" smooth="yes"/>
      <point x="262" y="160"/>
      <point x="323" y="140"/>
      <point x="396" y="79" type="curve"/>
    </contour>
  </outline>
</glyph>
<glyph name="_ai_phk" format="2">
  <unicode hex="109D"/>
  <outline>
    <contour>
      <point x="-237" y="799" type="curve"/>
      <point x="-273" y="838" type="line"/>
      <point x="-273" y="796"/>
      <point x="-298" y="778"/>
      <point x="-344" y="778" type="curve" smooth="yes"/>
      <point x="-393" y="778"/>
      <point x="-423" y="802"/>
      <point x="-423" y="857" type="curve" smooth="yes"/>
      <point x="-423" y="934"/>
      <point x="-367" y="965"/>
      <point x="-286" y="965" type="curve" smooth="yes"/>
      <point x="-197" y="965"/>
      <point x="-139" y="918"/>
      <point x="-139" y="799" type="curve" smooth="yes"/>
      <point x="-139" y="716"/>
      <point x="-159" y="612"/>
      <point x="-206" y="493" type="curve"/>
      <point x="-154" y="479" type="line"/>
      <point x="-97" y="614"/>
      <point x="-71" y="722"/>
      <point x="-71" y="832" type="curve" smooth="yes"/>
      <point x="-71" y="985"/>
      <point x="-137" y="1078"/>
      <point x="-270" y="1078" type="curve" smooth="yes"/>
      <point x="-409" y="1078"/>
      <point x="-477" y="989"/>
      <point x="-477" y="869" type="curve" smooth="yes"/>
      <point x="-477" y="769"/>
      <point x="-427" y="701"/>
      <point x="-335" y="701" type="curve" smooth="yes"/>
      <point x="-271" y="701"/>
      <point x="-221" y="737"/>
      <point x="-221" y="823" type="curve" smooth="yes"/>
      <point x="-221" y="873"/>
      <point x="-254" y="906"/>
      <point x="-300" y="906" type="curve" smooth="yes"/>
      <point x="-346" y="906"/>
      <point x="-379" y="873"/>
      <point x="-379" y="824" type="curve" smooth="yes"/>
      <point x="-379" y="776"/>
      <point x="-346" y="742"/>
      <point x="-300" y="742" type="curve" smooth="yes"/>
      <point x="-254" y="742"/>
      <point x="-237" y="788"/>
    </contour>
  </outline>
</glyph>
<glyph name="exclam_shn" format="2">
  <advance width="836"/>
  <unicode hex="109F"/>
  <outline>
    <contour>
      <point x="776" y="10" type="line"/>
      <point x="700" y="10" type="line"/>
      <point x="700" y="-356" type="line" smooth="yes"/>
      <point x="700" y="-410"/>
      <point x="675" y="-426"/>
      <point x="640" y="-426" type="curve" smooth="yes"/>
      <point x="605" y="-426"/>
      <point x="580" y="-410"/>
      <point x="580" y="-356" type="curve" smooth="yes"/>
      <point x="580" y="268" type="line" smooth="yes"/>
      <point x="580" y="351"/>
      <point x="565" y="412"/>
      <point x="528" y="459" type="curve" smooth="yes"/>
      <point x="487" y="512"/>
      <point x="419" y="546"/>
      <point x="330" y="546" type="curve" smooth="yes"/>
      <point x="305" y="546" type="line" smooth="yes"/>
      <point x="213" y="546"/>
      <point x="150" y="512"/>
      <point x="109" y="462" type="curve" smooth="yes"/>
      <point x="70" y="412"/>
      <point x="55" y="349"/>
      <point x="55" y="270" type="curve" smooth="yes"/>
      <point x="55" y="186"/>
      <point x="72" y="125"/>
      <point x="107" y="76" type="curve" smooth="yes"/>
      <point x="146" y="22"/>
      <point x="203" y="-10"/>
      <point x="281" y="-10" type="curve" smooth="yes"/>
      <point x="373" y="-10"/>
      <point x="415" y="48"/>
      <point x="415" y="152" type="curve"/>
      <point x="351" y="82"/>
      <point x="308" y="85"/>
      <point x="254" y="85" type="curve"/>
      <point x="147" y="85"/>
      <point x="121" y="142"/>
      <point x="121" y="233" type="curve" smooth="yes"/>
      <point x="121" y="253" type="line" smooth="yes"/>
      <point x="121" y="377"/>
      <point x="202" y="418"/>
      <point x="309" y="418" type="curve" smooth="yes"/>
      <point x="425" y="418"/>
      <point x="504" y="380"/>
      <point x="504" y="273" type="curve" smooth="yes"/>
      <point x="504" y="-392" type="line" smooth="yes"/>
      <point x="504" y="-480"/>
      <point x="547" y="-542"/>
      <point x="633" y="-542" type="curve" smooth="yes"/>
      <point x="647" y="-542" type="line" smooth="yes"/>
      <point x="731" y="-542"/>
      <point x="776" y="-483"/>
      <point x="776" y="-392" type="curve" smooth="yes"/>
    </contour>
    <contour>
      <point x="281" y="22" type="curve" smooth="yes"/>
      <point x="365" y="22"/>
      <point x="415" y="75"/>
      <point x="415" y="152" type="curve" smooth="yes"/>
      <point x="415" y="231"/>
      <point x="365" y="284"/>
      <point x="281" y="284" type="curve" smooth="yes"/>
      <point x="197" y="284"/>
      <point x="147" y="231"/>
      <point x="147" y="152" type="curve" smooth="yes"/>
      <point x="147" y="75"/>
      <point x="197" y="22"/>
    </contour>
    <contour>
      <point x="281" y="100" type="curve" smooth="yes"/>
      <point x="226" y="100"/>
      <point x="202" y="122"/>
      <point x="202" y="152" type="curve" smooth="yes"/>
      <point x="202" y="183"/>
      <point x="226" y="206"/>
      <point x="281" y="206" type="curve" smooth="yes"/>
      <point x="336" y="206"/>
      <point x="360" y="183"/>
      <point x="360" y="152" type="curve" smooth="yes"/>
      <point x="360" y="122"/>
      <point x="336" y="100"/>
    </contour>
    <component base="asatstem" xOffset="640"/>
  </outline>
</glyph>
<glyph name="quoteright" format="2">
  <advance width="390"/>
  <unicode hex="2019"/>
  <outline>
    <contour>
      <point x="329" y="846" type="curve"/>
      <point x="185" y="722" type="line"/>
      <point x="166" y="680"/>
      <point x="137" y="635"/>
      <point x="86" y="576" type="curve"/>
      <point x="144" y="536" type="line"/>
      <point x="223" y="594"/>
      <point x="329" y="713"/>
    </contour>
    <contour>
      <point x="195" y="716" type="curve" smooth="yes"/>
      <point x="279" y="716"/>
      <point x="329" y="769"/>
      <point x="329" y="846" type="curve" smooth="yes"/>
      <point x="329" y="925"/>
      <point x="279" y="978"/>
      <point x="195" y="978" type="curve" smooth="yes"/>
      <point x="111" y="978"/>
      <point x="61" y="925"/>
      <point x="61" y="846" type="curve" smooth="yes"/>
      <point x="61" y="769"/>
      <point x="111" y="716"/>
    </contour>
    <contour>
      <point x="195" y="794" type="curve" smooth="yes"/>
      <point x="140" y="794"/>
      <point x="116" y="816"/>
      <point x="116" y="846" type="curve" smooth="yes"/>
      <point x="116" y="877"/>
      <point x="140" y="900"/>
      <point x="195" y="900" type="curve" smooth="yes"/>
      <point x="250" y="900"/>
      <point x="274" y="877"/>
      <point x="274" y="846" type="curve" smooth="yes"/>
      <point x="274" y="816"/>
      <point x="250" y="794"/>
    </contour>
  </outline>
</glyph>
<glyph name="ellipsis" format="2">
  <advance width="1170"/>
  <unicode hex="2026"/>
  <outline>
    <contour>
      <point x="195" y="-16" type="curve" smooth="yes"/>
      <point x="279" y="-16"/>
      <point x="329" y="37"/>
      <point x="329" y="114" type="curve" smooth="yes"/>
      <point x="329" y="193"/>
      <point x="279" y="246"/>
      <point x="195" y="246" type="curve" smooth="yes"/>
      <point x="111" y="246"/>
      <point x="61" y="193"/>
      <point x="61" y="114" type="curve" smooth="yes"/>
      <point x="61" y="37"/>
      <point x="111" y="-16"/>
    </contour>
    <contour>
      <point x="195" y="62" type="curve" smooth="yes"/>
      <point x="140" y="62"/>
      <point x="116" y="84"/>
      <point x="116" y="114" type="curve" smooth="yes"/>
      <point x="116" y="145"/>
      <point x="140" y="168"/>
      <point x="195" y="168" type="curve" smooth="yes"/>
      <point x="250" y="168"/>
      <point x="274" y="145"/>
      <point x="274" y="114" type="curve" smooth="yes"/>
      <point x="274" y="84"/>
      <point x="250" y="62"/>
    </contour>
    <contour>
      <point x="585" y="-16" type="curve" smooth="yes"/>
      <point x="669" y="-16"/>
      <point x="719" y="37"/>
      <point x="719" y="114" type="curve" smooth="yes"/>
      <point x="719" y="193"/>
      <point x="669" y="246"/>
      <point x="585" y="246" type="curve" smooth="yes"/>
      <point x="501" y="246"/>
      <point x="451" y="193"/>
      <point x="451" y="114" type="curve" smooth="yes"/>
      <point x="451" y="37"/>
      <point x="501" y="-16"/>
    </contour>
    <contour>
      <point x="585" y="62" type="curve" smooth="yes"/>
      <point x="530" y="62"/>
      <point x="506" y="84"/>
      <point x="506" y="114" type="curve" smooth="yes"/>
      <point x="506" y="145"/>
      <point x="530" y="168"/>
      <point x="585" y="168" type="curve" smooth="yes"/>
      <point x="640" y="168"/>
      <point x="664" y="145"/>
      <point x="664" y="114" type="curve" smooth="yes"/>
      <point x="664" y="84"/>
      <point x="640" y="62"/>
    </contour>
    <contour>
      <point x="975" y="-16" type="curve" smooth="yes"/>
      <point x="1059" y="-16"/>
      <point x="1109" y="37"/>
      <point x="1109" y="114" type="curve" smooth="yes"/>
      <point x="1109" y="193"/>
      <point x="1059" y="246"/>
      <point x="975" y="246" type="curve" smooth="yes"/>
      <point x="891" y="246"/>
      <point x="841" y="193"/>
      <point x="841" y="114" type="curve" smooth="yes"/>
      <point x="841" y="37"/>
      <point x="891" y="-16"/>
    </contour>
    <contour>
      <point x="975" y="62" type="curve" smooth="yes"/>
      <point x="920" y="62"/>
      <point x="896" y="84"/>
      <point x="896" y="114" type="curve" smooth="yes"/>
      <point x="896" y="145"/>
      <point x="920" y="168"/>
      <point x="975" y="168" type="curve" smooth="yes"/>
      <point x="1030" y="168"/>
      <point x="1054" y="145"/>
      <point x="1054" y="114" type="curve" smooth="yes"/>
      <point x="1054" y="84"/>
      <point x="1030" y="62"/>
    </contour>
  </outline>
</glyph>
